<?xml version="1.0" encoding="utf-8" standalone="no"?>
<!DOCTYPE svg PUBLIC "-//W3C//DTD SVG 1.1//EN"
  "http://www.w3.org/Graphics/SVG/1.1/DTD/svg11.dtd">
<!-- Created with matplotlib (https://matplotlib.org/) -->
<svg height="345.6pt" version="1.1" viewBox="0 0 460.8 345.6" width="460.8pt" xmlns="http://www.w3.org/2000/svg" xmlns:xlink="http://www.w3.org/1999/xlink">
 <defs>
  <style type="text/css">
*{stroke-linecap:butt;stroke-linejoin:round;}
  </style>
 </defs>
 <g id="figure_1">
  <g id="patch_1">
   <path d="M 0 345.6 
L 460.8 345.6 
L 460.8 0 
L 0 0 
z
" style="fill:#ffffff;"/>
  </g>
  <g id="axes_1">
   <g id="patch_2">
    <path d="M 57.6 307.584 
L 414.72 307.584 
L 414.72 41.472 
L 57.6 41.472 
z
" style="fill:#ffffff;"/>
   </g>
   <g id="matplotlib.axis_1">
    <g id="xtick_1">
     <g id="line2d_1">
      <defs>
       <path d="M 0 0 
L 0 3.5 
" id="mf2783be40c" style="stroke:#000000;stroke-width:0.8;"/>
      </defs>
      <g>
       <use style="stroke:#000000;stroke-width:0.8;" x="72.746926" xlink:href="#mf2783be40c" y="307.584"/>
      </g>
     </g>
     <g id="text_1">
      <!-- $0$ -->
      <defs>
       <path d="M 42 31.640625 
C 42 37.75 41.90625 48.125 37.703125 56.109375 
C 34 63.109375 28.09375 65.59375 22.90625 65.59375 
C 18.09375 65.59375 12 63.40625 8.203125 56.203125 
C 4.203125 48.71875 3.796875 39.4375 3.796875 31.640625 
C 3.796875 25.953125 3.90625 17.28125 7 9.671875 
C 11.296875 -0.609375 19 -2 22.90625 -2 
C 27.5 -2 34.5 -0.109375 38.59375 9.375 
C 41.59375 16.28125 42 24.359375 42 31.640625 
z
M 22.90625 -0.40625 
C 16.5 -0.40625 12.703125 5.078125 11.296875 12.6875 
C 10.203125 18.5625 10.203125 27.15625 10.203125 32.75 
C 10.203125 40.4375 10.203125 46.828125 11.5 52.921875 
C 13.40625 61.390625 19 64 22.90625 64 
C 27 64 32.296875 61.296875 34.203125 53.125 
C 35.5 47.4375 35.59375 40.734375 35.59375 32.75 
C 35.59375 26.25 35.59375 18.265625 34.40625 12.375 
C 32.296875 1.484375 26.40625 -0.40625 22.90625 -0.40625 
z
" id="CMR17-48"/>
      </defs>
      <g transform="translate(70.256258 321.502498)scale(0.1 -0.1)">
       <use transform="scale(0.996264)" xlink:href="#CMR17-48"/>
      </g>
     </g>
    </g>
    <g id="xtick_2">
     <g id="line2d_2">
      <g>
       <use style="stroke:#000000;stroke-width:0.8;" x="127.036984" xlink:href="#mf2783be40c" y="307.584"/>
      </g>
     </g>
     <g id="text_2">
      <!-- $50$ -->
      <defs>
       <path d="M 11.40625 57.6875 
C 12.40625 57.28125 16.5 56 20.703125 56 
C 30 56 35.09375 61.109375 38 64.0625 
C 38 64.953125 38 65.5 37.40625 65.5 
C 37.296875 65.5 37.09375 65.5 36.296875 65.046875 
C 32.796875 63.40625 28.703125 62.078125 23.703125 62.078125 
C 20.703125 62.078125 16.203125 62.484375 11.296875 64.671875 
C 10.203125 65.171875 10 65.171875 9.90625 65.171875 
C 9.40625 65.171875 9.296875 65.0625 9.296875 63.078125 
L 9.296875 34.421875 
C 9.296875 32.640625 9.296875 32.140625 10.296875 32.140625 
C 10.796875 32.140625 11 32.34375 11.5 33.03125 
C 14.703125 37.515625 19.09375 39.40625 24.09375 39.40625 
C 27.59375 39.40625 35.09375 37.21875 35.09375 20.140625 
C 35.09375 16.953125 35.09375 11.171875 32.09375 6.578125 
C 29.59375 2.484375 25.703125 0.390625 21.40625 0.390625 
C 14.796875 0.390625 8.09375 5 6.296875 12.71875 
C 6.703125 12.609375 7.5 12.421875 7.90625 12.421875 
C 9.203125 12.421875 11.703125 13.125 11.703125 16.21875 
C 11.703125 18.90625 9.796875 20 7.90625 20 
C 5.59375 20 4.09375 18.59375 4.09375 15.796875 
C 4.09375 7.09375 11 -2 21.59375 -2 
C 31.90625 -2 41.703125 6.875 41.703125 19.75 
C 41.703125 31.71875 33.90625 41 24.203125 41 
C 19.09375 41 14.796875 39.109375 11.40625 35.53125 
z
" id="CMR17-53"/>
      </defs>
      <g transform="translate(122.055649 321.502498)scale(0.1 -0.1)">
       <use transform="scale(0.996264)" xlink:href="#CMR17-53"/>
       <use transform="translate(45.690477 0)scale(0.996264)" xlink:href="#CMR17-48"/>
      </g>
     </g>
    </g>
    <g id="xtick_3">
     <g id="line2d_3">
      <g>
       <use style="stroke:#000000;stroke-width:0.8;" x="181.327042" xlink:href="#mf2783be40c" y="307.584"/>
      </g>
     </g>
     <g id="text_3">
      <!-- $100$ -->
      <defs>
       <path d="M 26.59375 63.40625 
C 26.59375 65.5 26.5 65.5 25.09375 65.5 
C 21.203125 61.1875 15.296875 59.796875 9.703125 59.796875 
C 9.40625 59.796875 8.90625 59.796875 8.796875 59.5 
C 8.703125 59.296875 8.703125 59.09375 8.703125 57 
C 11.796875 57 17 57.59375 21 59.984375 
L 21 7.203125 
C 21 3.6875 20.796875 2.5 12.203125 2.5 
L 9.203125 2.5 
L 9.203125 0 
C 14 0 19 0 23.796875 0 
C 28.59375 0 33.59375 0 38.40625 0 
L 38.40625 2.5 
L 35.40625 2.5 
C 26.796875 2.5 26.59375 3.59375 26.59375 7.15625 
z
" id="CMR17-49"/>
      </defs>
      <g transform="translate(173.855039 321.502498)scale(0.1 -0.1)">
       <use transform="scale(0.996264)" xlink:href="#CMR17-49"/>
       <use transform="translate(45.690477 0)scale(0.996264)" xlink:href="#CMR17-48"/>
       <use transform="translate(91.380954 0)scale(0.996264)" xlink:href="#CMR17-48"/>
      </g>
     </g>
    </g>
    <g id="xtick_4">
     <g id="line2d_4">
      <g>
       <use style="stroke:#000000;stroke-width:0.8;" x="235.617099" xlink:href="#mf2783be40c" y="307.584"/>
      </g>
     </g>
     <g id="text_4">
      <!-- $150$ -->
      <g transform="translate(228.145097 321.502498)scale(0.1 -0.1)">
       <use transform="scale(0.996264)" xlink:href="#CMR17-49"/>
       <use transform="translate(45.690477 0)scale(0.996264)" xlink:href="#CMR17-53"/>
       <use transform="translate(91.380954 0)scale(0.996264)" xlink:href="#CMR17-48"/>
      </g>
     </g>
    </g>
    <g id="xtick_5">
     <g id="line2d_5">
      <g>
       <use style="stroke:#000000;stroke-width:0.8;" x="289.907157" xlink:href="#mf2783be40c" y="307.584"/>
      </g>
     </g>
     <g id="text_5">
      <!-- $200$ -->
      <defs>
       <path d="M 41.703125 15.453125 
L 39.90625 15.453125 
C 38.90625 8.375 38.09375 7.171875 37.703125 6.5625 
C 37.203125 5.765625 30 5.765625 28.59375 5.765625 
L 9.40625 5.765625 
C 13 9.671875 20 16.75 28.5 24.953125 
C 34.59375 30.734375 41.703125 37.53125 41.703125 47.421875 
C 41.703125 59.21875 32.296875 66 21.796875 66 
C 10.796875 66 4.09375 56.3125 4.09375 47.34375 
C 4.09375 43.4375 7 42.9375 8.203125 42.9375 
C 9.203125 42.9375 12.203125 43.546875 12.203125 47.03125 
C 12.203125 50.109375 9.59375 51 8.203125 51 
C 7.59375 51 7 50.90625 6.59375 50.703125 
C 8.5 59.21875 14.296875 63.40625 20.40625 63.40625 
C 29.09375 63.40625 34.796875 56.515625 34.796875 47.421875 
C 34.796875 38.734375 29.703125 31.25 24 24.75 
L 4.09375 2.28125 
L 4.09375 0 
L 39.296875 0 
z
" id="CMR17-50"/>
      </defs>
      <g transform="translate(282.435154 321.502498)scale(0.1 -0.1)">
       <use transform="scale(0.996264)" xlink:href="#CMR17-50"/>
       <use transform="translate(45.690477 0)scale(0.996264)" xlink:href="#CMR17-48"/>
       <use transform="translate(91.380954 0)scale(0.996264)" xlink:href="#CMR17-48"/>
      </g>
     </g>
    </g>
    <g id="xtick_6">
     <g id="line2d_6">
      <g>
       <use style="stroke:#000000;stroke-width:0.8;" x="344.197215" xlink:href="#mf2783be40c" y="307.584"/>
      </g>
     </g>
     <g id="text_6">
      <!-- $250$ -->
      <g transform="translate(336.725212 321.502498)scale(0.1 -0.1)">
       <use transform="scale(0.996264)" xlink:href="#CMR17-50"/>
       <use transform="translate(45.690477 0)scale(0.996264)" xlink:href="#CMR17-53"/>
       <use transform="translate(91.380954 0)scale(0.996264)" xlink:href="#CMR17-48"/>
      </g>
     </g>
    </g>
    <g id="xtick_7">
     <g id="line2d_7">
      <g>
       <use style="stroke:#000000;stroke-width:0.8;" x="398.487273" xlink:href="#mf2783be40c" y="307.584"/>
      </g>
     </g>
     <g id="text_7">
      <!-- $300$ -->
      <defs>
       <path d="M 22.09375 33.703125 
C 31 33.703125 34.90625 25.96875 34.90625 17.03125 
C 34.90625 5 28.5 0.390625 22.703125 0.390625 
C 17.40625 0.390625 8.796875 3.03125 6.09375 10.828125 
C 6.59375 10.625 7.09375 10.625 7.59375 10.625 
C 10 10.625 11.796875 12.21875 11.796875 14.8125 
C 11.796875 17.703125 9.59375 19 7.59375 19 
C 5.90625 19 3.296875 18.203125 3.296875 14.46875 
C 3.296875 5.234375 12.296875 -2 22.90625 -2 
C 34 -2 42.5 6.71875 42.5 16.953125 
C 42.5 26.671875 34.5 33.703125 25 34.796875 
C 32.59375 36.375 39.90625 43.0625 39.90625 52.015625 
C 39.90625 59.6875 32 65.296875 23 65.296875 
C 13.90625 65.296875 5.90625 59.828125 5.90625 52.015625 
C 5.90625 48.59375 8.5 48 9.796875 48 
C 11.90625 48 13.703125 49.296875 13.703125 51.890625 
C 13.703125 54.46875 11.90625 55.765625 9.796875 55.765625 
C 9.40625 55.765625 8.90625 55.765625 8.5 55.578125 
C 11.40625 61.859375 19.296875 63 22.796875 63 
C 26.296875 63 32.90625 61.328125 32.90625 51.875 
C 32.90625 49.109375 32.5 44.1875 29.09375 39.84375 
C 26.09375 36 22.703125 36 19.40625 35.6875 
C 18.90625 35.6875 16.59375 35.453125 16.203125 35.453125 
C 15.5 35.359375 15.09375 35.265625 15.09375 34.5 
C 15.09375 33.796875 15.203125 33.703125 17.203125 33.703125 
z
" id="CMR17-51"/>
      </defs>
      <g transform="translate(391.01527 321.502498)scale(0.1 -0.1)">
       <use transform="scale(0.996264)" xlink:href="#CMR17-51"/>
       <use transform="translate(45.690477 0)scale(0.996264)" xlink:href="#CMR17-48"/>
       <use transform="translate(91.380954 0)scale(0.996264)" xlink:href="#CMR17-48"/>
      </g>
     </g>
    </g>
    <g id="text_8">
     <!-- Epoch -->
     <defs>
      <path d="M 30.59375 6.765625 
C 22.59375 6.765625 19 6.765625 17.203125 6.765625 
L 17.203125 32.921875 
L 48.203125 32.921875 
L 48.203125 39 
L 17.203125 39 
L 17.203125 62.640625 
L 30.09375 62.640625 
C 31.296875 62.640625 32.5 62.640625 33.703125 62.640625 
L 50.796875 62.640625 
L 50.796875 69 
L 8.796875 69 
L 8.796875 0 
L 52.09375 0 
L 52.09375 6.765625 
z
" id="CMSS17-69"/>
      <path d="M 15.09375 5.203125 
C 18.40625 2.015625 22.90625 -0.078125 27.703125 -0.078125 
C 37 -0.078125 45 9.421875 45 22.0625 
C 45 33.734375 39 44 30.40625 44 
C 25.40625 44 19.40625 42.21875 14.90625 38.625 
L 14.90625 43.203125 
L 7.5 43.203125 
L 7.5 -19 
L 15.09375 -19 
z
M 15.09375 32.8125 
C 15.90625 34 19.296875 37.734375 24.796875 37.734375 
C 31.796875 37.734375 37.40625 30.625 37.40625 22.0625 
C 37.40625 12.296875 30.59375 6 23.90625 6 
C 21.90625 6 19.796875 6.484375 17.796875 8.171875 
C 15.09375 10.53125 15.09375 12 15.09375 13.390625 
z
" id="CMSS17-112"/>
      <path d="M 44.203125 21.1875 
C 44.203125 34 34.703125 44 23.5 44 
C 12 44 2.703125 33.703125 2.703125 21.1875 
C 2.703125 8.5 12.296875 -1 23.40625 -1 
C 34.796875 -1 44.203125 8.796875 44.203125 21.1875 
z
M 23.5 5.265625 
C 16.40625 5.265625 10.296875 11.078125 10.296875 22 
C 10.296875 33.609375 17.40625 37.921875 23.40625 37.921875 
C 29.90625 37.921875 36.59375 33.21875 36.59375 22 
C 36.59375 10.671875 30.09375 5.265625 23.5 5.265625 
z
" id="CMSS17-111"/>
      <path d="M 38.5 39.703125 
C 38.5 40.390625 33.90625 42.40625 32.703125 42.796875 
C 29.40625 44 25.203125 44 24.09375 44 
C 11.09375 44 3.296875 32.703125 3.296875 21.296875 
C 3.296875 9.296875 12 -1 23.703125 -1 
C 30.40625 -1 35.203125 1.1875 39.09375 3.78125 
L 38.5 10.375 
C 34.203125 7.078125 29.203125 5.265625 23.796875 5.265625 
C 16 5.265625 10.90625 12.09375 10.90625 21.390625 
C 10.90625 28.609375 14.203125 37.71875 24.203125 37.71875 
C 29.703125 37.71875 32.796875 36.609375 37.40625 33.515625 
z
" id="CMSS17-99"/>
      <path d="M 40.90625 29.546875 
C 40.90625 35.8125 39.40625 44.0625 28.09375 44.0625 
C 21.796875 44.0625 17.703125 40.984375 14.796875 37.609375 
L 14.796875 69.5 
L 7.40625 69.5 
L 7.40625 0.5 
L 15 0.5 
L 15 24.578125 
C 15 30.828125 17.40625 38 24.203125 38 
C 33 38 33.296875 32.125 33.296875 28.734375 
L 33.296875 0.5 
L 40.90625 0.5 
z
" id="CMSS17-104"/>
     </defs>
     <g transform="translate(223.056337 334.358175)scale(0.1 -0.1)">
      <use transform="scale(0.996264)" xlink:href="#CMSS17-69"/>
      <use transform="translate(55.892013 0)scale(0.996264)" xlink:href="#CMSS17-112"/>
      <use transform="translate(106.699395 0)scale(0.996264)" xlink:href="#CMSS17-111"/>
      <use transform="translate(156.145457 0)scale(0.996264)" xlink:href="#CMSS17-99"/>
      <use transform="translate(197.784279 0)scale(0.996264)" xlink:href="#CMSS17-104"/>
     </g>
    </g>
   </g>
   <g id="matplotlib.axis_2">
    <g id="ytick_1">
     <g id="line2d_8">
      <defs>
       <path d="M 0 0 
L -3.5 0 
" id="m93fb465025" style="stroke:#000000;stroke-width:0.8;"/>
      </defs>
      <g>
       <use style="stroke:#000000;stroke-width:0.8;" x="57.6" xlink:href="#m93fb465025" y="267.476019"/>
      </g>
     </g>
     <g id="text_9">
      <!-- $0.002$ -->
      <defs>
       <path d="M 18.40625 4.796875 
C 18.40625 7.6875 16 9.671875 13.59375 9.671875 
C 10.703125 9.671875 8.703125 7.28125 8.703125 4.890625 
C 8.703125 2 11.09375 0 13.5 0 
C 16.40625 0 18.40625 2.390625 18.40625 4.796875 
z
" id="CMMI12-58"/>
      </defs>
      <g transform="translate(27.907251 270.935268)scale(0.1 -0.1)">
       <use transform="scale(0.996264)" xlink:href="#CMR17-48"/>
       <use transform="translate(45.690477 0)scale(0.996264)" xlink:href="#CMMI12-58"/>
       <use transform="translate(72.787654 0)scale(0.996264)" xlink:href="#CMR17-48"/>
       <use transform="translate(118.478131 0)scale(0.996264)" xlink:href="#CMR17-48"/>
       <use transform="translate(164.168608 0)scale(0.996264)" xlink:href="#CMR17-50"/>
      </g>
     </g>
    </g>
    <g id="ytick_2">
     <g id="line2d_9">
      <g>
       <use style="stroke:#000000;stroke-width:0.8;" x="57.6" xlink:href="#m93fb465025" y="211.002126"/>
      </g>
     </g>
     <g id="text_10">
      <!-- $0.004$ -->
      <defs>
       <path d="M 33.59375 64.40625 
C 33.59375 66.5 33.5 66.5 31.703125 66.5 
L 2 19.59375 
L 2 17 
L 27.796875 17 
L 27.796875 7.140625 
C 27.796875 3.5 27.59375 2.5 20.59375 2.5 
L 18.703125 2.5 
L 18.703125 0 
C 21.90625 0 27.296875 0 30.703125 0 
C 34.09375 0 39.5 0 42.703125 0 
L 42.703125 2.5 
L 40.796875 2.5 
C 33.796875 2.5 33.59375 3.5 33.59375 7.140625 
L 33.59375 17 
L 43.796875 17 
L 43.796875 19.59375 
L 33.59375 19.59375 
z
M 28.09375 57.859375 
L 28.09375 19.59375 
L 4 19.59375 
z
" id="CMR17-52"/>
      </defs>
      <g transform="translate(27.907251 214.461375)scale(0.1 -0.1)">
       <use transform="scale(0.996264)" xlink:href="#CMR17-48"/>
       <use transform="translate(45.690477 0)scale(0.996264)" xlink:href="#CMMI12-58"/>
       <use transform="translate(72.787654 0)scale(0.996264)" xlink:href="#CMR17-48"/>
       <use transform="translate(118.478131 0)scale(0.996264)" xlink:href="#CMR17-48"/>
       <use transform="translate(164.168608 0)scale(0.996264)" xlink:href="#CMR17-52"/>
      </g>
     </g>
    </g>
    <g id="ytick_3">
     <g id="line2d_10">
      <g>
       <use style="stroke:#000000;stroke-width:0.8;" x="57.6" xlink:href="#m93fb465025" y="154.528233"/>
      </g>
     </g>
     <g id="text_11">
      <!-- $0.006$ -->
      <defs>
       <path d="M 10.59375 34 
C 10.59375 57.65625 21.796875 63 28.296875 63 
C 30.40625 63 35.5 62.640625 37.5 59 
C 35.90625 59 32.90625 59 32.90625 55.515625 
C 32.90625 52.828125 35.09375 51.921875 36.5 51.921875 
C 37.40625 51.921875 40.09375 52.3125 40.09375 55.625 
C 40.09375 61.78125 35.09375 65.296875 28.203125 65.296875 
C 16.296875 65.296875 3.796875 52.96875 3.796875 31 
C 3.796875 3.953125 15.09375 -2 23.09375 -2 
C 32.796875 -2 42 6.671875 42 20.046875 
C 42 32.515625 33.90625 41.59375 23.703125 41.59375 
C 17.59375 41.59375 13.09375 37.609375 10.59375 30.625 
z
M 23.09375 0.390625 
C 10.796875 0.390625 10.796875 18.75 10.796875 22.4375 
C 10.796875 29.625 14.203125 40 23.5 40 
C 25.203125 40 30.09375 40 33.40625 33.125 
C 35.203125 29.21875 35.203125 25.140625 35.203125 20.140625 
C 35.203125 14.75 35.203125 10.78125 33.09375 6.78125 
C 30.90625 2.671875 27.703125 0.390625 23.09375 0.390625 
z
" id="CMR17-54"/>
      </defs>
      <g transform="translate(27.907251 157.987482)scale(0.1 -0.1)">
       <use transform="scale(0.996264)" xlink:href="#CMR17-48"/>
       <use transform="translate(45.690477 0)scale(0.996264)" xlink:href="#CMMI12-58"/>
       <use transform="translate(72.787654 0)scale(0.996264)" xlink:href="#CMR17-48"/>
       <use transform="translate(118.478131 0)scale(0.996264)" xlink:href="#CMR17-48"/>
       <use transform="translate(164.168608 0)scale(0.996264)" xlink:href="#CMR17-54"/>
      </g>
     </g>
    </g>
    <g id="ytick_4">
     <g id="line2d_11">
      <g>
       <use style="stroke:#000000;stroke-width:0.8;" x="57.6" xlink:href="#m93fb465025" y="98.05434"/>
      </g>
     </g>
     <g id="text_12">
      <!-- $0.008$ -->
      <defs>
       <path d="M 27.203125 35.375 
C 33.5 38.546875 39.90625 43.328125 39.90625 50.984375 
C 39.90625 60.015625 31.09375 65.296875 23 65.296875 
C 13.90625 65.296875 5.90625 58.734375 5.90625 49.6875 
C 5.90625 47.203125 6.5 42.921875 10.40625 39.140625 
C 11.40625 38.15625 15.59375 35.171875 18.296875 33.28125 
C 13.796875 30.984375 3.296875 25.53125 3.296875 14.59375 
C 3.296875 4.359375 13.09375 -2 22.796875 -2 
C 33.5 -2 42.5 5.65625 42.5 15.78125 
C 42.5 24.84375 36.40625 29.015625 32.40625 31.703125 
z
M 14.09375 44.09375 
C 13.296875 44.59375 9.296875 47.671875 9.296875 52.359375 
C 9.296875 58.421875 15.59375 63 22.796875 63 
C 30.703125 63 36.5 57.4375 36.5 50.96875 
C 36.5 41.703125 26.09375 36.421875 25.59375 36.421875 
C 25.5 36.421875 25.40625 36.421875 24.59375 37.03125 
z
M 32.5 23.734375 
C 34 22.640625 38.796875 19.375 38.796875 13.296875 
C 38.796875 5.953125 31.40625 0.390625 23 0.390625 
C 13.90625 0.390625 7 6.84375 7 14.6875 
C 7 22.546875 13.09375 29.09375 20 32.1875 
z
" id="CMR17-56"/>
      </defs>
      <g transform="translate(27.907251 101.51359)scale(0.1 -0.1)">
       <use transform="scale(0.996264)" xlink:href="#CMR17-48"/>
       <use transform="translate(45.690477 0)scale(0.996264)" xlink:href="#CMMI12-58"/>
       <use transform="translate(72.787654 0)scale(0.996264)" xlink:href="#CMR17-48"/>
       <use transform="translate(118.478131 0)scale(0.996264)" xlink:href="#CMR17-48"/>
       <use transform="translate(164.168608 0)scale(0.996264)" xlink:href="#CMR17-56"/>
      </g>
     </g>
    </g>
    <g id="ytick_5">
     <g id="line2d_12">
      <g>
       <use style="stroke:#000000;stroke-width:0.8;" x="57.6" xlink:href="#m93fb465025" y="41.580448"/>
      </g>
     </g>
     <g id="text_13">
      <!-- $0.010$ -->
      <g transform="translate(27.907251 45.039697)scale(0.1 -0.1)">
       <use transform="scale(0.996264)" xlink:href="#CMR17-48"/>
       <use transform="translate(45.690477 0)scale(0.996264)" xlink:href="#CMMI12-58"/>
       <use transform="translate(72.787654 0)scale(0.996264)" xlink:href="#CMR17-48"/>
       <use transform="translate(118.478131 0)scale(0.996264)" xlink:href="#CMR17-49"/>
       <use transform="translate(164.168608 0)scale(0.996264)" xlink:href="#CMR17-48"/>
      </g>
     </g>
    </g>
    <g id="text_14">
     <!-- MSE -->
     <defs>
      <path d="M 49.90625 37.046875 
L 45.09375 23.015625 
C 44.296875 20.421875 41.59375 12.359375 41 9.171875 
L 40.90625 9.171875 
C 40.59375 11.171875 40 13.265625 38.40625 18.34375 
C 37.5 21.328125 36.5 24.40625 35.5 27.203125 
L 20.703125 69 
L 9 69 
L 9 0 
L 16.796875 0 
L 16.796875 60.9375 
L 16.90625 60.9375 
C 16.90625 60.84375 17.796875 56.453125 23.90625 39.046875 
L 37.09375 1.5 
L 44.5 1.5 
L 56.40625 34.859375 
C 57.203125 37.15625 59.703125 44.421875 60.796875 47.90625 
C 61.796875 50.890625 64.296875 58.25 64.90625 61.140625 
L 65 61.140625 
L 65 0 
L 72.90625 0 
L 72.90625 69 
L 61.296875 69 
z
" id="CMSS17-77"/>
      <path d="M 43.703125 65.140625 
C 39.296875 67.71875 34.5 70 26.40625 70 
C 13.5 70 5.203125 60.609375 5.203125 51.03125 
C 5.203125 47.265625 6.296875 43.015625 10.203125 38.671875 
C 14.09375 34.3125 18.5 33.140625 24.09375 31.765625 
C 26.40625 31.15625 30.296875 30.0625 31 29.78125 
C 36.59375 27.609375 39.296875 22.5625 39.296875 17.8125 
C 39.296875 11.59375 34.40625 4.96875 25.703125 4.96875 
C 22.703125 4.96875 13.90625 4.96875 5.59375 12.796875 
L 4.203125 4.96875 
C 12.40625 -1 21.296875 -2 25.796875 -2 
C 38.09375 -2 46.90625 7.625 46.90625 18.53125 
C 46.90625 22.5 45.703125 27.546875 41.5 32.203125 
C 37.40625 36.671875 33.796875 37.65625 25.59375 39.828125 
C 20.90625 41.03125 17.90625 41.828125 15.40625 44.890625 
C 13.703125 47.078125 12.796875 49.15625 12.796875 51.828125 
C 12.796875 57.390625 17.59375 63.4375 26.40625 63.4375 
C 30.796875 63.4375 36.5 62.53125 42.296875 57.1875 
z
" id="CMSS17-83"/>
     </defs>
     <g transform="translate(21.970072 184.629045)rotate(-90)scale(0.1 -0.1)">
      <use transform="scale(0.996264)" xlink:href="#CMSS17-77"/>
      <use transform="translate(81.67603 0)scale(0.996264)" xlink:href="#CMSS17-83"/>
      <use transform="translate(133.724546 0)scale(0.996264)" xlink:href="#CMSS17-69"/>
     </g>
    </g>
   </g>
   <g id="line2d_13">
    <path clip-path="url(#pd0f20dc2c7)" d="M 73.832727 236.842956 
L 74.918528 260.759891 
L 76.00433 267.653506 
L 77.090131 273.579138 
L 78.175932 276.559582 
L 79.261733 263.390891 
L 80.347534 256.758807 
L 81.433335 268.130106 
L 82.519137 270.312391 
L 83.604938 280.760046 
L 84.690739 280.650309 
L 85.77654 269.910273 
L 86.862341 279.960704 
L 87.948142 280.794982 
L 89.033943 275.051317 
L 90.119745 277.562504 
L 91.205546 274.209215 
L 92.291347 277.335575 
L 93.377148 281.128286 
L 94.462949 273.455628 
L 95.54875 284.757297 
L 96.634552 277.296664 
L 97.720353 287.765925 
L 98.806154 283.779597 
L 99.891955 286.571451 
L 100.977756 287.013272 
L 102.063557 286.243104 
L 103.149358 288.547884 
L 104.23516 285.527517 
L 105.320961 284.765594 
L 106.406762 282.472059 
L 107.492563 284.228996 
L 108.578364 286.926361 
L 109.664165 291.792666 
L 110.749967 286.856199 
L 111.835768 287.384829 
L 112.921569 277.571777 
L 114.00737 283.114233 
L 115.093171 277.400113 
L 116.178972 283.273689 
L 117.264773 282.734895 
L 118.350575 292.117384 
L 119.436376 287.316567 
L 120.522177 284.092902 
L 121.607978 291.230678 
L 122.693779 287.84754 
L 123.77958 286.218279 
L 124.865382 290.608865 
L 125.951183 284.056953 
L 127.036984 289.397813 
L 128.122785 293.480029 
L 129.208586 287.885744 
L 130.294387 285.098398 
L 131.380189 284.913834 
L 133.551791 291.669527 
L 134.637592 287.332352 
L 135.723393 293.393463 
L 136.809194 287.121825 
L 137.894995 287.42278 
L 138.980797 293.273727 
L 140.066598 291.828125 
L 141.152399 291.472278 
L 142.2382 290.068151 
L 143.324001 289.742612 
L 144.409802 289.948566 
L 145.495604 293.457952 
L 146.581405 286.997566 
L 147.667206 285.352618 
L 148.753007 289.850942 
L 149.838808 291.736073 
L 150.924609 293.011588 
L 152.01041 293.70396 
L 153.096212 292.804714 
L 154.182013 291.705913 
L 155.267814 292.865991 
L 156.353615 295.488 
L 157.439416 293.377294 
L 158.525217 295.019237 
L 159.611019 286.862708 
L 160.69682 289.001763 
L 161.782621 290.581732 
L 162.868422 290.285127 
L 163.954223 293.938598 
L 165.040024 293.707303 
L 166.125825 294.078476 
L 167.211627 293.87102 
L 168.297428 292.941886 
L 169.383229 290.031315 
L 170.46903 293.28133 
L 171.554831 292.754301 
L 172.640632 293.660625 
L 173.726434 291.323288 
L 174.812235 282.388044 
L 175.898036 294.711465 
L 176.983837 293.322003 
L 178.069638 289.376952 
L 179.155439 294.495245 
L 180.24124 288.054309 
L 181.327042 269.480588 
L 182.412843 274.599696 
L 183.498644 274.675138 
L 184.584445 265.665452 
L 185.670246 267.037134 
L 186.756047 247.766569 
L 187.841849 257.39414 
L 188.92765 258.523094 
L 190.013451 254.599003 
L 191.099252 268.582854 
L 192.185053 267.150398 
L 193.270854 248.60801 
L 194.356656 249.144694 
L 195.442457 256.297677 
L 196.528258 266.114669 
L 197.614059 265.927686 
L 198.69986 254.629396 
L 199.785661 265.21703 
L 200.871462 253.190399 
L 201.957264 246.079664 
L 203.043065 261.351773 
L 204.128866 259.917904 
L 205.214667 251.071869 
L 206.300468 251.74154 
L 207.386269 253.793353 
L 208.472071 260.356642 
L 209.557872 245.058918 
L 210.643673 246.94374 
L 211.729474 256.492135 
L 212.815275 242.469199 
L 213.901076 240.763497 
L 214.986877 257.158841 
L 216.072679 263.305555 
L 217.15848 258.258802 
L 218.244281 257.933532 
L 219.330082 262.895357 
L 220.415883 243.080976 
L 221.501684 263.44515 
L 222.587486 268.322158 
L 223.673287 252.19576 
L 224.759088 260.642353 
L 225.844889 259.626973 
L 226.93069 264.896073 
L 228.016491 251.678853 
L 229.102292 267.079808 
L 230.188094 252.722142 
L 231.273895 256.210158 
L 232.359696 264.609533 
L 233.445497 259.236833 
L 234.531298 261.686767 
L 235.617099 257.736154 
L 236.702901 260.688486 
L 237.788702 246.195768 
L 238.874503 253.324228 
L 239.960304 257.941553 
L 241.046105 271.639475 
L 242.131906 270.663893 
L 243.217708 257.355291 
L 244.303509 253.421773 
L 245.38931 264.153833 
L 246.475111 242.5086 
L 247.560912 262.262588 
L 248.646713 252.916022 
L 249.732514 255.345213 
L 250.818316 266.176489 
L 251.904117 254.378345 
L 252.989918 265.129583 
L 254.075719 268.320534 
L 255.16152 262.162617 
L 256.247321 259.952052 
L 257.333123 248.557295 
L 258.418924 260.24372 
L 259.504725 260.006172 
L 260.590526 248.037613 
L 261.676327 260.241741 
L 262.762128 252.848949 
L 263.847929 249.728497 
L 264.933731 264.721351 
L 266.019532 253.435132 
L 267.105333 252.36448 
L 268.191134 258.463983 
L 269.276935 261.792293 
L 270.362736 266.041969 
L 271.448538 261.226386 
L 272.534339 255.212692 
L 273.62014 246.145342 
L 274.705941 249.374858 
L 275.791742 250.261722 
L 276.877543 244.758888 
L 277.963344 237.378943 
L 279.049146 92.335499 
L 280.134947 133.220174 
L 281.220748 231.865103 
L 282.306549 256.73005 
L 283.39235 251.353458 
L 284.478151 264.006553 
L 285.563953 258.788273 
L 286.649754 235.4096 
L 287.735555 259.808795 
L 288.821356 245.049852 
L 289.907157 253.235802 
L 292.07876 260.614826 
L 293.164561 256.366123 
L 294.250362 254.05725 
L 295.336163 259.480429 
L 296.421964 257.531368 
L 297.507765 247.853615 
L 298.593566 250.532516 
L 299.679368 248.342259 
L 300.765169 241.980259 
L 301.85097 251.414226 
L 302.936771 247.129291 
L 304.022572 263.616703 
L 305.108373 260.594058 
L 306.194175 259.091223 
L 307.279976 258.478697 
L 308.365777 257.211009 
L 309.451578 242.565251 
L 310.537379 247.345037 
L 311.62318 247.464369 
L 312.708981 247.802873 
L 313.794783 238.672665 
L 314.880584 259.167262 
L 315.966385 239.618758 
L 317.052186 257.633094 
L 318.137987 263.211297 
L 319.223788 251.439925 
L 320.30959 255.89736 
L 321.395391 252.786335 
L 322.481192 255.860707 
L 323.566993 256.679033 
L 324.652794 241.719931 
L 325.738595 243.704619 
L 326.824396 260.043995 
L 327.910198 255.272362 
L 328.995999 247.701627 
L 330.0818 244.027996 
L 331.167601 229.830942 
L 332.253402 265.087652 
L 333.339203 250.893491 
L 334.425005 245.355484 
L 335.510806 260.44255 
L 336.596607 253.601031 
L 337.682408 250.985139 
L 338.768209 246.222809 
L 339.85401 239.642104 
L 340.939811 251.096352 
L 342.025613 247.027321 
L 343.111414 254.595012 
L 344.197215 240.858261 
L 345.283016 252.822139 
L 346.368817 254.671893 
L 347.454618 239.983073 
L 348.54042 227.48662 
L 349.626221 238.923328 
L 350.712022 248.355046 
L 351.797823 240.002139 
L 352.883624 248.572186 
L 353.969425 246.625486 
L 355.055227 256.876686 
L 356.141028 244.364041 
L 357.226829 235.133474 
L 358.31263 249.402707 
L 359.398431 229.679007 
L 360.484232 236.77449 
L 361.570033 242.136375 
L 362.655835 252.376084 
L 363.741636 237.933003 
L 364.827437 249.088345 
L 365.913238 232.549343 
L 366.999039 223.297784 
L 368.08484 235.56807 
L 369.170642 237.842801 
L 370.256443 244.235517 
L 371.342244 237.885673 
L 372.428045 228.892029 
L 373.513846 246.621324 
L 374.599647 246.094673 
L 375.685448 253.057221 
L 376.77125 238.057811 
L 377.857051 249.033606 
L 378.942852 238.228714 
L 380.028653 230.619348 
L 381.114454 233.243885 
L 382.200255 232.704388 
L 383.286057 244.461947 
L 384.371858 247.44174 
L 385.457659 254.377753 
L 386.54346 258.227981 
L 387.629261 247.436369 
L 388.715062 253.522559 
L 389.800863 230.393805 
L 390.886665 244.917614 
L 391.972466 239.638021 
L 393.058267 237.983974 
L 394.144068 254.353047 
L 395.229869 247.550902 
L 396.31567 223.741847 
L 397.401472 231.343889 
L 398.487273 240.926635 
L 398.487273 240.926635 
" style="fill:none;stroke:#0000ff;stroke-linecap:square;stroke-width:1.5;"/>
   </g>
   <g id="line2d_14">
    <path clip-path="url(#pd0f20dc2c7)" d="M 73.832727 235.994 
L 74.918528 257.521611 
L 76.00433 263.018916 
L 77.090131 267.705135 
L 78.175932 265.628668 
L 79.261733 260.462681 
L 80.347534 256.784086 
L 81.433335 271.956129 
L 82.519137 273.495909 
L 83.604938 275.25729 
L 84.690739 276.641756 
L 85.77654 267.478863 
L 86.862341 278.017724 
L 87.948142 275.454763 
L 89.033943 271.402027 
L 90.119745 269.967704 
L 91.205546 271.531053 
L 92.291347 281.642044 
L 93.377148 280.546725 
L 94.462949 273.463017 
L 95.54875 283.70318 
L 96.634552 275.083094 
L 97.720353 283.589991 
L 98.806154 284.669686 
L 99.891955 283.548644 
L 100.977756 282.992027 
L 102.063557 282.20849 
L 103.149358 289.048925 
L 104.23516 282.280283 
L 105.320961 284.943185 
L 106.406762 284.865959 
L 107.492563 287.027943 
L 108.578364 282.251313 
L 109.664165 284.123785 
L 110.749967 285.000873 
L 111.835768 286.843839 
L 112.921569 275.727243 
L 114.00737 282.590034 
L 115.093171 278.882777 
L 116.178972 274.661696 
L 117.264773 281.275297 
L 118.350575 288.645426 
L 119.436376 288.922015 
L 120.522177 283.477864 
L 121.607978 290.767753 
L 122.693779 284.764545 
L 123.77958 292.661927 
L 124.865382 285.72668 
L 125.951183 283.05573 
L 127.036984 289.233913 
L 128.122785 288.787808 
L 129.208586 288.868121 
L 130.294387 283.011353 
L 131.380189 286.565471 
L 132.46599 288.39568 
L 133.551791 289.494796 
L 134.637592 292.500055 
L 135.723393 285.765442 
L 136.809194 286.213029 
L 137.894995 287.515959 
L 138.980797 291.999182 
L 140.066598 291.101875 
L 141.152399 289.483494 
L 142.2382 286.37574 
L 143.324001 287.077833 
L 144.409802 289.106691 
L 145.495604 291.55195 
L 146.581405 282.874348 
L 147.667206 285.041986 
L 148.753007 290.739262 
L 149.838808 288.834115 
L 150.924609 290.102881 
L 152.01041 289.020073 
L 153.096212 289.901013 
L 154.182013 292.501751 
L 155.267814 291.929444 
L 156.353615 289.050525 
L 157.439416 291.565747 
L 158.525217 292.086826 
L 159.611019 287.223147 
L 160.69682 290.688731 
L 161.782621 287.460809 
L 162.868422 290.266808 
L 163.954223 292.322424 
L 165.040024 291.028544 
L 166.125825 292.349911 
L 167.211627 286.11727 
L 168.297428 289.372528 
L 169.383229 290.60306 
L 171.554831 290.553617 
L 172.640632 291.73321 
L 173.726434 289.152067 
L 174.812235 278.945616 
L 175.898036 291.281258 
L 176.983837 290.771148 
L 178.069638 289.609115 
L 179.155439 291.23978 
L 180.24124 284.700987 
L 181.327042 259.492683 
L 182.412843 266.880623 
L 183.498644 272.239957 
L 184.584445 255.61721 
L 185.670246 271.396846 
L 186.756047 254.962535 
L 187.841849 254.204945 
L 188.92765 264.320009 
L 190.013451 255.252244 
L 191.099252 263.366421 
L 192.185053 254.998031 
L 193.270854 256.443576 
L 194.356656 251.987075 
L 195.442457 254.765513 
L 196.528258 258.538116 
L 197.614059 264.500503 
L 198.69986 254.472622 
L 199.785661 265.099624 
L 200.871462 250.834887 
L 201.957264 248.26069 
L 203.043065 257.451495 
L 204.128866 256.509104 
L 205.214667 234.255466 
L 206.300468 265.455267 
L 207.386269 242.850253 
L 208.472071 257.135443 
L 209.557872 245.015803 
L 210.643673 241.91084 
L 211.729474 253.702757 
L 212.815275 252.761233 
L 213.901076 234.980743 
L 214.986877 257.739521 
L 216.072679 259.293722 
L 217.15848 247.882542 
L 218.244281 253.661167 
L 219.330082 265.090242 
L 220.415883 240.174507 
L 221.501684 268.497945 
L 222.587486 263.178287 
L 223.673287 254.508742 
L 224.759088 257.467984 
L 225.844889 255.104267 
L 226.93069 264.645535 
L 228.016491 263.279671 
L 229.102292 258.968498 
L 230.188094 246.370286 
L 231.273895 241.730233 
L 232.359696 248.348071 
L 234.531298 257.52645 
L 235.617099 257.748633 
L 236.702901 259.962893 
L 237.788702 235.588911 
L 238.874503 256.568688 
L 239.960304 259.421325 
L 241.046105 267.873578 
L 242.131906 260.093678 
L 243.217708 259.604048 
L 244.303509 249.362354 
L 245.38931 264.618494 
L 246.475111 242.412948 
L 247.560912 263.037049 
L 248.646713 256.905292 
L 249.732514 263.371378 
L 250.818316 262.342526 
L 251.904117 246.226346 
L 252.989918 270.315471 
L 254.075719 261.658865 
L 255.16152 257.724656 
L 256.247321 259.272519 
L 257.333123 252.719795 
L 259.504725 248.076383 
L 260.590526 256.293837 
L 261.676327 258.572658 
L 262.762128 253.433324 
L 263.847929 245.082363 
L 264.933731 265.793009 
L 266.019532 252.977276 
L 267.105333 242.344048 
L 268.191134 255.353648 
L 269.276935 259.823791 
L 270.362736 260.54824 
L 271.448538 264.080325 
L 272.534339 252.157977 
L 273.62014 249.022784 
L 274.705941 250.823303 
L 275.791742 249.445573 
L 276.877543 240.907036 
L 277.963344 238.909318 
L 279.049146 53.568 
L 280.134947 129.604081 
L 281.220748 226.419782 
L 282.306549 249.092822 
L 283.39235 255.60558 
L 284.478151 256.985585 
L 285.563953 256.231617 
L 286.649754 240.480659 
L 287.735555 256.009572 
L 288.821356 246.050467 
L 289.907157 251.415448 
L 290.992958 244.364514 
L 292.07876 255.480074 
L 293.164561 236.780986 
L 294.250362 256.204583 
L 295.336163 261.474498 
L 296.421964 243.703824 
L 297.507765 254.494114 
L 298.593566 249.694158 
L 299.679368 248.967572 
L 300.765169 231.205478 
L 301.85097 253.557554 
L 302.936771 248.672703 
L 304.022572 255.066503 
L 305.108373 251.108712 
L 306.194175 245.933008 
L 307.279976 257.626427 
L 308.365777 252.675917 
L 309.451578 249.043132 
L 310.537379 244.875893 
L 311.62318 242.206636 
L 312.708981 237.339043 
L 313.794783 243.951002 
L 314.880584 249.397408 
L 315.966385 228.751415 
L 317.052186 248.169292 
L 318.137987 262.431347 
L 319.223788 253.188611 
L 320.30959 249.534735 
L 321.395391 250.282214 
L 322.481192 248.771687 
L 323.566993 252.235385 
L 324.652794 234.758495 
L 325.738595 246.200456 
L 326.824396 254.442669 
L 327.910198 244.183704 
L 328.995999 246.316961 
L 330.0818 247.67792 
L 331.167601 234.018576 
L 332.253402 263.790307 
L 334.425005 244.719441 
L 335.510806 263.653901 
L 336.596607 253.356061 
L 337.682408 244.413244 
L 338.768209 242.229561 
L 339.85401 230.321007 
L 340.939811 241.856114 
L 342.025613 232.970376 
L 343.111414 247.288194 
L 344.197215 241.075237 
L 346.368817 247.047715 
L 347.454618 250.763423 
L 348.54042 250.339024 
L 349.626221 240.852107 
L 350.712022 244.773739 
L 351.797823 236.408091 
L 352.883624 244.238048 
L 353.969425 241.70126 
L 355.055227 256.50389 
L 356.141028 229.887522 
L 357.226829 241.536807 
L 358.31263 243.972928 
L 359.398431 234.347915 
L 360.484232 245.055243 
L 361.570033 246.270881 
L 362.655835 244.898042 
L 363.741636 238.399419 
L 364.827437 235.54331 
L 365.913238 238.679115 
L 366.999039 224.635298 
L 368.08484 247.034803 
L 369.170642 226.323756 
L 370.256443 246.587479 
L 371.342244 251.468511 
L 372.428045 229.144421 
L 373.513846 261.146579 
L 374.599647 225.964864 
L 375.685448 236.941093 
L 376.77125 236.490817 
L 377.857051 253.880319 
L 378.942852 245.31897 
L 380.028653 221.402173 
L 381.114454 228.225356 
L 382.200255 234.244598 
L 383.286057 242.778322 
L 384.371858 246.13531 
L 385.457659 251.055946 
L 386.54346 243.858513 
L 387.629261 257.690074 
L 388.715062 252.871381 
L 389.800863 237.200822 
L 390.886665 244.026345 
L 391.972466 234.182956 
L 393.058267 240.444361 
L 394.144068 247.720174 
L 395.229869 251.483743 
L 396.31567 234.489726 
L 397.401472 229.835551 
L 398.487273 243.928183 
L 398.487273 243.928183 
" style="fill:none;stroke:#ff0000;stroke-linecap:square;stroke-width:1.5;"/>
   </g>
   <g id="patch_3">
    <path d="M 57.6 307.584 
L 57.6 41.472 
" style="fill:none;stroke:#000000;stroke-linecap:square;stroke-linejoin:miter;stroke-width:0.8;"/>
   </g>
   <g id="patch_4">
    <path d="M 414.72 307.584 
L 414.72 41.472 
" style="fill:none;stroke:#000000;stroke-linecap:square;stroke-linejoin:miter;stroke-width:0.8;"/>
   </g>
   <g id="patch_5">
    <path d="M 57.6 307.584 
L 414.72 307.584 
" style="fill:none;stroke:#000000;stroke-linecap:square;stroke-linejoin:miter;stroke-width:0.8;"/>
   </g>
   <g id="patch_6">
    <path d="M 57.6 41.472 
L 414.72 41.472 
" style="fill:none;stroke:#000000;stroke-linecap:square;stroke-linejoin:miter;stroke-width:0.8;"/>
   </g>
   <g id="text_15">
    <!-- $\textrm{IntroVAE}_{50}$ -->
    <defs>
     <path d="M 19.703125 61.015625 
C 19.703125 65.5 20.90625 65.5 28.09375 65.5 
L 28.09375 68 
C 24.90625 68 19.796875 68 16.40625 68 
C 13 68 7.90625 68 4.703125 68 
L 4.703125 65.5 
C 11.90625 65.5 13.09375 65.5 13.09375 61.015625 
L 13.09375 6.984375 
C 13.09375 2.5 11.90625 2.5 4.703125 2.5 
L 4.703125 0 
C 7.90625 0 13 0 16.40625 0 
C 19.796875 0 24.90625 0 28.09375 0 
L 28.09375 2.5 
C 20.90625 2.5 19.703125 2.5 19.703125 6.984375 
z
" id="CMR17-73"/>
     <path d="M 41.5 30.203125 
C 41.5 35.296875 40.5 43.59375 28.703125 43.59375 
C 20.796875 43.59375 16.703125 37.5 15.203125 33.5 
L 15.09375 33.5 
L 15.09375 43.59375 
L 3.296875 42.5 
L 3.296875 39.90625 
C 9.203125 39.90625 10.09375 39.296875 10.09375 34.5 
L 10.09375 6.6875 
C 10.09375 2.875 9.703125 2.390625 3.296875 2.390625 
L 3.296875 -0.203125 
C 5.703125 0 10.09375 0 12.703125 0 
C 15.296875 0 19.796875 0 22.203125 -0.203125 
L 22.203125 2.390625 
C 15.796875 2.390625 15.40625 2.78125 15.40625 6.6875 
L 15.40625 25.90625 
C 15.40625 35.109375 21 42 28 42 
C 35.40625 42 36.203125 35.40625 36.203125 30.59375 
L 36.203125 6.6875 
C 36.203125 2.875 35.796875 2.390625 29.40625 2.390625 
L 29.40625 -0.203125 
C 31.796875 0 36.203125 0 38.796875 0 
C 41.40625 0 45.90625 0 48.296875 -0.203125 
L 48.296875 2.390625 
C 41.90625 2.390625 41.5 2.78125 41.5 6.6875 
z
" id="CMR17-110"/>
     <path d="M 15.09375 40 
L 29.09375 40 
L 29.09375 42.578125 
L 15.09375 42.578125 
L 15.09375 61 
L 13.296875 61 
C 13.09375 50.703125 9.59375 41.6875 1.09375 41.6875 
L 1.09375 40 
L 9.796875 40 
L 9.796875 12.046875 
C 9.796875 10.15625 9.796875 -1 21.40625 -1 
C 27.296875 -1 30.703125 4.78125 30.703125 12.140625 
L 30.703125 17.8125 
L 28.90625 17.8125 
L 28.90625 12.234375 
C 28.90625 5.375 26.203125 0.796875 22 0.796875 
C 19.09375 0.796875 15.09375 2.78125 15.09375 11.84375 
z
" id="CMR17-116"/>
     <path d="M 15 23.390625 
C 15 33 19.09375 42 26.59375 42 
C 27.296875 42 28 41.90625 28.703125 41.59375 
C 28.703125 41.59375 26.5 40.890625 26.5 38.3125 
C 26.5 35.90625 28.40625 34.90625 29.90625 34.90625 
C 31.09375 34.90625 33.296875 35.609375 33.296875 38.40625 
C 33.296875 41.609375 30.09375 43.59375 26.703125 43.59375 
C 19.09375 43.59375 15.796875 36.203125 14.796875 32.703125 
L 14.703125 32.703125 
L 14.703125 43.59375 
L 3.09375 42.5 
L 3.09375 39.90625 
C 9 39.90625 9.90625 39.296875 9.90625 34.5 
L 9.90625 6.6875 
C 9.90625 2.875 9.5 2.390625 3.09375 2.390625 
L 3.09375 -0.203125 
C 5.5 0 10.09375 0 12.703125 0 
C 15.59375 0 20.703125 0 23.40625 -0.203125 
L 23.40625 2.390625 
C 16.203125 2.390625 15 2.390625 15 6.875 
z
" id="CMR17-114"/>
     <path d="M 43.09375 21.1875 
C 43.09375 34 33.796875 44 22.90625 44 
C 12 44 2.703125 34 2.703125 21.1875 
C 2.703125 8.609375 12 -1 22.90625 -1 
C 33.796875 -1 43.09375 8.609375 43.09375 21.1875 
z
M 22.90625 0.796875 
C 18.203125 0.796875 14.203125 3.59375 11.90625 7.5 
C 9.40625 11.984375 9.09375 17.59375 9.09375 22 
C 9.09375 26.203125 9.296875 31.40625 11.90625 35.90625 
C 13.90625 39.203125 17.796875 42.40625 22.90625 42.40625 
C 27.40625 42.40625 31.203125 39.90625 33.59375 36.40625 
C 36.703125 31.703125 36.703125 25.109375 36.703125 22 
C 36.703125 18.09375 36.5 12.109375 33.796875 7.296875 
C 31 2.703125 26.703125 0.796875 22.90625 0.796875 
z
" id="CMR17-111"/>
     <path d="M 59 58.515625 
C 59.90625 60.71875 61.5 65 68.203125 65 
L 68.203125 67.6875 
C 65.90625 67.484375 63.296875 67.484375 60.796875 67.484375 
C 58.40625 67.484375 54.296875 67.484375 52 67.6875 
L 52 65 
C 57 65 57.203125 61.5 57.203125 60.90625 
C 57.203125 59.796875 56.90625 59.109375 56.59375 58.3125 
L 36.90625 6.96875 
L 16.296875 60.71875 
C 16 61.421875 15.796875 61.921875 15.796875 62.40625 
C 15.796875 65 19.796875 65 21.90625 65 
L 21.90625 67.484375 
C 18.703125 67.484375 14 67.484375 10.703125 67.484375 
C 8.09375 67.484375 3.40625 67.484375 1 67.6875 
L 1 65 
C 6.796875 65 7.90625 64.609375 9.09375 61.421875 
L 32.90625 -0.40625 
C 33.40625 -1.796875 33.5 -2 34.59375 -2 
C 35.703125 -2 35.796875 -1.796875 36.296875 -0.40625 
z
" id="CMR17-86"/>
     <path d="M 36.296875 68.40625 
C 35.796875 69.703125 35.59375 70 34.59375 70 
C 33.59375 70 33.40625 69.703125 32.90625 68.40625 
L 11.703125 8.84375 
C 9.796875 3.484375 5.796875 2.390625 2.296875 2.390625 
L 2.296875 -0.203125 
C 4.09375 0 8.09375 0 10 0 
C 12.5 0 16.5 0 18.90625 -0.203125 
L 18.90625 2.390625 
C 14.203125 2.390625 13.5 5.640625 13.5 6.859375 
C 13.5 7.765625 13.703125 8.28125 13.90625 8.890625 
L 19.203125 24 
L 45.40625 24 
L 51.40625 6.90625 
C 51.90625 5.703125 51.90625 5.5 51.90625 5.109375 
C 51.90625 2.390625 47.59375 2.390625 45.703125 2.390625 
L 45.703125 0 
C 48.59375 0 53.796875 0 56.90625 0 
C 59.5 0 64.5 0 66.90625 -0.203125 
L 66.90625 2.390625 
C 61.59375 2.390625 59.796875 2.390625 58.5 6.046875 
z
M 32.296875 60.828125 
L 44.5 26.59375 
L 20.09375 26.59375 
z
" id="CMR17-65"/>
     <path d="M 60.703125 25.234375 
L 58.90625 25.234375 
C 56.703125 10.5625 55.40625 2.59375 37.796875 2.59375 
L 23.90625 2.59375 
C 19.90625 2.59375 19.703125 3.078125 19.703125 6.46875 
L 19.703125 34 
L 29.09375 34 
C 38.5 34 39.40625 30.625 39.40625 22.34375 
L 41.203125 22.34375 
L 41.203125 48.140625 
L 39.40625 48.140625 
C 39.40625 39.953125 38.5 36.59375 29.09375 36.59375 
L 19.703125 36.59375 
L 19.703125 61.140625 
C 19.703125 64.5 19.90625 65 23.90625 65 
L 37.59375 65 
C 53.09375 65 54.90625 58.890625 56.296875 45.765625 
L 58.09375 45.765625 
L 55.703125 67.578125 
L 5.09375 67.578125 
L 5.09375 65 
C 12 65 13.09375 65 13.09375 60.53125 
L 13.09375 7.046875 
C 13.09375 2.59375 12 2.59375 5.09375 2.59375 
L 5.09375 0 
L 57.09375 0 
z
" id="CMR17-69"/>
    </defs>
    <g transform="translate(207.139159 35.472)scale(0.12 -0.12)">
     <use transform="translate(0 14.943915)scale(0.996264)" xlink:href="#CMR17-73"/>
     <use transform="translate(32.638409 14.943915)scale(0.996264)" xlink:href="#CMR17-110"/>
     <use transform="translate(80.931325 14.943915)scale(0.996264)" xlink:href="#CMR17-116"/>
     <use transform="translate(116.212093 14.943915)scale(0.996264)" xlink:href="#CMR17-114"/>
     <use transform="translate(151.492861 14.943915)scale(0.996264)" xlink:href="#CMR17-111"/>
     <use transform="translate(197.183338 14.943915)scale(0.996264)" xlink:href="#CMR17-86"/>
     <use transform="translate(255.846058 14.943915)scale(0.996264)" xlink:href="#CMR17-65"/>
     <use transform="translate(324.918488 14.943915)scale(0.996264)" xlink:href="#CMR17-69"/>
     <use transform="translate(387.504789 0)scale(0.697382)" xlink:href="#CMR17-53"/>
     <use transform="translate(419.487971 0)scale(0.697382)" xlink:href="#CMR17-48"/>
    </g>
   </g>
   <g id="legend_1">
    <g id="patch_7">
     <path d="M 268.489782 95.131054 
L 406.64 95.131054 
Q 409.52 95.131054 409.52 92.251054 
L 409.52 53.552 
Q 409.52 50.672 406.64 50.672 
L 268.489782 50.672 
Q 265.609782 50.672 265.609782 53.552 
L 265.609782 92.251054 
Q 265.609782 95.131054 268.489782 95.131054 
z
" style="fill:#4c4c4c;opacity:0.5;stroke:#4c4c4c;stroke-linejoin:miter;"/>
    </g>
    <g id="patch_8">
     <path d="M 266.489782 93.131054 
L 404.64 93.131054 
Q 407.52 93.131054 407.52 90.251054 
L 407.52 51.552 
Q 407.52 48.672 404.64 48.672 
L 266.489782 48.672 
Q 263.609782 48.672 263.609782 51.552 
L 263.609782 90.251054 
Q 263.609782 93.131054 266.489782 93.131054 
z
" style="fill:#ffffff;stroke:#cccccc;stroke-linejoin:miter;"/>
    </g>
    <g id="line2d_15">
     <path d="M 269.369782 59.472 
L 298.169782 59.472 
" style="fill:none;stroke:#0000ff;stroke-linecap:square;stroke-width:1.5;"/>
    </g>
    <g id="line2d_16"/>
    <g id="text_16">
     <!-- Train Data -->
     <defs>
      <path d="M 36.203125 62 
L 44.5 62 
C 45.703125 62 46.90625 62 48.09375 62 
L 60.59375 62 
L 60.59375 68.375 
L 3.40625 68.375 
L 3.40625 62 
L 15.90625 62 
C 17.09375 62 18.296875 62 19.5 62 
L 27.796875 62 
L 27.796875 -0.5 
L 36.203125 -0.5 
z
" id="CMSS17-84"/>
      <path d="M 14.90625 21.296875 
C 14.90625 30.703125 21.796875 37 30.59375 37 
L 30.59375 43.578125 
C 24.203125 43.578125 18.203125 40.390625 14.59375 35.203125 
L 14.59375 43.09375 
L 7.5 43.09375 
L 7.5 0 
L 14.90625 0 
z
" id="CMSS17-114"/>
      <path d="M 37.59375 27.984375 
C 37.59375 37.375 30.90625 43.875 21.90625 43.875 
C 17.5 43.875 12.703125 43.078125 7.203125 39.890625 
L 7.796875 33.359375 
C 10.296875 35.125 14.59375 38 21.796875 38 
C 26.90625 38 30 34.0625 30 27.84375 
L 30 24 
C 14 24 4 19.34375 4 11.34375 
C 4 7.203125 6.5 -1 14.796875 -1 
C 16.296875 -1 24.40625 -1 30.203125 3.390625 
L 30.203125 -0.296875 
L 37.59375 -0.296875 
z
M 30 12.75 
C 30 10.953125 30 8.5625 27 6.78125 
C 24.40625 5.078125 21.09375 5.078125 19.703125 5.078125 
C 14.703125 5.078125 11.296875 7.984375 11.296875 11.625 
C 11.296875 18.921875 26.90625 18.921875 30 18.921875 
z
" id="CMSS17-97"/>
      <path d="M 15.296875 65.359375 
L 6.90625 65.359375 
L 6.90625 57 
L 15.296875 57 
z
M 14.796875 42.796875 
L 7.40625 42.796875 
L 7.40625 0 
L 14.796875 0 
z
" id="CMSS17-105"/>
      <path d="M 40.90625 29.328125 
C 40.90625 35.671875 39.40625 44 28.09375 44 
C 21.703125 44 17.5 40.71875 14.703125 37.328125 
L 14.703125 43.09375 
L 7.40625 43.09375 
L 7.40625 0 
L 15 0 
L 15 24.359375 
C 15 30.6875 17.40625 37.9375 24.203125 37.9375 
C 33 37.9375 33.296875 32 33.296875 28.578125 
L 33.296875 0 
L 40.90625 0 
z
" id="CMSS17-110"/>
      <path d="M 8.90625 69 
L 8.90625 0 
L 33.5 0 
C 49.90625 0 62.5 15.3125 62.5 33.90625 
C 62.5 53.09375 49.90625 69 33.5 69 
z
M 17.09375 5.578125 
L 17.09375 63.421875 
L 31.296875 63.421875 
C 44.703125 63.421875 54.296875 51.203125 54.296875 33.90625 
C 54.296875 17.296875 44.796875 5.578125 31.296875 5.578125 
z
" id="CMSS17-68"/>
      <path d="M 16.703125 37 
L 29.703125 37 
L 29.703125 42.765625 
L 16.703125 42.765625 
L 16.703125 55 
L 9.59375 55 
L 9.59375 42.765625 
L 1.703125 42.765625 
L 1.703125 37 
L 9.40625 37 
L 9.40625 11.703125 
C 9.40625 6 10.703125 -1 17.296875 -1 
C 22.296875 -1 26.90625 0.390625 31.296875 2.6875 
L 29.703125 8.5625 
C 27.296875 6.46875 24.40625 5.265625 21.296875 5.265625 
C 16.90625 5.265625 16.703125 10.875 16.703125 13.375 
z
" id="CMSS17-116"/>
     </defs>
     <g transform="translate(309.689782 64.512)scale(0.144 -0.144)">
      <use transform="scale(0.996264)" xlink:href="#CMSS17-84"/>
      <use transform="translate(56.012199 0)scale(0.996264)" xlink:href="#CMSS17-114"/>
      <use transform="translate(87.921971 0)scale(0.996264)" xlink:href="#CMSS17-97"/>
      <use transform="translate(132.843892 0)scale(0.996264)" xlink:href="#CMSS17-105"/>
      <use transform="translate(155.024615 0)scale(0.996264)" xlink:href="#CMSS17-110"/>
      <use transform="translate(234.458671 0)scale(0.996264)" xlink:href="#CMSS17-68"/>
      <use transform="translate(302.001512 0)scale(0.996264)" xlink:href="#CMSS17-97"/>
      <use transform="translate(346.923433 0)scale(0.996264)" xlink:href="#CMSS17-116"/>
      <use transform="translate(380.755 0)scale(0.996264)" xlink:href="#CMSS17-97"/>
     </g>
    </g>
    <g id="line2d_17">
     <path d="M 269.369782 79.541527 
L 298.169782 79.541527 
" style="fill:none;stroke:#ff0000;stroke-linecap:square;stroke-width:1.5;"/>
    </g>
    <g id="line2d_18"/>
    <g id="text_17">
     <!-- Validation Data -->
     <defs>
      <path d="M 61.09375 69 
L 53.296875 69 
L 36 21.28125 
C 35.5 19.890625 32.40625 10.75 31.796875 7.5625 
L 31.703125 7.5625 
C 30.90625 11.34375 27.703125 20.1875 26 25.0625 
L 14.40625 57.375 
L 10.09375 69 
L 1.296875 69 
L 26.796875 0 
L 35.59375 0 
z
" id="CMSS17-86"/>
      <path d="M 14.796875 69 
L 7.40625 69 
L 7.40625 0 
L 14.796875 0 
z
" id="CMSS17-108"/>
      <path d="M 40.796875 69 
L 33.40625 69 
L 33.40625 38.09375 
C 30.296875 40.671875 25.203125 43.0625 19.59375 43.0625 
C 10.5 43.0625 3.296875 33.296875 3.296875 21.046875 
C 3.296875 8.78125 10.40625 -1 19.296875 -1 
C 26.203125 -1 30.796875 2.6875 33.203125 4.78125 
L 33.203125 -0.203125 
L 40.796875 -0.203125 
z
M 33.203125 13.0625 
C 33.203125 11.671875 33.203125 10.203125 30.09375 7.53125 
C 28.09375 5.859375 25.703125 5.078125 23.40625 5.078125 
C 18 5.078125 10.90625 9 10.90625 20.9375 
C 10.90625 33.34375 18.90625 37 24.40625 37 
C 28.09375 37 31.09375 35.21875 33.203125 32.265625 
z
" id="CMSS17-100"/>
     </defs>
     <g transform="translate(309.689782 84.581527)scale(0.144 -0.144)">
      <use transform="scale(0.996264)" xlink:href="#CMSS17-86"/>
      <use transform="translate(59.615401 0)scale(0.996264)" xlink:href="#CMSS17-97"/>
      <use transform="translate(104.537322 0)scale(0.996264)" xlink:href="#CMSS17-108"/>
      <use transform="translate(126.718045 0)scale(0.996264)" xlink:href="#CMSS17-105"/>
      <use transform="translate(148.898768 0)scale(0.996264)" xlink:href="#CMSS17-100"/>
      <use transform="translate(197.103711 0)scale(0.996264)" xlink:href="#CMSS17-97"/>
      <use transform="translate(242.025631 0)scale(0.996264)" xlink:href="#CMSS17-116"/>
      <use transform="translate(275.857198 0)scale(0.996264)" xlink:href="#CMSS17-105"/>
      <use transform="translate(298.037921 0)scale(0.996264)" xlink:href="#CMSS17-111"/>
      <use transform="translate(344.881545 0)scale(0.996264)" xlink:href="#CMSS17-110"/>
      <use transform="translate(424.315601 0)scale(0.996264)" xlink:href="#CMSS17-68"/>
      <use transform="translate(491.858442 0)scale(0.996264)" xlink:href="#CMSS17-97"/>
      <use transform="translate(536.780363 0)scale(0.996264)" xlink:href="#CMSS17-116"/>
      <use transform="translate(570.61193 0)scale(0.996264)" xlink:href="#CMSS17-97"/>
     </g>
    </g>
   </g>
  </g>
 </g>
 <defs>
  <clipPath id="pd0f20dc2c7">
   <rect height="266.112" width="357.12" x="57.6" y="41.472"/>
  </clipPath>
 </defs>
</svg>
