<?xml version="1.0" encoding="utf-8" standalone="no"?>
<!DOCTYPE svg PUBLIC "-//W3C//DTD SVG 1.1//EN"
  "http://www.w3.org/Graphics/SVG/1.1/DTD/svg11.dtd">
<!-- Created with matplotlib (https://matplotlib.org/) -->
<svg height="345.6pt" version="1.1" viewBox="0 0 460.8 345.6" width="460.8pt" xmlns="http://www.w3.org/2000/svg" xmlns:xlink="http://www.w3.org/1999/xlink">
 <defs>
  <style type="text/css">
*{stroke-linecap:butt;stroke-linejoin:round;}
  </style>
 </defs>
 <g id="figure_1">
  <g id="patch_1">
   <path d="M 0 345.6 
L 460.8 345.6 
L 460.8 0 
L 0 0 
z
" style="fill:#ffffff;"/>
  </g>
  <g id="axes_1">
   <g id="patch_2">
    <path d="M 57.6 307.584 
L 414.72 307.584 
L 414.72 41.472 
L 57.6 41.472 
z
" style="fill:#ffffff;"/>
   </g>
   <g id="matplotlib.axis_1">
    <g id="xtick_1">
     <g id="line2d_1">
      <defs>
       <path d="M 0 0 
L 0 3.5 
" id="mb71530f15c" style="stroke:#000000;stroke-width:0.8;"/>
      </defs>
      <g>
       <use style="stroke:#000000;stroke-width:0.8;" x="72.746926" xlink:href="#mb71530f15c" y="307.584"/>
      </g>
     </g>
     <g id="text_1">
      <!-- $0$ -->
      <defs>
       <path d="M 42 31.640625 
C 42 37.75 41.90625 48.125 37.703125 56.109375 
C 34 63.109375 28.09375 65.59375 22.90625 65.59375 
C 18.09375 65.59375 12 63.40625 8.203125 56.203125 
C 4.203125 48.71875 3.796875 39.4375 3.796875 31.640625 
C 3.796875 25.953125 3.90625 17.28125 7 9.671875 
C 11.296875 -0.609375 19 -2 22.90625 -2 
C 27.5 -2 34.5 -0.109375 38.59375 9.375 
C 41.59375 16.28125 42 24.359375 42 31.640625 
z
M 22.90625 -0.40625 
C 16.5 -0.40625 12.703125 5.078125 11.296875 12.6875 
C 10.203125 18.5625 10.203125 27.15625 10.203125 32.75 
C 10.203125 40.4375 10.203125 46.828125 11.5 52.921875 
C 13.40625 61.390625 19 64 22.90625 64 
C 27 64 32.296875 61.296875 34.203125 53.125 
C 35.5 47.4375 35.59375 40.734375 35.59375 32.75 
C 35.59375 26.25 35.59375 18.265625 34.40625 12.375 
C 32.296875 1.484375 26.40625 -0.40625 22.90625 -0.40625 
z
" id="CMR17-48"/>
      </defs>
      <g transform="translate(70.256258 321.502498)scale(0.1 -0.1)">
       <use transform="scale(0.996264)" xlink:href="#CMR17-48"/>
      </g>
     </g>
    </g>
    <g id="xtick_2">
     <g id="line2d_2">
      <g>
       <use style="stroke:#000000;stroke-width:0.8;" x="127.036984" xlink:href="#mb71530f15c" y="307.584"/>
      </g>
     </g>
     <g id="text_2">
      <!-- $50$ -->
      <defs>
       <path d="M 11.40625 57.6875 
C 12.40625 57.28125 16.5 56 20.703125 56 
C 30 56 35.09375 61.109375 38 64.0625 
C 38 64.953125 38 65.5 37.40625 65.5 
C 37.296875 65.5 37.09375 65.5 36.296875 65.046875 
C 32.796875 63.40625 28.703125 62.078125 23.703125 62.078125 
C 20.703125 62.078125 16.203125 62.484375 11.296875 64.671875 
C 10.203125 65.171875 10 65.171875 9.90625 65.171875 
C 9.40625 65.171875 9.296875 65.0625 9.296875 63.078125 
L 9.296875 34.421875 
C 9.296875 32.640625 9.296875 32.140625 10.296875 32.140625 
C 10.796875 32.140625 11 32.34375 11.5 33.03125 
C 14.703125 37.515625 19.09375 39.40625 24.09375 39.40625 
C 27.59375 39.40625 35.09375 37.21875 35.09375 20.140625 
C 35.09375 16.953125 35.09375 11.171875 32.09375 6.578125 
C 29.59375 2.484375 25.703125 0.390625 21.40625 0.390625 
C 14.796875 0.390625 8.09375 5 6.296875 12.71875 
C 6.703125 12.609375 7.5 12.421875 7.90625 12.421875 
C 9.203125 12.421875 11.703125 13.125 11.703125 16.21875 
C 11.703125 18.90625 9.796875 20 7.90625 20 
C 5.59375 20 4.09375 18.59375 4.09375 15.796875 
C 4.09375 7.09375 11 -2 21.59375 -2 
C 31.90625 -2 41.703125 6.875 41.703125 19.75 
C 41.703125 31.71875 33.90625 41 24.203125 41 
C 19.09375 41 14.796875 39.109375 11.40625 35.53125 
z
" id="CMR17-53"/>
      </defs>
      <g transform="translate(122.055649 321.502498)scale(0.1 -0.1)">
       <use transform="scale(0.996264)" xlink:href="#CMR17-53"/>
       <use transform="translate(45.690477 0)scale(0.996264)" xlink:href="#CMR17-48"/>
      </g>
     </g>
    </g>
    <g id="xtick_3">
     <g id="line2d_3">
      <g>
       <use style="stroke:#000000;stroke-width:0.8;" x="181.327042" xlink:href="#mb71530f15c" y="307.584"/>
      </g>
     </g>
     <g id="text_3">
      <!-- $100$ -->
      <defs>
       <path d="M 26.59375 63.40625 
C 26.59375 65.5 26.5 65.5 25.09375 65.5 
C 21.203125 61.1875 15.296875 59.796875 9.703125 59.796875 
C 9.40625 59.796875 8.90625 59.796875 8.796875 59.5 
C 8.703125 59.296875 8.703125 59.09375 8.703125 57 
C 11.796875 57 17 57.59375 21 59.984375 
L 21 7.203125 
C 21 3.6875 20.796875 2.5 12.203125 2.5 
L 9.203125 2.5 
L 9.203125 0 
C 14 0 19 0 23.796875 0 
C 28.59375 0 33.59375 0 38.40625 0 
L 38.40625 2.5 
L 35.40625 2.5 
C 26.796875 2.5 26.59375 3.59375 26.59375 7.15625 
z
" id="CMR17-49"/>
      </defs>
      <g transform="translate(173.855039 321.502498)scale(0.1 -0.1)">
       <use transform="scale(0.996264)" xlink:href="#CMR17-49"/>
       <use transform="translate(45.690477 0)scale(0.996264)" xlink:href="#CMR17-48"/>
       <use transform="translate(91.380954 0)scale(0.996264)" xlink:href="#CMR17-48"/>
      </g>
     </g>
    </g>
    <g id="xtick_4">
     <g id="line2d_4">
      <g>
       <use style="stroke:#000000;stroke-width:0.8;" x="235.617099" xlink:href="#mb71530f15c" y="307.584"/>
      </g>
     </g>
     <g id="text_4">
      <!-- $150$ -->
      <g transform="translate(228.145097 321.502498)scale(0.1 -0.1)">
       <use transform="scale(0.996264)" xlink:href="#CMR17-49"/>
       <use transform="translate(45.690477 0)scale(0.996264)" xlink:href="#CMR17-53"/>
       <use transform="translate(91.380954 0)scale(0.996264)" xlink:href="#CMR17-48"/>
      </g>
     </g>
    </g>
    <g id="xtick_5">
     <g id="line2d_5">
      <g>
       <use style="stroke:#000000;stroke-width:0.8;" x="289.907157" xlink:href="#mb71530f15c" y="307.584"/>
      </g>
     </g>
     <g id="text_5">
      <!-- $200$ -->
      <defs>
       <path d="M 41.703125 15.453125 
L 39.90625 15.453125 
C 38.90625 8.375 38.09375 7.171875 37.703125 6.5625 
C 37.203125 5.765625 30 5.765625 28.59375 5.765625 
L 9.40625 5.765625 
C 13 9.671875 20 16.75 28.5 24.953125 
C 34.59375 30.734375 41.703125 37.53125 41.703125 47.421875 
C 41.703125 59.21875 32.296875 66 21.796875 66 
C 10.796875 66 4.09375 56.3125 4.09375 47.34375 
C 4.09375 43.4375 7 42.9375 8.203125 42.9375 
C 9.203125 42.9375 12.203125 43.546875 12.203125 47.03125 
C 12.203125 50.109375 9.59375 51 8.203125 51 
C 7.59375 51 7 50.90625 6.59375 50.703125 
C 8.5 59.21875 14.296875 63.40625 20.40625 63.40625 
C 29.09375 63.40625 34.796875 56.515625 34.796875 47.421875 
C 34.796875 38.734375 29.703125 31.25 24 24.75 
L 4.09375 2.28125 
L 4.09375 0 
L 39.296875 0 
z
" id="CMR17-50"/>
      </defs>
      <g transform="translate(282.435154 321.502498)scale(0.1 -0.1)">
       <use transform="scale(0.996264)" xlink:href="#CMR17-50"/>
       <use transform="translate(45.690477 0)scale(0.996264)" xlink:href="#CMR17-48"/>
       <use transform="translate(91.380954 0)scale(0.996264)" xlink:href="#CMR17-48"/>
      </g>
     </g>
    </g>
    <g id="xtick_6">
     <g id="line2d_6">
      <g>
       <use style="stroke:#000000;stroke-width:0.8;" x="344.197215" xlink:href="#mb71530f15c" y="307.584"/>
      </g>
     </g>
     <g id="text_6">
      <!-- $250$ -->
      <g transform="translate(336.725212 321.502498)scale(0.1 -0.1)">
       <use transform="scale(0.996264)" xlink:href="#CMR17-50"/>
       <use transform="translate(45.690477 0)scale(0.996264)" xlink:href="#CMR17-53"/>
       <use transform="translate(91.380954 0)scale(0.996264)" xlink:href="#CMR17-48"/>
      </g>
     </g>
    </g>
    <g id="xtick_7">
     <g id="line2d_7">
      <g>
       <use style="stroke:#000000;stroke-width:0.8;" x="398.487273" xlink:href="#mb71530f15c" y="307.584"/>
      </g>
     </g>
     <g id="text_7">
      <!-- $300$ -->
      <defs>
       <path d="M 22.09375 33.703125 
C 31 33.703125 34.90625 25.96875 34.90625 17.03125 
C 34.90625 5 28.5 0.390625 22.703125 0.390625 
C 17.40625 0.390625 8.796875 3.03125 6.09375 10.828125 
C 6.59375 10.625 7.09375 10.625 7.59375 10.625 
C 10 10.625 11.796875 12.21875 11.796875 14.8125 
C 11.796875 17.703125 9.59375 19 7.59375 19 
C 5.90625 19 3.296875 18.203125 3.296875 14.46875 
C 3.296875 5.234375 12.296875 -2 22.90625 -2 
C 34 -2 42.5 6.71875 42.5 16.953125 
C 42.5 26.671875 34.5 33.703125 25 34.796875 
C 32.59375 36.375 39.90625 43.0625 39.90625 52.015625 
C 39.90625 59.6875 32 65.296875 23 65.296875 
C 13.90625 65.296875 5.90625 59.828125 5.90625 52.015625 
C 5.90625 48.59375 8.5 48 9.796875 48 
C 11.90625 48 13.703125 49.296875 13.703125 51.890625 
C 13.703125 54.46875 11.90625 55.765625 9.796875 55.765625 
C 9.40625 55.765625 8.90625 55.765625 8.5 55.578125 
C 11.40625 61.859375 19.296875 63 22.796875 63 
C 26.296875 63 32.90625 61.328125 32.90625 51.875 
C 32.90625 49.109375 32.5 44.1875 29.09375 39.84375 
C 26.09375 36 22.703125 36 19.40625 35.6875 
C 18.90625 35.6875 16.59375 35.453125 16.203125 35.453125 
C 15.5 35.359375 15.09375 35.265625 15.09375 34.5 
C 15.09375 33.796875 15.203125 33.703125 17.203125 33.703125 
z
" id="CMR17-51"/>
      </defs>
      <g transform="translate(391.01527 321.502498)scale(0.1 -0.1)">
       <use transform="scale(0.996264)" xlink:href="#CMR17-51"/>
       <use transform="translate(45.690477 0)scale(0.996264)" xlink:href="#CMR17-48"/>
       <use transform="translate(91.380954 0)scale(0.996264)" xlink:href="#CMR17-48"/>
      </g>
     </g>
    </g>
    <g id="text_8">
     <!-- Epoch -->
     <defs>
      <path d="M 30.59375 6.765625 
C 22.59375 6.765625 19 6.765625 17.203125 6.765625 
L 17.203125 32.921875 
L 48.203125 32.921875 
L 48.203125 39 
L 17.203125 39 
L 17.203125 62.640625 
L 30.09375 62.640625 
C 31.296875 62.640625 32.5 62.640625 33.703125 62.640625 
L 50.796875 62.640625 
L 50.796875 69 
L 8.796875 69 
L 8.796875 0 
L 52.09375 0 
L 52.09375 6.765625 
z
" id="CMSS17-69"/>
      <path d="M 15.09375 5.203125 
C 18.40625 2.015625 22.90625 -0.078125 27.703125 -0.078125 
C 37 -0.078125 45 9.421875 45 22.0625 
C 45 33.734375 39 44 30.40625 44 
C 25.40625 44 19.40625 42.21875 14.90625 38.625 
L 14.90625 43.203125 
L 7.5 43.203125 
L 7.5 -19 
L 15.09375 -19 
z
M 15.09375 32.8125 
C 15.90625 34 19.296875 37.734375 24.796875 37.734375 
C 31.796875 37.734375 37.40625 30.625 37.40625 22.0625 
C 37.40625 12.296875 30.59375 6 23.90625 6 
C 21.90625 6 19.796875 6.484375 17.796875 8.171875 
C 15.09375 10.53125 15.09375 12 15.09375 13.390625 
z
" id="CMSS17-112"/>
      <path d="M 44.203125 21.1875 
C 44.203125 34 34.703125 44 23.5 44 
C 12 44 2.703125 33.703125 2.703125 21.1875 
C 2.703125 8.5 12.296875 -1 23.40625 -1 
C 34.796875 -1 44.203125 8.796875 44.203125 21.1875 
z
M 23.5 5.265625 
C 16.40625 5.265625 10.296875 11.078125 10.296875 22 
C 10.296875 33.609375 17.40625 37.921875 23.40625 37.921875 
C 29.90625 37.921875 36.59375 33.21875 36.59375 22 
C 36.59375 10.671875 30.09375 5.265625 23.5 5.265625 
z
" id="CMSS17-111"/>
      <path d="M 38.5 39.703125 
C 38.5 40.390625 33.90625 42.40625 32.703125 42.796875 
C 29.40625 44 25.203125 44 24.09375 44 
C 11.09375 44 3.296875 32.703125 3.296875 21.296875 
C 3.296875 9.296875 12 -1 23.703125 -1 
C 30.40625 -1 35.203125 1.1875 39.09375 3.78125 
L 38.5 10.375 
C 34.203125 7.078125 29.203125 5.265625 23.796875 5.265625 
C 16 5.265625 10.90625 12.09375 10.90625 21.390625 
C 10.90625 28.609375 14.203125 37.71875 24.203125 37.71875 
C 29.703125 37.71875 32.796875 36.609375 37.40625 33.515625 
z
" id="CMSS17-99"/>
      <path d="M 40.90625 29.546875 
C 40.90625 35.8125 39.40625 44.0625 28.09375 44.0625 
C 21.796875 44.0625 17.703125 40.984375 14.796875 37.609375 
L 14.796875 69.5 
L 7.40625 69.5 
L 7.40625 0.5 
L 15 0.5 
L 15 24.578125 
C 15 30.828125 17.40625 38 24.203125 38 
C 33 38 33.296875 32.125 33.296875 28.734375 
L 33.296875 0.5 
L 40.90625 0.5 
z
" id="CMSS17-104"/>
     </defs>
     <g transform="translate(223.056337 334.358175)scale(0.1 -0.1)">
      <use transform="scale(0.996264)" xlink:href="#CMSS17-69"/>
      <use transform="translate(55.892013 0)scale(0.996264)" xlink:href="#CMSS17-112"/>
      <use transform="translate(106.699395 0)scale(0.996264)" xlink:href="#CMSS17-111"/>
      <use transform="translate(156.145457 0)scale(0.996264)" xlink:href="#CMSS17-99"/>
      <use transform="translate(197.784279 0)scale(0.996264)" xlink:href="#CMSS17-104"/>
     </g>
    </g>
   </g>
   <g id="matplotlib.axis_2">
    <g id="ytick_1">
     <g id="line2d_8">
      <defs>
       <path d="M 0 0 
L -3.5 0 
" id="mda7704681d" style="stroke:#000000;stroke-width:0.8;"/>
      </defs>
      <g>
       <use style="stroke:#000000;stroke-width:0.8;" x="57.6" xlink:href="#mda7704681d" y="279.012885"/>
      </g>
     </g>
     <g id="text_9">
      <!-- $0.78$ -->
      <defs>
       <path d="M 18.40625 4.796875 
C 18.40625 7.6875 16 9.671875 13.59375 9.671875 
C 10.703125 9.671875 8.703125 7.28125 8.703125 4.890625 
C 8.703125 2 11.09375 0 13.5 0 
C 16.40625 0 18.40625 2.390625 18.40625 4.796875 
z
" id="CMMI12-58"/>
       <path d="M 45.09375 61.578125 
L 45.09375 63.765625 
L 21.59375 63.765625 
C 9.90625 63.765625 9.703125 65.078125 9.296875 67 
L 7.5 67 
L 4.59375 48.34375 
L 6.40625 48.34375 
C 6.703125 50.234375 7.40625 55.3125 8.59375 57.203125 
C 9.203125 58 16.59375 58 18.296875 58 
L 40.296875 58 
L 29.203125 41.578125 
C 21.796875 30.53125 16.703125 15.609375 16.703125 2.578125 
C 16.703125 1.390625 16.703125 -2 20.296875 -2 
C 23.90625 -2 23.90625 1.390625 23.90625 2.671875 
L 23.90625 7.265625 
C 23.90625 23.5625 26.703125 34.3125 31.296875 41.1875 
z
" id="CMR17-55"/>
       <path d="M 27.203125 35.375 
C 33.5 38.546875 39.90625 43.328125 39.90625 50.984375 
C 39.90625 60.015625 31.09375 65.296875 23 65.296875 
C 13.90625 65.296875 5.90625 58.734375 5.90625 49.6875 
C 5.90625 47.203125 6.5 42.921875 10.40625 39.140625 
C 11.40625 38.15625 15.59375 35.171875 18.296875 33.28125 
C 13.796875 30.984375 3.296875 25.53125 3.296875 14.59375 
C 3.296875 4.359375 13.09375 -2 22.796875 -2 
C 33.5 -2 42.5 5.65625 42.5 15.78125 
C 42.5 24.84375 36.40625 29.015625 32.40625 31.703125 
z
M 14.09375 44.09375 
C 13.296875 44.59375 9.296875 47.671875 9.296875 52.359375 
C 9.296875 58.421875 15.59375 63 22.796875 63 
C 30.703125 63 36.5 57.4375 36.5 50.96875 
C 36.5 41.703125 26.09375 36.421875 25.59375 36.421875 
C 25.5 36.421875 25.40625 36.421875 24.59375 37.03125 
z
M 32.5 23.734375 
C 34 22.640625 38.796875 19.375 38.796875 13.296875 
C 38.796875 5.953125 31.40625 0.390625 23 0.390625 
C 13.90625 0.390625 7 6.84375 7 14.6875 
C 7 22.546875 13.09375 29.09375 20 32.1875 
z
" id="CMR17-56"/>
      </defs>
      <g transform="translate(32.888586 282.472135)scale(0.1 -0.1)">
       <use transform="scale(0.996264)" xlink:href="#CMR17-48"/>
       <use transform="translate(45.690477 0)scale(0.996264)" xlink:href="#CMMI12-58"/>
       <use transform="translate(72.787654 0)scale(0.996264)" xlink:href="#CMR17-55"/>
       <use transform="translate(118.478131 0)scale(0.996264)" xlink:href="#CMR17-56"/>
      </g>
     </g>
    </g>
    <g id="ytick_2">
     <g id="line2d_9">
      <g>
       <use style="stroke:#000000;stroke-width:0.8;" x="57.6" xlink:href="#mda7704681d" y="241.438989"/>
      </g>
     </g>
     <g id="text_10">
      <!-- $0.80$ -->
      <g transform="translate(32.888586 244.898238)scale(0.1 -0.1)">
       <use transform="scale(0.996264)" xlink:href="#CMR17-48"/>
       <use transform="translate(45.690477 0)scale(0.996264)" xlink:href="#CMMI12-58"/>
       <use transform="translate(72.787654 0)scale(0.996264)" xlink:href="#CMR17-56"/>
       <use transform="translate(118.478131 0)scale(0.996264)" xlink:href="#CMR17-48"/>
      </g>
     </g>
    </g>
    <g id="ytick_3">
     <g id="line2d_10">
      <g>
       <use style="stroke:#000000;stroke-width:0.8;" x="57.6" xlink:href="#mda7704681d" y="203.865093"/>
      </g>
     </g>
     <g id="text_11">
      <!-- $0.82$ -->
      <g transform="translate(32.888586 207.324342)scale(0.1 -0.1)">
       <use transform="scale(0.996264)" xlink:href="#CMR17-48"/>
       <use transform="translate(45.690477 0)scale(0.996264)" xlink:href="#CMMI12-58"/>
       <use transform="translate(72.787654 0)scale(0.996264)" xlink:href="#CMR17-56"/>
       <use transform="translate(118.478131 0)scale(0.996264)" xlink:href="#CMR17-50"/>
      </g>
     </g>
    </g>
    <g id="ytick_4">
     <g id="line2d_11">
      <g>
       <use style="stroke:#000000;stroke-width:0.8;" x="57.6" xlink:href="#mda7704681d" y="166.291197"/>
      </g>
     </g>
     <g id="text_12">
      <!-- $0.84$ -->
      <defs>
       <path d="M 33.59375 64.40625 
C 33.59375 66.5 33.5 66.5 31.703125 66.5 
L 2 19.59375 
L 2 17 
L 27.796875 17 
L 27.796875 7.140625 
C 27.796875 3.5 27.59375 2.5 20.59375 2.5 
L 18.703125 2.5 
L 18.703125 0 
C 21.90625 0 27.296875 0 30.703125 0 
C 34.09375 0 39.5 0 42.703125 0 
L 42.703125 2.5 
L 40.796875 2.5 
C 33.796875 2.5 33.59375 3.5 33.59375 7.140625 
L 33.59375 17 
L 43.796875 17 
L 43.796875 19.59375 
L 33.59375 19.59375 
z
M 28.09375 57.859375 
L 28.09375 19.59375 
L 4 19.59375 
z
" id="CMR17-52"/>
      </defs>
      <g transform="translate(32.888586 169.750446)scale(0.1 -0.1)">
       <use transform="scale(0.996264)" xlink:href="#CMR17-48"/>
       <use transform="translate(45.690477 0)scale(0.996264)" xlink:href="#CMMI12-58"/>
       <use transform="translate(72.787654 0)scale(0.996264)" xlink:href="#CMR17-56"/>
       <use transform="translate(118.478131 0)scale(0.996264)" xlink:href="#CMR17-52"/>
      </g>
     </g>
    </g>
    <g id="ytick_5">
     <g id="line2d_12">
      <g>
       <use style="stroke:#000000;stroke-width:0.8;" x="57.6" xlink:href="#mda7704681d" y="128.717301"/>
      </g>
     </g>
     <g id="text_13">
      <!-- $0.86$ -->
      <defs>
       <path d="M 10.59375 34 
C 10.59375 57.65625 21.796875 63 28.296875 63 
C 30.40625 63 35.5 62.640625 37.5 59 
C 35.90625 59 32.90625 59 32.90625 55.515625 
C 32.90625 52.828125 35.09375 51.921875 36.5 51.921875 
C 37.40625 51.921875 40.09375 52.3125 40.09375 55.625 
C 40.09375 61.78125 35.09375 65.296875 28.203125 65.296875 
C 16.296875 65.296875 3.796875 52.96875 3.796875 31 
C 3.796875 3.953125 15.09375 -2 23.09375 -2 
C 32.796875 -2 42 6.671875 42 20.046875 
C 42 32.515625 33.90625 41.59375 23.703125 41.59375 
C 17.59375 41.59375 13.09375 37.609375 10.59375 30.625 
z
M 23.09375 0.390625 
C 10.796875 0.390625 10.796875 18.75 10.796875 22.4375 
C 10.796875 29.625 14.203125 40 23.5 40 
C 25.203125 40 30.09375 40 33.40625 33.125 
C 35.203125 29.21875 35.203125 25.140625 35.203125 20.140625 
C 35.203125 14.75 35.203125 10.78125 33.09375 6.78125 
C 30.90625 2.671875 27.703125 0.390625 23.09375 0.390625 
z
" id="CMR17-54"/>
      </defs>
      <g transform="translate(32.888586 132.17655)scale(0.1 -0.1)">
       <use transform="scale(0.996264)" xlink:href="#CMR17-48"/>
       <use transform="translate(45.690477 0)scale(0.996264)" xlink:href="#CMMI12-58"/>
       <use transform="translate(72.787654 0)scale(0.996264)" xlink:href="#CMR17-56"/>
       <use transform="translate(118.478131 0)scale(0.996264)" xlink:href="#CMR17-54"/>
      </g>
     </g>
    </g>
    <g id="ytick_6">
     <g id="line2d_13">
      <g>
       <use style="stroke:#000000;stroke-width:0.8;" x="57.6" xlink:href="#mda7704681d" y="91.143405"/>
      </g>
     </g>
     <g id="text_14">
      <!-- $0.88$ -->
      <g transform="translate(32.888586 94.602654)scale(0.1 -0.1)">
       <use transform="scale(0.996264)" xlink:href="#CMR17-48"/>
       <use transform="translate(45.690477 0)scale(0.996264)" xlink:href="#CMMI12-58"/>
       <use transform="translate(72.787654 0)scale(0.996264)" xlink:href="#CMR17-56"/>
       <use transform="translate(118.478131 0)scale(0.996264)" xlink:href="#CMR17-56"/>
      </g>
     </g>
    </g>
    <g id="ytick_7">
     <g id="line2d_14">
      <g>
       <use style="stroke:#000000;stroke-width:0.8;" x="57.6" xlink:href="#mda7704681d" y="53.569508"/>
      </g>
     </g>
     <g id="text_15">
      <!-- $0.90$ -->
      <defs>
       <path d="M 35.203125 29.125 
C 35.203125 7.25 26.09375 0.484375 18.59375 0.484375 
C 16.296875 0.484375 10.703125 0.484375 8.40625 4.59375 
C 11 4.1875 12.90625 5.578125 12.90625 8.09375 
C 12.90625 10.8125 10.703125 11.703125 9.296875 11.703125 
C 8.40625 11.703125 5.703125 11.296875 5.703125 7.90625 
C 5.703125 1.109375 11.59375 -2 18.796875 -2 
C 30.296875 -2 42 10.53125 42 32.390625 
C 42 59.640625 30.796875 65.296875 23.203125 65.296875 
C 13.296875 65.296875 3.796875 56.6875 3.796875 43.40625 
C 3.796875 31.109375 11.90625 22 22.09375 22 
C 30.5 22 34.203125 29.734375 35.203125 33 
z
M 22.296875 23.59375 
C 19.59375 23.59375 15.796875 24.09375 12.703125 30.03125 
C 10.59375 33.890625 10.59375 38.453125 10.59375 43.296875 
C 10.59375 49.15625 10.59375 53.203125 13.40625 57.5625 
C 14.796875 59.640625 17.40625 63 23.203125 63 
C 35 63 35 45.078125 35 41.125 
C 35 34.09375 31.796875 23.59375 22.296875 23.59375 
z
" id="CMR17-57"/>
      </defs>
      <g transform="translate(32.888586 57.028758)scale(0.1 -0.1)">
       <use transform="scale(0.996264)" xlink:href="#CMR17-48"/>
       <use transform="translate(45.690477 0)scale(0.996264)" xlink:href="#CMMI12-58"/>
       <use transform="translate(72.787654 0)scale(0.996264)" xlink:href="#CMR17-57"/>
       <use transform="translate(118.478131 0)scale(0.996264)" xlink:href="#CMR17-48"/>
      </g>
     </g>
    </g>
    <g id="text_16">
     <!-- MS-SSIM -->
     <defs>
      <path d="M 49.90625 37.046875 
L 45.09375 23.015625 
C 44.296875 20.421875 41.59375 12.359375 41 9.171875 
L 40.90625 9.171875 
C 40.59375 11.171875 40 13.265625 38.40625 18.34375 
C 37.5 21.328125 36.5 24.40625 35.5 27.203125 
L 20.703125 69 
L 9 69 
L 9 0 
L 16.796875 0 
L 16.796875 60.9375 
L 16.90625 60.9375 
C 16.90625 60.84375 17.796875 56.453125 23.90625 39.046875 
L 37.09375 1.5 
L 44.5 1.5 
L 56.40625 34.859375 
C 57.203125 37.15625 59.703125 44.421875 60.796875 47.90625 
C 61.796875 50.890625 64.296875 58.25 64.90625 61.140625 
L 65 61.140625 
L 65 0 
L 72.90625 0 
L 72.90625 69 
L 61.296875 69 
z
" id="CMSS17-77"/>
      <path d="M 43.703125 65.140625 
C 39.296875 67.71875 34.5 70 26.40625 70 
C 13.5 70 5.203125 60.609375 5.203125 51.03125 
C 5.203125 47.265625 6.296875 43.015625 10.203125 38.671875 
C 14.09375 34.3125 18.5 33.140625 24.09375 31.765625 
C 26.40625 31.15625 30.296875 30.0625 31 29.78125 
C 36.59375 27.609375 39.296875 22.5625 39.296875 17.8125 
C 39.296875 11.59375 34.40625 4.96875 25.703125 4.96875 
C 22.703125 4.96875 13.90625 4.96875 5.59375 12.796875 
L 4.203125 4.96875 
C 12.40625 -1 21.296875 -2 25.796875 -2 
C 38.09375 -2 46.90625 7.625 46.90625 18.53125 
C 46.90625 22.5 45.703125 27.546875 41.5 32.203125 
C 37.40625 36.671875 33.796875 37.65625 25.59375 39.828125 
C 20.90625 41.03125 17.90625 41.828125 15.40625 44.890625 
C 13.703125 47.078125 12.796875 49.15625 12.796875 51.828125 
C 12.796875 57.390625 17.59375 63.4375 26.40625 63.4375 
C 30.796875 63.4375 36.5 62.53125 42.296875 57.1875 
z
" id="CMSS17-83"/>
      <path d="M 26 19 
L 26 24.765625 
L 1 24.765625 
L 1 19 
z
" id="CMSS17-45"/>
      <path d="M 17.09375 69 
L 8.703125 69 
L 8.703125 0 
L 17.09375 0 
z
" id="CMSS17-73"/>
     </defs>
     <g transform="translate(26.951407 194.59173)rotate(-90)scale(0.1 -0.1)">
      <use transform="scale(0.996264)" xlink:href="#CMSS17-77"/>
      <use transform="translate(81.67603 0)scale(0.996264)" xlink:href="#CMSS17-83"/>
      <use transform="translate(133.724546 0)scale(0.996264)" xlink:href="#CMSS17-45"/>
      <use transform="translate(164.953659 0)scale(0.996264)" xlink:href="#CMSS17-83"/>
      <use transform="translate(217.002175 0)scale(0.996264)" xlink:href="#CMSS17-83"/>
      <use transform="translate(269.050691 0)scale(0.996264)" xlink:href="#CMSS17-73"/>
      <use transform="translate(294.834617 0)scale(0.996264)" xlink:href="#CMSS17-77"/>
     </g>
    </g>
   </g>
   <g id="line2d_15">
    <path clip-path="url(#ped4b8561bf)" d="M 73.832727 229.291594 
L 74.918528 190.104767 
L 76.00433 174.352942 
L 77.090131 177.204567 
L 78.175932 154.020557 
L 79.261733 144.539095 
L 80.347534 151.759413 
L 81.433335 139.259697 
L 82.519137 134.692172 
L 83.604938 118.019837 
L 84.690739 115.398584 
L 85.77654 127.526089 
L 86.862341 124.61961 
L 87.948142 103.538668 
L 89.033943 112.933169 
L 90.119745 104.73717 
L 91.205546 105.006691 
L 92.291347 110.79286 
L 93.377148 101.858558 
L 94.462949 108.880709 
L 95.54875 94.644861 
L 96.634552 101.924397 
L 97.720353 93.82273 
L 98.806154 104.327584 
L 99.891955 97.930561 
L 100.977756 89.028014 
L 102.063557 95.34536 
L 103.149358 97.100841 
L 104.23516 94.193064 
L 105.320961 98.585034 
L 106.406762 101.265979 
L 107.492563 100.400521 
L 108.578364 91.565367 
L 109.664165 86.782108 
L 110.749967 97.153352 
L 111.835768 72.375903 
L 112.921569 103.128995 
L 114.00737 89.133884 
L 115.093171 97.219683 
L 116.178972 80.572846 
L 117.264773 88.283162 
L 118.350575 83.566893 
L 119.436376 89.751041 
L 120.522177 82.077982 
L 121.607978 75.996743 
L 122.693779 71.081692 
L 123.77958 101.543333 
L 124.865382 63.100087 
L 125.951183 90.690765 
L 127.036984 78.076487 
L 128.122785 73.241194 
L 129.208586 99.494149 
L 130.294387 86.823731 
L 131.380189 95.214367 
L 133.551791 70.482403 
L 134.637592 79.349562 
L 135.723393 68.195507 
L 136.809194 79.834723 
L 137.894995 73.14163 
L 138.980797 71.811248 
L 140.066598 78.665986 
L 141.152399 84.318817 
L 142.2382 80.926668 
L 143.324001 74.5361 
L 144.409802 83.399233 
L 145.495604 66.948483 
L 146.581405 74.78365 
L 147.667206 79.741544 
L 148.753007 75.172841 
L 149.838808 78.451502 
L 150.924609 71.283002 
L 152.01041 62.87385 
L 153.096212 58.011132 
L 154.182013 76.464687 
L 155.267814 68.67349 
L 156.353615 53.568 
L 157.439416 74.70023 
L 158.525217 55.821224 
L 159.611019 72.96182 
L 160.69682 78.628258 
L 161.782621 70.612951 
L 162.868422 74.689612 
L 163.954223 68.382996 
L 165.040024 63.756887 
L 166.125825 70.929384 
L 167.211627 63.88934 
L 168.297428 79.048029 
L 169.383229 75.813968 
L 170.46903 71.536148 
L 171.554831 69.527197 
L 172.640632 64.578876 
L 173.726434 75.107952 
L 174.812235 77.282648 
L 175.898036 70.053948 
L 176.983837 58.568134 
L 178.069638 77.21207 
L 179.155439 54.235473 
L 180.24124 77.636868 
L 181.327042 65.56136 
L 182.412843 84.654846 
L 183.498644 78.837889 
L 184.584445 122.63861 
L 185.670246 101.730726 
L 186.756047 104.070401 
L 187.841849 111.379767 
L 188.92765 87.707314 
L 190.013451 86.021577 
L 191.099252 104.64343 
L 192.185053 91.607978 
L 193.270854 108.488612 
L 194.356656 116.703945 
L 195.442457 92.145372 
L 196.528258 102.328194 
L 197.614059 99.849544 
L 198.69986 115.38459 
L 199.785661 115.262678 
L 200.871462 120.12088 
L 201.957264 118.797943 
L 203.043065 115.86133 
L 204.128866 132.156046 
L 205.214667 138.59016 
L 206.300468 149.249735 
L 207.386269 170.216634 
L 208.472071 158.061993 
L 209.557872 152.647087 
L 210.643673 150.652343 
L 211.729474 167.734108 
L 212.815275 196.135722 
L 213.901076 200.146602 
L 214.986877 203.014071 
L 216.072679 216.857206 
L 217.15848 221.662485 
L 218.244281 203.384694 
L 219.330082 222.74101 
L 220.415883 230.166013 
L 221.501684 213.919955 
L 222.587486 204.523439 
L 223.673287 257.492418 
L 224.759088 226.991577 
L 225.844889 222.771531 
L 226.93069 241.392901 
L 228.016491 207.877046 
L 229.102292 209.796211 
L 230.188094 206.148619 
L 231.273895 208.878199 
L 232.359696 224.173221 
L 233.445497 295.488 
L 234.531298 249.707389 
L 235.617099 226.242191 
L 236.702901 214.032496 
L 237.788702 224.037405 
L 238.874503 209.727396 
L 239.960304 234.801386 
L 241.046105 170.80838 
L 242.131906 185.28646 
L 243.217708 247.598856 
L 244.303509 256.544152 
L 245.38931 198.78543 
L 246.475111 215.010255 
L 247.560912 173.355006 
L 248.646713 197.583616 
L 249.732514 186.029023 
L 250.818316 184.368091 
L 251.904117 173.523518 
L 252.989918 175.034063 
L 254.075719 177.034807 
L 255.16152 180.914341 
L 256.247321 166.312117 
L 257.333123 171.399513 
L 258.418924 174.613671 
L 259.504725 173.599799 
L 260.590526 200.966481 
L 261.676327 176.188985 
L 262.762128 203.334058 
L 263.847929 180.941525 
L 264.933731 185.058401 
L 266.019532 193.411112 
L 267.105333 179.605746 
L 268.191134 173.130608 
L 269.276935 172.721494 
L 270.362736 169.353202 
L 271.448538 216.656826 
L 272.534339 226.236565 
L 273.62014 219.446414 
L 274.705941 267.446617 
L 275.791742 203.881508 
L 276.877543 247.261935 
L 277.963344 223.717291 
L 279.049146 273.847278 
L 280.134947 273.128084 
L 281.220748 244.595102 
L 282.306549 194.238098 
L 283.39235 208.624905 
L 284.478151 185.250869 
L 285.563953 192.794247 
L 286.649754 226.551013 
L 287.735555 181.936232 
L 288.821356 224.445429 
L 289.907157 229.582493 
L 290.992958 187.476081 
L 292.07876 193.789597 
L 293.164561 207.057595 
L 294.250362 193.2285 
L 295.336163 173.425148 
L 297.507765 219.011816 
L 298.593566 211.525197 
L 299.679368 221.917593 
L 300.765169 215.277729 
L 301.85097 216.681025 
L 302.936771 221.267956 
L 304.022572 195.704522 
L 305.108373 196.093163 
L 306.194175 191.037467 
L 307.279976 195.308651 
L 308.365777 213.002471 
L 309.451578 214.945408 
L 310.537379 210.744617 
L 311.62318 193.121964 
L 312.708981 169.345059 
L 313.794783 208.652424 
L 314.880584 192.999803 
L 315.966385 237.466817 
L 317.052186 189.43074 
L 318.137987 165.890504 
L 319.223788 197.233084 
L 320.30959 182.209248 
L 321.395391 185.015581 
L 322.481192 181.887432 
L 323.566993 246.99089 
L 324.652794 240.945375 
L 325.738595 227.413078 
L 326.824396 179.353641 
L 327.910198 180.449111 
L 328.995999 220.57 
L 330.0818 220.414881 
L 331.167601 222.522998 
L 332.253402 178.136427 
L 333.339203 192.722257 
L 334.425005 198.877739 
L 335.510806 183.922981 
L 336.596607 192.450542 
L 337.682408 192.236003 
L 338.768209 200.549618 
L 339.85401 188.616693 
L 340.939811 228.383828 
L 342.025613 207.598024 
L 343.111414 177.207648 
L 344.197215 206.554949 
L 345.283016 209.100427 
L 346.368817 175.583639 
L 347.454618 207.212123 
L 348.54042 213.60717 
L 349.626221 177.188472 
L 350.712022 201.085123 
L 351.797823 234.275558 
L 352.883624 189.302353 
L 353.969425 193.311125 
L 355.055227 193.71728 
L 356.141028 212.991271 
L 357.226829 205.712565 
L 358.31263 210.518819 
L 359.398431 181.5824 
L 360.484232 223.870204 
L 361.570033 224.266174 
L 362.655835 179.772742 
L 363.741636 233.148251 
L 364.827437 200.861245 
L 365.913238 256.679223 
L 366.999039 209.977752 
L 368.08484 202.890642 
L 369.170642 209.166512 
L 370.256443 208.724695 
L 371.342244 212.750009 
L 372.428045 209.275916 
L 373.513846 182.166923 
L 374.599647 201.687502 
L 375.685448 191.962636 
L 376.77125 210.572793 
L 377.857051 205.082961 
L 378.942852 186.343068 
L 380.028653 202.110612 
L 381.114454 196.634502 
L 382.200255 214.854805 
L 383.286057 174.712165 
L 384.371858 211.985132 
L 385.457659 199.541833 
L 386.54346 173.945517 
L 387.629261 190.828622 
L 388.715062 187.568221 
L 389.800863 218.215204 
L 390.886665 175.751049 
L 391.972466 208.059609 
L 394.144068 178.391945 
L 395.229869 173.862345 
L 396.31567 187.231358 
L 397.401472 196.82478 
L 398.487273 208.031219 
L 398.487273 208.031219 
" style="fill:none;stroke:#0000ff;stroke-linecap:square;stroke-width:1.5;"/>
   </g>
   <g id="line2d_16">
    <path clip-path="url(#ped4b8561bf)" d="M 73.832727 226.983902 
L 74.918528 208.73168 
L 76.00433 184.94457 
L 77.090131 182.466579 
L 78.175932 153.61674 
L 79.261733 166.146761 
L 80.347534 147.787081 
L 82.519137 132.809434 
L 83.604938 131.857749 
L 84.690739 114.623861 
L 85.77654 132.059898 
L 86.862341 104.707 
L 87.948142 125.816406 
L 89.033943 107.898129 
L 90.119745 108.1024 
L 91.205546 124.771325 
L 92.291347 115.308767 
L 93.377148 103.478263 
L 94.462949 97.252104 
L 95.54875 104.945926 
L 96.634552 97.501987 
L 97.720353 97.865963 
L 98.806154 96.416936 
L 99.891955 109.568859 
L 100.977756 93.210064 
L 102.063557 111.89541 
L 103.149358 79.429648 
L 104.23516 95.734985 
L 105.320961 90.537042 
L 106.406762 94.218685 
L 107.492563 83.550544 
L 108.578364 102.795893 
L 109.664165 84.609906 
L 110.749967 91.070435 
L 111.835768 86.217163 
L 112.921569 102.570316 
L 114.00737 97.104619 
L 115.093171 95.932938 
L 116.178972 99.101168 
L 117.264773 94.38049 
L 118.350575 95.458096 
L 119.436376 88.116192 
L 120.522177 79.767928 
L 121.607978 82.433125 
L 122.693779 86.886331 
L 123.77958 75.551621 
L 124.865382 84.082203 
L 125.951183 88.523213 
L 127.036984 84.645051 
L 128.122785 82.627998 
L 129.208586 88.825193 
L 130.294387 98.536652 
L 131.380189 83.35689 
L 132.46599 88.983555 
L 133.551791 87.752665 
L 134.637592 72.026287 
L 135.723393 83.73033 
L 136.809194 74.815336 
L 137.894995 78.617528 
L 138.980797 67.712015 
L 140.066598 87.183682 
L 141.152399 86.37548 
L 142.2382 92.322935 
L 144.409802 81.911581 
L 145.495604 81.480967 
L 146.581405 100.651353 
L 147.667206 86.155303 
L 148.753007 78.651133 
L 149.838808 82.962162 
L 150.924609 80.546725 
L 152.01041 66.666155 
L 153.096212 75.09275 
L 154.182013 70.232217 
L 155.267814 69.143876 
L 156.353615 84.537987 
L 157.439416 79.574008 
L 158.525217 66.771249 
L 159.611019 70.420352 
L 160.69682 73.505015 
L 161.782621 89.265757 
L 162.868422 84.826866 
L 163.954223 78.302513 
L 165.040024 73.785644 
L 166.125825 72.383933 
L 167.211627 93.652431 
L 168.297428 79.511833 
L 169.383229 76.999182 
L 170.46903 80.146032 
L 171.554831 70.735436 
L 172.640632 75.080776 
L 173.726434 82.214047 
L 174.812235 73.602331 
L 175.898036 77.947311 
L 176.983837 76.335136 
L 178.069638 87.857439 
L 179.155439 78.389146 
L 180.24124 70.257998 
L 181.327042 107.010244 
L 182.412843 103.220348 
L 183.498644 106.796838 
L 184.584445 112.608227 
L 185.670246 86.775956 
L 186.756047 100.100774 
L 187.841849 97.828505 
L 188.92765 102.451726 
L 190.013451 84.657341 
L 191.099252 94.951456 
L 192.185053 103.823513 
L 193.270854 107.833129 
L 194.356656 112.667267 
L 195.442457 112.804685 
L 196.528258 115.636154 
L 197.614059 112.106867 
L 198.69986 116.501294 
L 199.785661 129.353887 
L 200.871462 119.629916 
L 201.957264 136.954565 
L 203.043065 134.550098 
L 204.128866 138.135599 
L 205.214667 142.402316 
L 206.300468 137.632053 
L 207.386269 146.773909 
L 208.472071 160.489706 
L 209.557872 166.172795 
L 210.643673 150.106048 
L 211.729474 159.433101 
L 212.815275 207.637632 
L 213.901076 220.700189 
L 214.986877 201.190723 
L 216.072679 228.635231 
L 217.15848 241.096929 
L 218.244281 210.907585 
L 219.330082 204.268884 
L 220.415883 220.720672 
L 221.501684 213.687939 
L 222.587486 200.602573 
L 223.673287 250.345242 
L 224.759088 211.973432 
L 225.844889 220.712065 
L 226.93069 225.073633 
L 228.016491 208.987054 
L 229.102292 218.265207 
L 230.188094 235.636123 
L 231.273895 226.257269 
L 232.359696 231.385518 
L 233.445497 281.647565 
L 234.531298 258.332723 
L 235.617099 224.970689 
L 236.702901 222.595436 
L 237.788702 244.373471 
L 238.874503 208.289341 
L 239.960304 256.287516 
L 241.046105 182.615565 
L 243.217708 262.873402 
L 244.303509 272.002523 
L 245.38931 201.97085 
L 246.475111 225.19387 
L 247.560912 181.639759 
L 248.646713 190.270691 
L 249.732514 183.255289 
L 250.818316 191.252315 
L 251.904117 202.32882 
L 252.989918 166.483252 
L 254.075719 184.286537 
L 255.16152 184.756848 
L 256.247321 184.019408 
L 257.333123 179.37482 
L 258.418924 164.565293 
L 259.504725 182.763569 
L 260.590526 212.817903 
L 261.676327 190.110815 
L 262.762128 215.061034 
L 263.847929 187.679892 
L 264.933731 174.712222 
L 266.019532 181.734823 
L 267.105333 196.646184 
L 268.191134 179.349546 
L 269.276935 179.525833 
L 271.448538 205.974206 
L 272.534339 230.64915 
L 273.62014 186.023354 
L 274.705941 270.002694 
L 275.791742 205.384414 
L 276.877543 270.157061 
L 277.963344 222.157725 
L 279.049146 278.871061 
L 280.134947 279.295291 
L 281.220748 262.779182 
L 282.306549 202.988601 
L 283.39235 223.876268 
L 284.478151 180.396873 
L 285.563953 188.983234 
L 286.649754 231.65339 
L 287.735555 183.084298 
L 288.821356 220.429544 
L 289.907157 195.814119 
L 290.992958 219.618944 
L 292.07876 190.484225 
L 293.164561 243.328288 
L 294.250362 216.138304 
L 295.336163 201.866288 
L 296.421964 209.03544 
L 297.507765 191.805866 
L 298.593566 211.218696 
L 299.679368 240.027648 
L 300.765169 223.321962 
L 301.85097 201.783635 
L 302.936771 203.867156 
L 304.022572 199.29307 
L 305.108373 205.858319 
L 306.194175 215.515142 
L 308.365777 186.608319 
L 309.451578 211.333168 
L 310.537379 187.098938 
L 311.62318 211.908864 
L 312.708981 197.799333 
L 313.794783 213.283405 
L 314.880584 184.419587 
L 315.966385 260.058764 
L 317.052186 197.821784 
L 318.137987 167.866573 
L 319.223788 200.732129 
L 320.30959 185.985963 
L 321.395391 191.976736 
L 322.481192 204.540024 
L 323.566993 236.211191 
L 324.652794 240.573483 
L 326.824396 194.575089 
L 327.910198 190.415907 
L 328.995999 222.632963 
L 330.0818 215.426214 
L 331.167601 216.669221 
L 332.253402 177.922339 
L 333.339203 189.206091 
L 334.425005 211.147068 
L 335.510806 173.999797 
L 336.596607 206.081251 
L 337.682408 192.878825 
L 338.768209 211.910494 
L 339.85401 193.177302 
L 340.939811 234.356515 
L 342.025613 236.16382 
L 343.111414 182.003026 
L 344.197215 198.885423 
L 345.283016 195.854008 
L 346.368817 204.02427 
L 347.454618 205.200599 
L 349.626221 188.07221 
L 350.712022 238.044156 
L 351.797823 214.470136 
L 352.883624 186.57911 
L 353.969425 211.612407 
L 355.055227 198.856861 
L 356.141028 221.994877 
L 357.226829 192.752997 
L 358.31263 239.850348 
L 359.398431 198.981443 
L 360.484232 209.296134 
L 361.570033 194.813898 
L 362.655835 184.739383 
L 363.741636 229.128109 
L 364.827437 218.669599 
L 365.913238 254.702543 
L 366.999039 203.740345 
L 368.08484 206.510695 
L 369.170642 218.681969 
L 370.256443 235.028395 
L 371.342244 194.162154 
L 372.428045 199.066104 
L 373.513846 180.047332 
L 374.599647 199.402428 
L 375.685448 215.46792 
L 376.77125 211.250988 
L 377.857051 199.439459 
L 378.942852 193.182979 
L 380.028653 230.903817 
L 381.114454 195.933066 
L 382.200255 218.733065 
L 383.286057 187.472605 
L 384.371858 204.510427 
L 385.457659 211.874383 
L 387.629261 177.040132 
L 388.715062 206.970392 
L 389.800863 205.055184 
L 390.886665 186.426669 
L 391.972466 189.251684 
L 394.144068 173.362158 
L 395.229869 180.2899 
L 396.31567 176.744078 
L 397.401472 199.502244 
L 398.487273 212.088505 
L 398.487273 212.088505 
" style="fill:none;stroke:#ff0000;stroke-linecap:square;stroke-width:1.5;"/>
   </g>
   <g id="patch_3">
    <path d="M 57.6 307.584 
L 57.6 41.472 
" style="fill:none;stroke:#000000;stroke-linecap:square;stroke-linejoin:miter;stroke-width:0.8;"/>
   </g>
   <g id="patch_4">
    <path d="M 414.72 307.584 
L 414.72 41.472 
" style="fill:none;stroke:#000000;stroke-linecap:square;stroke-linejoin:miter;stroke-width:0.8;"/>
   </g>
   <g id="patch_5">
    <path d="M 57.6 307.584 
L 414.72 307.584 
" style="fill:none;stroke:#000000;stroke-linecap:square;stroke-linejoin:miter;stroke-width:0.8;"/>
   </g>
   <g id="patch_6">
    <path d="M 57.6 41.472 
L 414.72 41.472 
" style="fill:none;stroke:#000000;stroke-linecap:square;stroke-linejoin:miter;stroke-width:0.8;"/>
   </g>
   <g id="text_17">
    <!-- $\textrm{IntroVAE}_{50}$ -->
    <defs>
     <path d="M 19.703125 61.015625 
C 19.703125 65.5 20.90625 65.5 28.09375 65.5 
L 28.09375 68 
C 24.90625 68 19.796875 68 16.40625 68 
C 13 68 7.90625 68 4.703125 68 
L 4.703125 65.5 
C 11.90625 65.5 13.09375 65.5 13.09375 61.015625 
L 13.09375 6.984375 
C 13.09375 2.5 11.90625 2.5 4.703125 2.5 
L 4.703125 0 
C 7.90625 0 13 0 16.40625 0 
C 19.796875 0 24.90625 0 28.09375 0 
L 28.09375 2.5 
C 20.90625 2.5 19.703125 2.5 19.703125 6.984375 
z
" id="CMR17-73"/>
     <path d="M 41.5 30.203125 
C 41.5 35.296875 40.5 43.59375 28.703125 43.59375 
C 20.796875 43.59375 16.703125 37.5 15.203125 33.5 
L 15.09375 33.5 
L 15.09375 43.59375 
L 3.296875 42.5 
L 3.296875 39.90625 
C 9.203125 39.90625 10.09375 39.296875 10.09375 34.5 
L 10.09375 6.6875 
C 10.09375 2.875 9.703125 2.390625 3.296875 2.390625 
L 3.296875 -0.203125 
C 5.703125 0 10.09375 0 12.703125 0 
C 15.296875 0 19.796875 0 22.203125 -0.203125 
L 22.203125 2.390625 
C 15.796875 2.390625 15.40625 2.78125 15.40625 6.6875 
L 15.40625 25.90625 
C 15.40625 35.109375 21 42 28 42 
C 35.40625 42 36.203125 35.40625 36.203125 30.59375 
L 36.203125 6.6875 
C 36.203125 2.875 35.796875 2.390625 29.40625 2.390625 
L 29.40625 -0.203125 
C 31.796875 0 36.203125 0 38.796875 0 
C 41.40625 0 45.90625 0 48.296875 -0.203125 
L 48.296875 2.390625 
C 41.90625 2.390625 41.5 2.78125 41.5 6.6875 
z
" id="CMR17-110"/>
     <path d="M 15.09375 40 
L 29.09375 40 
L 29.09375 42.578125 
L 15.09375 42.578125 
L 15.09375 61 
L 13.296875 61 
C 13.09375 50.703125 9.59375 41.6875 1.09375 41.6875 
L 1.09375 40 
L 9.796875 40 
L 9.796875 12.046875 
C 9.796875 10.15625 9.796875 -1 21.40625 -1 
C 27.296875 -1 30.703125 4.78125 30.703125 12.140625 
L 30.703125 17.8125 
L 28.90625 17.8125 
L 28.90625 12.234375 
C 28.90625 5.375 26.203125 0.796875 22 0.796875 
C 19.09375 0.796875 15.09375 2.78125 15.09375 11.84375 
z
" id="CMR17-116"/>
     <path d="M 15 23.390625 
C 15 33 19.09375 42 26.59375 42 
C 27.296875 42 28 41.90625 28.703125 41.59375 
C 28.703125 41.59375 26.5 40.890625 26.5 38.3125 
C 26.5 35.90625 28.40625 34.90625 29.90625 34.90625 
C 31.09375 34.90625 33.296875 35.609375 33.296875 38.40625 
C 33.296875 41.609375 30.09375 43.59375 26.703125 43.59375 
C 19.09375 43.59375 15.796875 36.203125 14.796875 32.703125 
L 14.703125 32.703125 
L 14.703125 43.59375 
L 3.09375 42.5 
L 3.09375 39.90625 
C 9 39.90625 9.90625 39.296875 9.90625 34.5 
L 9.90625 6.6875 
C 9.90625 2.875 9.5 2.390625 3.09375 2.390625 
L 3.09375 -0.203125 
C 5.5 0 10.09375 0 12.703125 0 
C 15.59375 0 20.703125 0 23.40625 -0.203125 
L 23.40625 2.390625 
C 16.203125 2.390625 15 2.390625 15 6.875 
z
" id="CMR17-114"/>
     <path d="M 43.09375 21.1875 
C 43.09375 34 33.796875 44 22.90625 44 
C 12 44 2.703125 34 2.703125 21.1875 
C 2.703125 8.609375 12 -1 22.90625 -1 
C 33.796875 -1 43.09375 8.609375 43.09375 21.1875 
z
M 22.90625 0.796875 
C 18.203125 0.796875 14.203125 3.59375 11.90625 7.5 
C 9.40625 11.984375 9.09375 17.59375 9.09375 22 
C 9.09375 26.203125 9.296875 31.40625 11.90625 35.90625 
C 13.90625 39.203125 17.796875 42.40625 22.90625 42.40625 
C 27.40625 42.40625 31.203125 39.90625 33.59375 36.40625 
C 36.703125 31.703125 36.703125 25.109375 36.703125 22 
C 36.703125 18.09375 36.5 12.109375 33.796875 7.296875 
C 31 2.703125 26.703125 0.796875 22.90625 0.796875 
z
" id="CMR17-111"/>
     <path d="M 59 58.515625 
C 59.90625 60.71875 61.5 65 68.203125 65 
L 68.203125 67.6875 
C 65.90625 67.484375 63.296875 67.484375 60.796875 67.484375 
C 58.40625 67.484375 54.296875 67.484375 52 67.6875 
L 52 65 
C 57 65 57.203125 61.5 57.203125 60.90625 
C 57.203125 59.796875 56.90625 59.109375 56.59375 58.3125 
L 36.90625 6.96875 
L 16.296875 60.71875 
C 16 61.421875 15.796875 61.921875 15.796875 62.40625 
C 15.796875 65 19.796875 65 21.90625 65 
L 21.90625 67.484375 
C 18.703125 67.484375 14 67.484375 10.703125 67.484375 
C 8.09375 67.484375 3.40625 67.484375 1 67.6875 
L 1 65 
C 6.796875 65 7.90625 64.609375 9.09375 61.421875 
L 32.90625 -0.40625 
C 33.40625 -1.796875 33.5 -2 34.59375 -2 
C 35.703125 -2 35.796875 -1.796875 36.296875 -0.40625 
z
" id="CMR17-86"/>
     <path d="M 36.296875 68.40625 
C 35.796875 69.703125 35.59375 70 34.59375 70 
C 33.59375 70 33.40625 69.703125 32.90625 68.40625 
L 11.703125 8.84375 
C 9.796875 3.484375 5.796875 2.390625 2.296875 2.390625 
L 2.296875 -0.203125 
C 4.09375 0 8.09375 0 10 0 
C 12.5 0 16.5 0 18.90625 -0.203125 
L 18.90625 2.390625 
C 14.203125 2.390625 13.5 5.640625 13.5 6.859375 
C 13.5 7.765625 13.703125 8.28125 13.90625 8.890625 
L 19.203125 24 
L 45.40625 24 
L 51.40625 6.90625 
C 51.90625 5.703125 51.90625 5.5 51.90625 5.109375 
C 51.90625 2.390625 47.59375 2.390625 45.703125 2.390625 
L 45.703125 0 
C 48.59375 0 53.796875 0 56.90625 0 
C 59.5 0 64.5 0 66.90625 -0.203125 
L 66.90625 2.390625 
C 61.59375 2.390625 59.796875 2.390625 58.5 6.046875 
z
M 32.296875 60.828125 
L 44.5 26.59375 
L 20.09375 26.59375 
z
" id="CMR17-65"/>
     <path d="M 60.703125 25.234375 
L 58.90625 25.234375 
C 56.703125 10.5625 55.40625 2.59375 37.796875 2.59375 
L 23.90625 2.59375 
C 19.90625 2.59375 19.703125 3.078125 19.703125 6.46875 
L 19.703125 34 
L 29.09375 34 
C 38.5 34 39.40625 30.625 39.40625 22.34375 
L 41.203125 22.34375 
L 41.203125 48.140625 
L 39.40625 48.140625 
C 39.40625 39.953125 38.5 36.59375 29.09375 36.59375 
L 19.703125 36.59375 
L 19.703125 61.140625 
C 19.703125 64.5 19.90625 65 23.90625 65 
L 37.59375 65 
C 53.09375 65 54.90625 58.890625 56.296875 45.765625 
L 58.09375 45.765625 
L 55.703125 67.578125 
L 5.09375 67.578125 
L 5.09375 65 
C 12 65 13.09375 65 13.09375 60.53125 
L 13.09375 7.046875 
C 13.09375 2.59375 12 2.59375 5.09375 2.59375 
L 5.09375 0 
L 57.09375 0 
z
" id="CMR17-69"/>
    </defs>
    <g transform="translate(207.139159 35.472)scale(0.12 -0.12)">
     <use transform="translate(0 14.943915)scale(0.996264)" xlink:href="#CMR17-73"/>
     <use transform="translate(32.638409 14.943915)scale(0.996264)" xlink:href="#CMR17-110"/>
     <use transform="translate(80.931325 14.943915)scale(0.996264)" xlink:href="#CMR17-116"/>
     <use transform="translate(116.212093 14.943915)scale(0.996264)" xlink:href="#CMR17-114"/>
     <use transform="translate(151.492861 14.943915)scale(0.996264)" xlink:href="#CMR17-111"/>
     <use transform="translate(197.183338 14.943915)scale(0.996264)" xlink:href="#CMR17-86"/>
     <use transform="translate(255.846058 14.943915)scale(0.996264)" xlink:href="#CMR17-65"/>
     <use transform="translate(324.918488 14.943915)scale(0.996264)" xlink:href="#CMR17-69"/>
     <use transform="translate(387.504789 0)scale(0.697382)" xlink:href="#CMR17-53"/>
     <use transform="translate(419.487971 0)scale(0.697382)" xlink:href="#CMR17-48"/>
    </g>
   </g>
   <g id="legend_1">
    <g id="patch_7">
     <path d="M 268.489782 302.384 
L 406.64 302.384 
Q 409.52 302.384 409.52 299.504 
L 409.52 260.804946 
Q 409.52 257.924946 406.64 257.924946 
L 268.489782 257.924946 
Q 265.609782 257.924946 265.609782 260.804946 
L 265.609782 299.504 
Q 265.609782 302.384 268.489782 302.384 
z
" style="fill:#4c4c4c;opacity:0.5;stroke:#4c4c4c;stroke-linejoin:miter;"/>
    </g>
    <g id="patch_8">
     <path d="M 266.489782 300.384 
L 404.64 300.384 
Q 407.52 300.384 407.52 297.504 
L 407.52 258.804946 
Q 407.52 255.924946 404.64 255.924946 
L 266.489782 255.924946 
Q 263.609782 255.924946 263.609782 258.804946 
L 263.609782 297.504 
Q 263.609782 300.384 266.489782 300.384 
z
" style="fill:#ffffff;stroke:#cccccc;stroke-linejoin:miter;"/>
    </g>
    <g id="line2d_17">
     <path d="M 269.369782 266.724946 
L 298.169782 266.724946 
" style="fill:none;stroke:#0000ff;stroke-linecap:square;stroke-width:1.5;"/>
    </g>
    <g id="line2d_18"/>
    <g id="text_18">
     <!-- Train Data -->
     <defs>
      <path d="M 36.203125 62 
L 44.5 62 
C 45.703125 62 46.90625 62 48.09375 62 
L 60.59375 62 
L 60.59375 68.375 
L 3.40625 68.375 
L 3.40625 62 
L 15.90625 62 
C 17.09375 62 18.296875 62 19.5 62 
L 27.796875 62 
L 27.796875 -0.5 
L 36.203125 -0.5 
z
" id="CMSS17-84"/>
      <path d="M 14.90625 21.296875 
C 14.90625 30.703125 21.796875 37 30.59375 37 
L 30.59375 43.578125 
C 24.203125 43.578125 18.203125 40.390625 14.59375 35.203125 
L 14.59375 43.09375 
L 7.5 43.09375 
L 7.5 0 
L 14.90625 0 
z
" id="CMSS17-114"/>
      <path d="M 37.59375 27.984375 
C 37.59375 37.375 30.90625 43.875 21.90625 43.875 
C 17.5 43.875 12.703125 43.078125 7.203125 39.890625 
L 7.796875 33.359375 
C 10.296875 35.125 14.59375 38 21.796875 38 
C 26.90625 38 30 34.0625 30 27.84375 
L 30 24 
C 14 24 4 19.34375 4 11.34375 
C 4 7.203125 6.5 -1 14.796875 -1 
C 16.296875 -1 24.40625 -1 30.203125 3.390625 
L 30.203125 -0.296875 
L 37.59375 -0.296875 
z
M 30 12.75 
C 30 10.953125 30 8.5625 27 6.78125 
C 24.40625 5.078125 21.09375 5.078125 19.703125 5.078125 
C 14.703125 5.078125 11.296875 7.984375 11.296875 11.625 
C 11.296875 18.921875 26.90625 18.921875 30 18.921875 
z
" id="CMSS17-97"/>
      <path d="M 15.296875 65.359375 
L 6.90625 65.359375 
L 6.90625 57 
L 15.296875 57 
z
M 14.796875 42.796875 
L 7.40625 42.796875 
L 7.40625 0 
L 14.796875 0 
z
" id="CMSS17-105"/>
      <path d="M 40.90625 29.328125 
C 40.90625 35.671875 39.40625 44 28.09375 44 
C 21.703125 44 17.5 40.71875 14.703125 37.328125 
L 14.703125 43.09375 
L 7.40625 43.09375 
L 7.40625 0 
L 15 0 
L 15 24.359375 
C 15 30.6875 17.40625 37.9375 24.203125 37.9375 
C 33 37.9375 33.296875 32 33.296875 28.578125 
L 33.296875 0 
L 40.90625 0 
z
" id="CMSS17-110"/>
      <path d="M 8.90625 69 
L 8.90625 0 
L 33.5 0 
C 49.90625 0 62.5 15.3125 62.5 33.90625 
C 62.5 53.09375 49.90625 69 33.5 69 
z
M 17.09375 5.578125 
L 17.09375 63.421875 
L 31.296875 63.421875 
C 44.703125 63.421875 54.296875 51.203125 54.296875 33.90625 
C 54.296875 17.296875 44.796875 5.578125 31.296875 5.578125 
z
" id="CMSS17-68"/>
      <path d="M 16.703125 37 
L 29.703125 37 
L 29.703125 42.765625 
L 16.703125 42.765625 
L 16.703125 55 
L 9.59375 55 
L 9.59375 42.765625 
L 1.703125 42.765625 
L 1.703125 37 
L 9.40625 37 
L 9.40625 11.703125 
C 9.40625 6 10.703125 -1 17.296875 -1 
C 22.296875 -1 26.90625 0.390625 31.296875 2.6875 
L 29.703125 8.5625 
C 27.296875 6.46875 24.40625 5.265625 21.296875 5.265625 
C 16.90625 5.265625 16.703125 10.875 16.703125 13.375 
z
" id="CMSS17-116"/>
     </defs>
     <g transform="translate(309.689782 271.764946)scale(0.144 -0.144)">
      <use transform="scale(0.996264)" xlink:href="#CMSS17-84"/>
      <use transform="translate(56.012199 0)scale(0.996264)" xlink:href="#CMSS17-114"/>
      <use transform="translate(87.921971 0)scale(0.996264)" xlink:href="#CMSS17-97"/>
      <use transform="translate(132.843892 0)scale(0.996264)" xlink:href="#CMSS17-105"/>
      <use transform="translate(155.024615 0)scale(0.996264)" xlink:href="#CMSS17-110"/>
      <use transform="translate(234.458671 0)scale(0.996264)" xlink:href="#CMSS17-68"/>
      <use transform="translate(302.001512 0)scale(0.996264)" xlink:href="#CMSS17-97"/>
      <use transform="translate(346.923433 0)scale(0.996264)" xlink:href="#CMSS17-116"/>
      <use transform="translate(380.755 0)scale(0.996264)" xlink:href="#CMSS17-97"/>
     </g>
    </g>
    <g id="line2d_19">
     <path d="M 269.369782 286.794473 
L 298.169782 286.794473 
" style="fill:none;stroke:#ff0000;stroke-linecap:square;stroke-width:1.5;"/>
    </g>
    <g id="line2d_20"/>
    <g id="text_19">
     <!-- Validation Data -->
     <defs>
      <path d="M 61.09375 69 
L 53.296875 69 
L 36 21.28125 
C 35.5 19.890625 32.40625 10.75 31.796875 7.5625 
L 31.703125 7.5625 
C 30.90625 11.34375 27.703125 20.1875 26 25.0625 
L 14.40625 57.375 
L 10.09375 69 
L 1.296875 69 
L 26.796875 0 
L 35.59375 0 
z
" id="CMSS17-86"/>
      <path d="M 14.796875 69 
L 7.40625 69 
L 7.40625 0 
L 14.796875 0 
z
" id="CMSS17-108"/>
      <path d="M 40.796875 69 
L 33.40625 69 
L 33.40625 38.09375 
C 30.296875 40.671875 25.203125 43.0625 19.59375 43.0625 
C 10.5 43.0625 3.296875 33.296875 3.296875 21.046875 
C 3.296875 8.78125 10.40625 -1 19.296875 -1 
C 26.203125 -1 30.796875 2.6875 33.203125 4.78125 
L 33.203125 -0.203125 
L 40.796875 -0.203125 
z
M 33.203125 13.0625 
C 33.203125 11.671875 33.203125 10.203125 30.09375 7.53125 
C 28.09375 5.859375 25.703125 5.078125 23.40625 5.078125 
C 18 5.078125 10.90625 9 10.90625 20.9375 
C 10.90625 33.34375 18.90625 37 24.40625 37 
C 28.09375 37 31.09375 35.21875 33.203125 32.265625 
z
" id="CMSS17-100"/>
     </defs>
     <g transform="translate(309.689782 291.834473)scale(0.144 -0.144)">
      <use transform="scale(0.996264)" xlink:href="#CMSS17-86"/>
      <use transform="translate(59.615401 0)scale(0.996264)" xlink:href="#CMSS17-97"/>
      <use transform="translate(104.537322 0)scale(0.996264)" xlink:href="#CMSS17-108"/>
      <use transform="translate(126.718045 0)scale(0.996264)" xlink:href="#CMSS17-105"/>
      <use transform="translate(148.898768 0)scale(0.996264)" xlink:href="#CMSS17-100"/>
      <use transform="translate(197.103711 0)scale(0.996264)" xlink:href="#CMSS17-97"/>
      <use transform="translate(242.025631 0)scale(0.996264)" xlink:href="#CMSS17-116"/>
      <use transform="translate(275.857198 0)scale(0.996264)" xlink:href="#CMSS17-105"/>
      <use transform="translate(298.037921 0)scale(0.996264)" xlink:href="#CMSS17-111"/>
      <use transform="translate(344.881545 0)scale(0.996264)" xlink:href="#CMSS17-110"/>
      <use transform="translate(424.315601 0)scale(0.996264)" xlink:href="#CMSS17-68"/>
      <use transform="translate(491.858442 0)scale(0.996264)" xlink:href="#CMSS17-97"/>
      <use transform="translate(536.780363 0)scale(0.996264)" xlink:href="#CMSS17-116"/>
      <use transform="translate(570.61193 0)scale(0.996264)" xlink:href="#CMSS17-97"/>
     </g>
    </g>
   </g>
  </g>
 </g>
 <defs>
  <clipPath id="ped4b8561bf">
   <rect height="266.112" width="357.12" x="57.6" y="41.472"/>
  </clipPath>
 </defs>
</svg>
