<?xml version="1.0" encoding="utf-8" standalone="no"?>
<!DOCTYPE svg PUBLIC "-//W3C//DTD SVG 1.1//EN"
  "http://www.w3.org/Graphics/SVG/1.1/DTD/svg11.dtd">
<!-- Created with matplotlib (https://matplotlib.org/) -->
<svg height="345.6pt" version="1.1" viewBox="0 0 460.8 345.6" width="460.8pt" xmlns="http://www.w3.org/2000/svg" xmlns:xlink="http://www.w3.org/1999/xlink">
 <defs>
  <style type="text/css">
*{stroke-linecap:butt;stroke-linejoin:round;}
  </style>
 </defs>
 <g id="figure_1">
  <g id="patch_1">
   <path d="M 0 345.6 
L 460.8 345.6 
L 460.8 0 
L 0 0 
z
" style="fill:#ffffff;"/>
  </g>
  <g id="axes_1">
   <g id="patch_2">
    <path d="M 57.6 307.584 
L 414.72 307.584 
L 414.72 41.472 
L 57.6 41.472 
z
" style="fill:#ffffff;"/>
   </g>
   <g id="matplotlib.axis_1">
    <g id="xtick_1">
     <g id="line2d_1">
      <defs>
       <path d="M 0 0 
L 0 3.5 
" id="m4b33c6f768" style="stroke:#000000;stroke-width:0.8;"/>
      </defs>
      <g>
       <use style="stroke:#000000;stroke-width:0.8;" x="72.746926" xlink:href="#m4b33c6f768" y="307.584"/>
      </g>
     </g>
     <g id="text_1">
      <!-- $0$ -->
      <defs>
       <path d="M 42 31.640625 
C 42 37.75 41.90625 48.125 37.703125 56.109375 
C 34 63.109375 28.09375 65.59375 22.90625 65.59375 
C 18.09375 65.59375 12 63.40625 8.203125 56.203125 
C 4.203125 48.71875 3.796875 39.4375 3.796875 31.640625 
C 3.796875 25.953125 3.90625 17.28125 7 9.671875 
C 11.296875 -0.609375 19 -2 22.90625 -2 
C 27.5 -2 34.5 -0.109375 38.59375 9.375 
C 41.59375 16.28125 42 24.359375 42 31.640625 
z
M 22.90625 -0.40625 
C 16.5 -0.40625 12.703125 5.078125 11.296875 12.6875 
C 10.203125 18.5625 10.203125 27.15625 10.203125 32.75 
C 10.203125 40.4375 10.203125 46.828125 11.5 52.921875 
C 13.40625 61.390625 19 64 22.90625 64 
C 27 64 32.296875 61.296875 34.203125 53.125 
C 35.5 47.4375 35.59375 40.734375 35.59375 32.75 
C 35.59375 26.25 35.59375 18.265625 34.40625 12.375 
C 32.296875 1.484375 26.40625 -0.40625 22.90625 -0.40625 
z
" id="CMR17-48"/>
      </defs>
      <g transform="translate(70.256258 321.502498)scale(0.1 -0.1)">
       <use transform="scale(0.996264)" xlink:href="#CMR17-48"/>
      </g>
     </g>
    </g>
    <g id="xtick_2">
     <g id="line2d_2">
      <g>
       <use style="stroke:#000000;stroke-width:0.8;" x="127.036984" xlink:href="#m4b33c6f768" y="307.584"/>
      </g>
     </g>
     <g id="text_2">
      <!-- $50$ -->
      <defs>
       <path d="M 11.40625 57.6875 
C 12.40625 57.28125 16.5 56 20.703125 56 
C 30 56 35.09375 61.109375 38 64.0625 
C 38 64.953125 38 65.5 37.40625 65.5 
C 37.296875 65.5 37.09375 65.5 36.296875 65.046875 
C 32.796875 63.40625 28.703125 62.078125 23.703125 62.078125 
C 20.703125 62.078125 16.203125 62.484375 11.296875 64.671875 
C 10.203125 65.171875 10 65.171875 9.90625 65.171875 
C 9.40625 65.171875 9.296875 65.0625 9.296875 63.078125 
L 9.296875 34.421875 
C 9.296875 32.640625 9.296875 32.140625 10.296875 32.140625 
C 10.796875 32.140625 11 32.34375 11.5 33.03125 
C 14.703125 37.515625 19.09375 39.40625 24.09375 39.40625 
C 27.59375 39.40625 35.09375 37.21875 35.09375 20.140625 
C 35.09375 16.953125 35.09375 11.171875 32.09375 6.578125 
C 29.59375 2.484375 25.703125 0.390625 21.40625 0.390625 
C 14.796875 0.390625 8.09375 5 6.296875 12.71875 
C 6.703125 12.609375 7.5 12.421875 7.90625 12.421875 
C 9.203125 12.421875 11.703125 13.125 11.703125 16.21875 
C 11.703125 18.90625 9.796875 20 7.90625 20 
C 5.59375 20 4.09375 18.59375 4.09375 15.796875 
C 4.09375 7.09375 11 -2 21.59375 -2 
C 31.90625 -2 41.703125 6.875 41.703125 19.75 
C 41.703125 31.71875 33.90625 41 24.203125 41 
C 19.09375 41 14.796875 39.109375 11.40625 35.53125 
z
" id="CMR17-53"/>
      </defs>
      <g transform="translate(122.055649 321.502498)scale(0.1 -0.1)">
       <use transform="scale(0.996264)" xlink:href="#CMR17-53"/>
       <use transform="translate(45.690477 0)scale(0.996264)" xlink:href="#CMR17-48"/>
      </g>
     </g>
    </g>
    <g id="xtick_3">
     <g id="line2d_3">
      <g>
       <use style="stroke:#000000;stroke-width:0.8;" x="181.327042" xlink:href="#m4b33c6f768" y="307.584"/>
      </g>
     </g>
     <g id="text_3">
      <!-- $100$ -->
      <defs>
       <path d="M 26.59375 63.40625 
C 26.59375 65.5 26.5 65.5 25.09375 65.5 
C 21.203125 61.1875 15.296875 59.796875 9.703125 59.796875 
C 9.40625 59.796875 8.90625 59.796875 8.796875 59.5 
C 8.703125 59.296875 8.703125 59.09375 8.703125 57 
C 11.796875 57 17 57.59375 21 59.984375 
L 21 7.203125 
C 21 3.6875 20.796875 2.5 12.203125 2.5 
L 9.203125 2.5 
L 9.203125 0 
C 14 0 19 0 23.796875 0 
C 28.59375 0 33.59375 0 38.40625 0 
L 38.40625 2.5 
L 35.40625 2.5 
C 26.796875 2.5 26.59375 3.59375 26.59375 7.15625 
z
" id="CMR17-49"/>
      </defs>
      <g transform="translate(173.855039 321.502498)scale(0.1 -0.1)">
       <use transform="scale(0.996264)" xlink:href="#CMR17-49"/>
       <use transform="translate(45.690477 0)scale(0.996264)" xlink:href="#CMR17-48"/>
       <use transform="translate(91.380954 0)scale(0.996264)" xlink:href="#CMR17-48"/>
      </g>
     </g>
    </g>
    <g id="xtick_4">
     <g id="line2d_4">
      <g>
       <use style="stroke:#000000;stroke-width:0.8;" x="235.617099" xlink:href="#m4b33c6f768" y="307.584"/>
      </g>
     </g>
     <g id="text_4">
      <!-- $150$ -->
      <g transform="translate(228.145097 321.502498)scale(0.1 -0.1)">
       <use transform="scale(0.996264)" xlink:href="#CMR17-49"/>
       <use transform="translate(45.690477 0)scale(0.996264)" xlink:href="#CMR17-53"/>
       <use transform="translate(91.380954 0)scale(0.996264)" xlink:href="#CMR17-48"/>
      </g>
     </g>
    </g>
    <g id="xtick_5">
     <g id="line2d_5">
      <g>
       <use style="stroke:#000000;stroke-width:0.8;" x="289.907157" xlink:href="#m4b33c6f768" y="307.584"/>
      </g>
     </g>
     <g id="text_5">
      <!-- $200$ -->
      <defs>
       <path d="M 41.703125 15.453125 
L 39.90625 15.453125 
C 38.90625 8.375 38.09375 7.171875 37.703125 6.5625 
C 37.203125 5.765625 30 5.765625 28.59375 5.765625 
L 9.40625 5.765625 
C 13 9.671875 20 16.75 28.5 24.953125 
C 34.59375 30.734375 41.703125 37.53125 41.703125 47.421875 
C 41.703125 59.21875 32.296875 66 21.796875 66 
C 10.796875 66 4.09375 56.3125 4.09375 47.34375 
C 4.09375 43.4375 7 42.9375 8.203125 42.9375 
C 9.203125 42.9375 12.203125 43.546875 12.203125 47.03125 
C 12.203125 50.109375 9.59375 51 8.203125 51 
C 7.59375 51 7 50.90625 6.59375 50.703125 
C 8.5 59.21875 14.296875 63.40625 20.40625 63.40625 
C 29.09375 63.40625 34.796875 56.515625 34.796875 47.421875 
C 34.796875 38.734375 29.703125 31.25 24 24.75 
L 4.09375 2.28125 
L 4.09375 0 
L 39.296875 0 
z
" id="CMR17-50"/>
      </defs>
      <g transform="translate(282.435154 321.502498)scale(0.1 -0.1)">
       <use transform="scale(0.996264)" xlink:href="#CMR17-50"/>
       <use transform="translate(45.690477 0)scale(0.996264)" xlink:href="#CMR17-48"/>
       <use transform="translate(91.380954 0)scale(0.996264)" xlink:href="#CMR17-48"/>
      </g>
     </g>
    </g>
    <g id="xtick_6">
     <g id="line2d_6">
      <g>
       <use style="stroke:#000000;stroke-width:0.8;" x="344.197215" xlink:href="#m4b33c6f768" y="307.584"/>
      </g>
     </g>
     <g id="text_6">
      <!-- $250$ -->
      <g transform="translate(336.725212 321.502498)scale(0.1 -0.1)">
       <use transform="scale(0.996264)" xlink:href="#CMR17-50"/>
       <use transform="translate(45.690477 0)scale(0.996264)" xlink:href="#CMR17-53"/>
       <use transform="translate(91.380954 0)scale(0.996264)" xlink:href="#CMR17-48"/>
      </g>
     </g>
    </g>
    <g id="xtick_7">
     <g id="line2d_7">
      <g>
       <use style="stroke:#000000;stroke-width:0.8;" x="398.487273" xlink:href="#m4b33c6f768" y="307.584"/>
      </g>
     </g>
     <g id="text_7">
      <!-- $300$ -->
      <defs>
       <path d="M 22.09375 33.703125 
C 31 33.703125 34.90625 25.96875 34.90625 17.03125 
C 34.90625 5 28.5 0.390625 22.703125 0.390625 
C 17.40625 0.390625 8.796875 3.03125 6.09375 10.828125 
C 6.59375 10.625 7.09375 10.625 7.59375 10.625 
C 10 10.625 11.796875 12.21875 11.796875 14.8125 
C 11.796875 17.703125 9.59375 19 7.59375 19 
C 5.90625 19 3.296875 18.203125 3.296875 14.46875 
C 3.296875 5.234375 12.296875 -2 22.90625 -2 
C 34 -2 42.5 6.71875 42.5 16.953125 
C 42.5 26.671875 34.5 33.703125 25 34.796875 
C 32.59375 36.375 39.90625 43.0625 39.90625 52.015625 
C 39.90625 59.6875 32 65.296875 23 65.296875 
C 13.90625 65.296875 5.90625 59.828125 5.90625 52.015625 
C 5.90625 48.59375 8.5 48 9.796875 48 
C 11.90625 48 13.703125 49.296875 13.703125 51.890625 
C 13.703125 54.46875 11.90625 55.765625 9.796875 55.765625 
C 9.40625 55.765625 8.90625 55.765625 8.5 55.578125 
C 11.40625 61.859375 19.296875 63 22.796875 63 
C 26.296875 63 32.90625 61.328125 32.90625 51.875 
C 32.90625 49.109375 32.5 44.1875 29.09375 39.84375 
C 26.09375 36 22.703125 36 19.40625 35.6875 
C 18.90625 35.6875 16.59375 35.453125 16.203125 35.453125 
C 15.5 35.359375 15.09375 35.265625 15.09375 34.5 
C 15.09375 33.796875 15.203125 33.703125 17.203125 33.703125 
z
" id="CMR17-51"/>
      </defs>
      <g transform="translate(391.01527 321.502498)scale(0.1 -0.1)">
       <use transform="scale(0.996264)" xlink:href="#CMR17-51"/>
       <use transform="translate(45.690477 0)scale(0.996264)" xlink:href="#CMR17-48"/>
       <use transform="translate(91.380954 0)scale(0.996264)" xlink:href="#CMR17-48"/>
      </g>
     </g>
    </g>
    <g id="text_8">
     <!-- Epoch -->
     <defs>
      <path d="M 30.59375 6.765625 
C 22.59375 6.765625 19 6.765625 17.203125 6.765625 
L 17.203125 32.921875 
L 48.203125 32.921875 
L 48.203125 39 
L 17.203125 39 
L 17.203125 62.640625 
L 30.09375 62.640625 
C 31.296875 62.640625 32.5 62.640625 33.703125 62.640625 
L 50.796875 62.640625 
L 50.796875 69 
L 8.796875 69 
L 8.796875 0 
L 52.09375 0 
L 52.09375 6.765625 
z
" id="CMSS17-69"/>
      <path d="M 15.09375 5.203125 
C 18.40625 2.015625 22.90625 -0.078125 27.703125 -0.078125 
C 37 -0.078125 45 9.421875 45 22.0625 
C 45 33.734375 39 44 30.40625 44 
C 25.40625 44 19.40625 42.21875 14.90625 38.625 
L 14.90625 43.203125 
L 7.5 43.203125 
L 7.5 -19 
L 15.09375 -19 
z
M 15.09375 32.8125 
C 15.90625 34 19.296875 37.734375 24.796875 37.734375 
C 31.796875 37.734375 37.40625 30.625 37.40625 22.0625 
C 37.40625 12.296875 30.59375 6 23.90625 6 
C 21.90625 6 19.796875 6.484375 17.796875 8.171875 
C 15.09375 10.53125 15.09375 12 15.09375 13.390625 
z
" id="CMSS17-112"/>
      <path d="M 44.203125 21.1875 
C 44.203125 34 34.703125 44 23.5 44 
C 12 44 2.703125 33.703125 2.703125 21.1875 
C 2.703125 8.5 12.296875 -1 23.40625 -1 
C 34.796875 -1 44.203125 8.796875 44.203125 21.1875 
z
M 23.5 5.265625 
C 16.40625 5.265625 10.296875 11.078125 10.296875 22 
C 10.296875 33.609375 17.40625 37.921875 23.40625 37.921875 
C 29.90625 37.921875 36.59375 33.21875 36.59375 22 
C 36.59375 10.671875 30.09375 5.265625 23.5 5.265625 
z
" id="CMSS17-111"/>
      <path d="M 38.5 39.703125 
C 38.5 40.390625 33.90625 42.40625 32.703125 42.796875 
C 29.40625 44 25.203125 44 24.09375 44 
C 11.09375 44 3.296875 32.703125 3.296875 21.296875 
C 3.296875 9.296875 12 -1 23.703125 -1 
C 30.40625 -1 35.203125 1.1875 39.09375 3.78125 
L 38.5 10.375 
C 34.203125 7.078125 29.203125 5.265625 23.796875 5.265625 
C 16 5.265625 10.90625 12.09375 10.90625 21.390625 
C 10.90625 28.609375 14.203125 37.71875 24.203125 37.71875 
C 29.703125 37.71875 32.796875 36.609375 37.40625 33.515625 
z
" id="CMSS17-99"/>
      <path d="M 40.90625 29.546875 
C 40.90625 35.8125 39.40625 44.0625 28.09375 44.0625 
C 21.796875 44.0625 17.703125 40.984375 14.796875 37.609375 
L 14.796875 69.5 
L 7.40625 69.5 
L 7.40625 0.5 
L 15 0.5 
L 15 24.578125 
C 15 30.828125 17.40625 38 24.203125 38 
C 33 38 33.296875 32.125 33.296875 28.734375 
L 33.296875 0.5 
L 40.90625 0.5 
z
" id="CMSS17-104"/>
     </defs>
     <g transform="translate(223.056337 334.358175)scale(0.1 -0.1)">
      <use transform="scale(0.996264)" xlink:href="#CMSS17-69"/>
      <use transform="translate(55.892013 0)scale(0.996264)" xlink:href="#CMSS17-112"/>
      <use transform="translate(106.699395 0)scale(0.996264)" xlink:href="#CMSS17-111"/>
      <use transform="translate(156.145457 0)scale(0.996264)" xlink:href="#CMSS17-99"/>
      <use transform="translate(197.784279 0)scale(0.996264)" xlink:href="#CMSS17-104"/>
     </g>
    </g>
   </g>
   <g id="matplotlib.axis_2">
    <g id="ytick_1">
     <g id="line2d_8">
      <defs>
       <path d="M 0 0 
L -3.5 0 
" id="mb5c6387c2a" style="stroke:#000000;stroke-width:0.8;"/>
      </defs>
      <g>
       <use style="stroke:#000000;stroke-width:0.8;" x="57.6" xlink:href="#mb5c6387c2a" y="289.525479"/>
      </g>
     </g>
     <g id="text_9">
      <!-- $0.0005$ -->
      <defs>
       <path d="M 18.40625 4.796875 
C 18.40625 7.6875 16 9.671875 13.59375 9.671875 
C 10.703125 9.671875 8.703125 7.28125 8.703125 4.890625 
C 8.703125 2 11.09375 0 13.5 0 
C 16.40625 0 18.40625 2.390625 18.40625 4.796875 
z
" id="CMMI12-58"/>
      </defs>
      <g transform="translate(22.925915 292.984728)scale(0.1 -0.1)">
       <use transform="scale(0.996264)" xlink:href="#CMR17-48"/>
       <use transform="translate(45.690477 0)scale(0.996264)" xlink:href="#CMMI12-58"/>
       <use transform="translate(72.787654 0)scale(0.996264)" xlink:href="#CMR17-48"/>
       <use transform="translate(118.478131 0)scale(0.996264)" xlink:href="#CMR17-48"/>
       <use transform="translate(164.168608 0)scale(0.996264)" xlink:href="#CMR17-48"/>
       <use transform="translate(209.859086 0)scale(0.996264)" xlink:href="#CMR17-53"/>
      </g>
     </g>
    </g>
    <g id="ytick_2">
     <g id="line2d_9">
      <g>
       <use style="stroke:#000000;stroke-width:0.8;" x="57.6" xlink:href="#mb5c6387c2a" y="258.666037"/>
      </g>
     </g>
     <g id="text_10">
      <!-- $0.0010$ -->
      <g transform="translate(22.925915 262.125286)scale(0.1 -0.1)">
       <use transform="scale(0.996264)" xlink:href="#CMR17-48"/>
       <use transform="translate(45.690477 0)scale(0.996264)" xlink:href="#CMMI12-58"/>
       <use transform="translate(72.787654 0)scale(0.996264)" xlink:href="#CMR17-48"/>
       <use transform="translate(118.478131 0)scale(0.996264)" xlink:href="#CMR17-48"/>
       <use transform="translate(164.168608 0)scale(0.996264)" xlink:href="#CMR17-49"/>
       <use transform="translate(209.859086 0)scale(0.996264)" xlink:href="#CMR17-48"/>
      </g>
     </g>
    </g>
    <g id="ytick_3">
     <g id="line2d_10">
      <g>
       <use style="stroke:#000000;stroke-width:0.8;" x="57.6" xlink:href="#mb5c6387c2a" y="227.806595"/>
      </g>
     </g>
     <g id="text_11">
      <!-- $0.0015$ -->
      <g transform="translate(22.925915 231.265844)scale(0.1 -0.1)">
       <use transform="scale(0.996264)" xlink:href="#CMR17-48"/>
       <use transform="translate(45.690477 0)scale(0.996264)" xlink:href="#CMMI12-58"/>
       <use transform="translate(72.787654 0)scale(0.996264)" xlink:href="#CMR17-48"/>
       <use transform="translate(118.478131 0)scale(0.996264)" xlink:href="#CMR17-48"/>
       <use transform="translate(164.168608 0)scale(0.996264)" xlink:href="#CMR17-49"/>
       <use transform="translate(209.859086 0)scale(0.996264)" xlink:href="#CMR17-53"/>
      </g>
     </g>
    </g>
    <g id="ytick_4">
     <g id="line2d_11">
      <g>
       <use style="stroke:#000000;stroke-width:0.8;" x="57.6" xlink:href="#mb5c6387c2a" y="196.947153"/>
      </g>
     </g>
     <g id="text_12">
      <!-- $0.0020$ -->
      <g transform="translate(22.925915 200.406402)scale(0.1 -0.1)">
       <use transform="scale(0.996264)" xlink:href="#CMR17-48"/>
       <use transform="translate(45.690477 0)scale(0.996264)" xlink:href="#CMMI12-58"/>
       <use transform="translate(72.787654 0)scale(0.996264)" xlink:href="#CMR17-48"/>
       <use transform="translate(118.478131 0)scale(0.996264)" xlink:href="#CMR17-48"/>
       <use transform="translate(164.168608 0)scale(0.996264)" xlink:href="#CMR17-50"/>
       <use transform="translate(209.859086 0)scale(0.996264)" xlink:href="#CMR17-48"/>
      </g>
     </g>
    </g>
    <g id="ytick_5">
     <g id="line2d_12">
      <g>
       <use style="stroke:#000000;stroke-width:0.8;" x="57.6" xlink:href="#mb5c6387c2a" y="166.087711"/>
      </g>
     </g>
     <g id="text_13">
      <!-- $0.0025$ -->
      <g transform="translate(22.925915 169.54696)scale(0.1 -0.1)">
       <use transform="scale(0.996264)" xlink:href="#CMR17-48"/>
       <use transform="translate(45.690477 0)scale(0.996264)" xlink:href="#CMMI12-58"/>
       <use transform="translate(72.787654 0)scale(0.996264)" xlink:href="#CMR17-48"/>
       <use transform="translate(118.478131 0)scale(0.996264)" xlink:href="#CMR17-48"/>
       <use transform="translate(164.168608 0)scale(0.996264)" xlink:href="#CMR17-50"/>
       <use transform="translate(209.859086 0)scale(0.996264)" xlink:href="#CMR17-53"/>
      </g>
     </g>
    </g>
    <g id="ytick_6">
     <g id="line2d_13">
      <g>
       <use style="stroke:#000000;stroke-width:0.8;" x="57.6" xlink:href="#mb5c6387c2a" y="135.228268"/>
      </g>
     </g>
     <g id="text_14">
      <!-- $0.0030$ -->
      <g transform="translate(22.925915 138.687518)scale(0.1 -0.1)">
       <use transform="scale(0.996264)" xlink:href="#CMR17-48"/>
       <use transform="translate(45.690477 0)scale(0.996264)" xlink:href="#CMMI12-58"/>
       <use transform="translate(72.787654 0)scale(0.996264)" xlink:href="#CMR17-48"/>
       <use transform="translate(118.478131 0)scale(0.996264)" xlink:href="#CMR17-48"/>
       <use transform="translate(164.168608 0)scale(0.996264)" xlink:href="#CMR17-51"/>
       <use transform="translate(209.859086 0)scale(0.996264)" xlink:href="#CMR17-48"/>
      </g>
     </g>
    </g>
    <g id="ytick_7">
     <g id="line2d_14">
      <g>
       <use style="stroke:#000000;stroke-width:0.8;" x="57.6" xlink:href="#mb5c6387c2a" y="104.368826"/>
      </g>
     </g>
     <g id="text_15">
      <!-- $0.0035$ -->
      <g transform="translate(22.925915 107.828075)scale(0.1 -0.1)">
       <use transform="scale(0.996264)" xlink:href="#CMR17-48"/>
       <use transform="translate(45.690477 0)scale(0.996264)" xlink:href="#CMMI12-58"/>
       <use transform="translate(72.787654 0)scale(0.996264)" xlink:href="#CMR17-48"/>
       <use transform="translate(118.478131 0)scale(0.996264)" xlink:href="#CMR17-48"/>
       <use transform="translate(164.168608 0)scale(0.996264)" xlink:href="#CMR17-51"/>
       <use transform="translate(209.859086 0)scale(0.996264)" xlink:href="#CMR17-53"/>
      </g>
     </g>
    </g>
    <g id="ytick_8">
     <g id="line2d_15">
      <g>
       <use style="stroke:#000000;stroke-width:0.8;" x="57.6" xlink:href="#mb5c6387c2a" y="73.509384"/>
      </g>
     </g>
     <g id="text_16">
      <!-- $0.0040$ -->
      <defs>
       <path d="M 33.59375 64.40625 
C 33.59375 66.5 33.5 66.5 31.703125 66.5 
L 2 19.59375 
L 2 17 
L 27.796875 17 
L 27.796875 7.140625 
C 27.796875 3.5 27.59375 2.5 20.59375 2.5 
L 18.703125 2.5 
L 18.703125 0 
C 21.90625 0 27.296875 0 30.703125 0 
C 34.09375 0 39.5 0 42.703125 0 
L 42.703125 2.5 
L 40.796875 2.5 
C 33.796875 2.5 33.59375 3.5 33.59375 7.140625 
L 33.59375 17 
L 43.796875 17 
L 43.796875 19.59375 
L 33.59375 19.59375 
z
M 28.09375 57.859375 
L 28.09375 19.59375 
L 4 19.59375 
z
" id="CMR17-52"/>
      </defs>
      <g transform="translate(22.925915 76.968633)scale(0.1 -0.1)">
       <use transform="scale(0.996264)" xlink:href="#CMR17-48"/>
       <use transform="translate(45.690477 0)scale(0.996264)" xlink:href="#CMMI12-58"/>
       <use transform="translate(72.787654 0)scale(0.996264)" xlink:href="#CMR17-48"/>
       <use transform="translate(118.478131 0)scale(0.996264)" xlink:href="#CMR17-48"/>
       <use transform="translate(164.168608 0)scale(0.996264)" xlink:href="#CMR17-52"/>
       <use transform="translate(209.859086 0)scale(0.996264)" xlink:href="#CMR17-48"/>
      </g>
     </g>
    </g>
    <g id="ytick_9">
     <g id="line2d_16">
      <g>
       <use style="stroke:#000000;stroke-width:0.8;" x="57.6" xlink:href="#mb5c6387c2a" y="42.649942"/>
      </g>
     </g>
     <g id="text_17">
      <!-- $0.0045$ -->
      <g transform="translate(22.925915 46.109191)scale(0.1 -0.1)">
       <use transform="scale(0.996264)" xlink:href="#CMR17-48"/>
       <use transform="translate(45.690477 0)scale(0.996264)" xlink:href="#CMMI12-58"/>
       <use transform="translate(72.787654 0)scale(0.996264)" xlink:href="#CMR17-48"/>
       <use transform="translate(118.478131 0)scale(0.996264)" xlink:href="#CMR17-48"/>
       <use transform="translate(164.168608 0)scale(0.996264)" xlink:href="#CMR17-52"/>
       <use transform="translate(209.859086 0)scale(0.996264)" xlink:href="#CMR17-53"/>
      </g>
     </g>
    </g>
    <g id="text_18">
     <!-- MSE -->
     <defs>
      <path d="M 49.90625 37.046875 
L 45.09375 23.015625 
C 44.296875 20.421875 41.59375 12.359375 41 9.171875 
L 40.90625 9.171875 
C 40.59375 11.171875 40 13.265625 38.40625 18.34375 
C 37.5 21.328125 36.5 24.40625 35.5 27.203125 
L 20.703125 69 
L 9 69 
L 9 0 
L 16.796875 0 
L 16.796875 60.9375 
L 16.90625 60.9375 
C 16.90625 60.84375 17.796875 56.453125 23.90625 39.046875 
L 37.09375 1.5 
L 44.5 1.5 
L 56.40625 34.859375 
C 57.203125 37.15625 59.703125 44.421875 60.796875 47.90625 
C 61.796875 50.890625 64.296875 58.25 64.90625 61.140625 
L 65 61.140625 
L 65 0 
L 72.90625 0 
L 72.90625 69 
L 61.296875 69 
z
" id="CMSS17-77"/>
      <path d="M 43.703125 65.140625 
C 39.296875 67.71875 34.5 70 26.40625 70 
C 13.5 70 5.203125 60.609375 5.203125 51.03125 
C 5.203125 47.265625 6.296875 43.015625 10.203125 38.671875 
C 14.09375 34.3125 18.5 33.140625 24.09375 31.765625 
C 26.40625 31.15625 30.296875 30.0625 31 29.78125 
C 36.59375 27.609375 39.296875 22.5625 39.296875 17.8125 
C 39.296875 11.59375 34.40625 4.96875 25.703125 4.96875 
C 22.703125 4.96875 13.90625 4.96875 5.59375 12.796875 
L 4.203125 4.96875 
C 12.40625 -1 21.296875 -2 25.796875 -2 
C 38.09375 -2 46.90625 7.625 46.90625 18.53125 
C 46.90625 22.5 45.703125 27.546875 41.5 32.203125 
C 37.40625 36.671875 33.796875 37.65625 25.59375 39.828125 
C 20.90625 41.03125 17.90625 41.828125 15.40625 44.890625 
C 13.703125 47.078125 12.796875 49.15625 12.796875 51.828125 
C 12.796875 57.390625 17.59375 63.4375 26.40625 63.4375 
C 30.796875 63.4375 36.5 62.53125 42.296875 57.1875 
z
" id="CMSS17-83"/>
     </defs>
     <g transform="translate(16.988737 184.629045)rotate(-90)scale(0.1 -0.1)">
      <use transform="scale(0.996264)" xlink:href="#CMSS17-77"/>
      <use transform="translate(81.67603 0)scale(0.996264)" xlink:href="#CMSS17-83"/>
      <use transform="translate(133.724546 0)scale(0.996264)" xlink:href="#CMSS17-69"/>
     </g>
    </g>
   </g>
   <g id="line2d_17">
    <path clip-path="url(#p14e3586b45)" d="M 73.832727 53.568 
L 74.918528 170.989567 
L 76.00433 188.413911 
L 77.090131 209.904065 
L 78.175932 221.369998 
L 79.261733 223.088756 
L 80.347534 238.451156 
L 81.433335 242.055049 
L 82.519137 220.036357 
L 83.604938 223.589459 
L 84.690739 245.917129 
L 85.77654 245.60379 
L 86.862341 243.955359 
L 87.948142 252.931106 
L 89.033943 256.325785 
L 90.119745 245.302184 
L 91.205546 238.11221 
L 92.291347 247.857782 
L 93.377148 234.770808 
L 94.462949 246.311774 
L 95.54875 260.520111 
L 96.634552 251.454785 
L 97.720353 257.026749 
L 98.806154 252.735364 
L 100.977756 263.898865 
L 102.063557 256.131014 
L 103.149358 259.854509 
L 104.23516 259.310681 
L 105.320961 260.092584 
L 106.406762 260.575598 
L 107.492563 263.046894 
L 108.578364 249.612552 
L 109.664165 268.358699 
L 110.749967 264.820168 
L 111.835768 269.919531 
L 112.921569 259.609097 
L 114.00737 263.094074 
L 115.093171 260.626694 
L 116.178972 261.065164 
L 117.264773 243.128061 
L 118.350575 267.830144 
L 119.436376 268.864683 
L 120.522177 267.74009 
L 121.607978 270.719727 
L 122.693779 274.347298 
L 123.77958 261.877014 
L 124.865382 270.663576 
L 125.951183 256.878766 
L 127.036984 262.246547 
L 128.122785 268.543663 
L 129.208586 270.581602 
L 130.294387 267.249975 
L 131.380189 265.722011 
L 132.46599 272.561622 
L 133.551791 264.982985 
L 134.637592 261.555168 
L 135.723393 263.452057 
L 136.809194 275.155067 
L 137.894995 274.065871 
L 138.980797 273.987432 
L 140.066598 272.768461 
L 141.152399 272.270783 
L 142.2382 252.297638 
L 143.324001 272.292187 
L 144.409802 274.32311 
L 145.495604 264.920004 
L 146.581405 278.290647 
L 147.667206 276.867226 
L 148.753007 279.425752 
L 149.838808 270.41857 
L 150.924609 274.724551 
L 152.01041 271.854458 
L 153.096212 276.84496 
L 154.182013 276.710995 
L 155.267814 275.600395 
L 156.353615 273.563329 
L 157.439416 279.968825 
L 158.525217 279.555445 
L 159.611019 267.308791 
L 160.69682 278.605513 
L 161.782621 220.998705 
L 162.868422 280.793798 
L 163.954223 272.745436 
L 165.040024 277.935607 
L 166.125825 277.854804 
L 167.211627 276.966469 
L 168.297428 277.59509 
L 169.383229 275.998722 
L 170.46903 278.786683 
L 171.554831 282.575641 
L 172.640632 284.186922 
L 173.726434 274.578023 
L 174.812235 278.005071 
L 175.898036 282.589476 
L 176.983837 283.767719 
L 178.069638 277.659508 
L 179.155439 276.6583 
L 180.24124 282.710924 
L 181.327042 278.244541 
L 182.412843 277.853665 
L 183.498644 283.146204 
L 184.584445 281.854293 
L 185.670246 283.412941 
L 186.756047 280.409123 
L 187.841849 278.627463 
L 188.92765 280.275557 
L 190.013451 281.153499 
L 191.099252 276.758208 
L 192.185053 287.194336 
L 193.270854 282.795805 
L 194.356656 281.036677 
L 195.442457 283.358988 
L 196.528258 272.091589 
L 197.614059 278.328821 
L 198.69986 285.693015 
L 199.785661 278.994029 
L 200.871462 282.175963 
L 203.043065 283.799172 
L 204.128866 276.539826 
L 205.214667 285.422462 
L 206.300468 284.134073 
L 207.386269 273.638675 
L 208.472071 274.335292 
L 209.557872 285.913236 
L 210.643673 282.252157 
L 211.729474 287.644679 
L 213.901076 282.152957 
L 214.986877 286.550558 
L 216.072679 284.213586 
L 217.15848 281.60581 
L 218.244281 279.60823 
L 219.330082 280.057711 
L 220.415883 285.396323 
L 221.501684 285.398317 
L 222.587486 280.754191 
L 223.673287 279.871723 
L 224.759088 288.709169 
L 225.844889 282.253436 
L 226.93069 284.702958 
L 228.016491 280.349412 
L 229.102292 281.532911 
L 230.188094 279.51545 
L 231.273895 273.874976 
L 232.359696 285.588825 
L 233.445497 283.396875 
L 234.531298 283.688422 
L 235.617099 267.133236 
L 236.702901 280.932254 
L 237.788702 286.630398 
L 238.874503 290.481179 
L 239.960304 282.427177 
L 241.046105 280.747627 
L 242.131906 287.49596 
L 243.217708 288.067061 
L 244.303509 286.677934 
L 245.38931 284.852945 
L 246.475111 286.912856 
L 247.560912 287.914976 
L 248.646713 289.887578 
L 249.732514 283.463293 
L 250.818316 290.351101 
L 251.904117 283.519918 
L 252.989918 287.033729 
L 254.075719 287.647689 
L 255.16152 287.722284 
L 256.247321 280.279466 
L 258.418924 289.311971 
L 259.504725 288.192178 
L 260.590526 286.090598 
L 261.676327 285.515588 
L 262.762128 285.625777 
L 263.847929 283.876324 
L 264.933731 286.908645 
L 266.019532 284.251756 
L 267.105333 278.2886 
L 268.191134 276.899871 
L 269.276935 285.857997 
L 270.362736 286.330581 
L 271.448538 287.297502 
L 272.534339 289.513159 
L 273.62014 286.824541 
L 274.705941 291.235786 
L 275.791742 286.259403 
L 276.877543 290.945389 
L 277.963344 290.313249 
L 279.049146 284.618602 
L 280.134947 287.981613 
L 281.220748 289.474205 
L 282.306549 291.343752 
L 283.39235 288.26179 
L 284.478151 290.974345 
L 285.563953 292.504688 
L 286.649754 287.106546 
L 287.735555 286.030298 
L 288.821356 286.611128 
L 289.907157 287.549291 
L 290.992958 290.054511 
L 292.07876 286.683887 
L 293.164561 287.324751 
L 294.250362 289.950583 
L 295.336163 289.977926 
L 296.421964 282.228392 
L 297.507765 287.599622 
L 298.593566 284.298689 
L 299.679368 287.1638 
L 300.765169 288.688835 
L 301.85097 287.809654 
L 302.936771 291.916434 
L 304.022572 286.054971 
L 305.108373 290.995532 
L 306.194175 285.005052 
L 307.279976 288.184792 
L 308.365777 286.620677 
L 309.451578 285.831218 
L 310.537379 289.575392 
L 311.62318 290.7842 
L 312.708981 293.564064 
L 313.794783 287.426121 
L 314.880584 292.132881 
L 315.966385 289.819169 
L 317.052186 288.9512 
L 318.137987 289.207971 
L 319.223788 282.744022 
L 320.30959 284.151748 
L 321.395391 289.74415 
L 322.481192 285.569292 
L 323.566993 284.610296 
L 324.652794 285.841181 
L 325.738595 291.833991 
L 326.824396 287.877851 
L 327.910198 288.427318 
L 330.0818 291.037704 
L 331.167601 291.293899 
L 332.253402 290.694655 
L 333.339203 289.408013 
L 334.425005 289.122987 
L 335.510806 294.021353 
L 336.596607 285.876811 
L 337.682408 288.550829 
L 338.768209 292.703784 
L 339.85401 289.342166 
L 340.939811 288.194915 
L 342.025613 292.07019 
L 343.111414 290.846229 
L 344.197215 288.006563 
L 345.283016 292.472072 
L 346.368817 284.070536 
L 347.454618 291.431725 
L 348.54042 289.501163 
L 349.626221 291.21521 
L 350.712022 289.69258 
L 351.797823 292.14855 
L 353.969425 290.077079 
L 355.055227 289.470451 
L 356.141028 294.103304 
L 357.226829 284.956848 
L 358.31263 282.349564 
L 359.398431 291.408597 
L 360.484232 288.665606 
L 361.570033 289.186481 
L 362.655835 287.957878 
L 363.741636 286.486834 
L 364.827437 287.419529 
L 365.913238 292.021469 
L 366.999039 277.614519 
L 368.08484 291.822998 
L 369.170642 293.071227 
L 370.256443 290.415019 
L 371.342244 292.388654 
L 372.428045 289.18028 
L 373.513846 292.293989 
L 374.599647 294.844976 
L 375.685448 290.13341 
L 376.77125 287.664283 
L 377.857051 293.835992 
L 378.942852 293.527525 
L 380.028653 292.40745 
L 381.114454 287.713228 
L 382.200255 294.548969 
L 383.286057 292.492443 
L 384.371858 291.012722 
L 385.457659 293.609483 
L 386.54346 286.049719 
L 387.629261 289.752894 
L 388.715062 291.978242 
L 389.800863 293.433065 
L 390.886665 295.488 
L 391.972466 286.646438 
L 393.058267 292.110931 
L 394.144068 288.850488 
L 395.229869 290.596971 
L 396.31567 292.926103 
L 397.401472 291.486777 
L 398.487273 294.694256 
L 398.487273 294.694256 
" style="fill:none;stroke:#0000ff;stroke-linecap:square;stroke-width:1.5;"/>
   </g>
   <g id="line2d_18">
    <path clip-path="url(#p14e3586b45)" d="M 73.832727 60.767796 
L 74.918528 169.374173 
L 76.00433 201.405353 
L 77.090131 194.622777 
L 78.175932 220.373112 
L 79.261733 229.593344 
L 81.433335 239.382364 
L 82.519137 204.613287 
L 83.604938 220.386663 
L 84.690739 245.693495 
L 85.77654 243.953828 
L 87.948142 234.980423 
L 89.033943 251.733068 
L 90.119745 241.028855 
L 91.205546 241.145088 
L 92.291347 254.451141 
L 93.377148 228.215242 
L 94.462949 244.306563 
L 95.54875 256.202181 
L 96.634552 254.848911 
L 97.720353 252.45318 
L 98.806154 245.604243 
L 100.977756 260.75282 
L 102.063557 247.148462 
L 103.149358 256.253986 
L 104.23516 252.964473 
L 105.320961 258.180348 
L 107.492563 262.239933 
L 108.578364 243.042868 
L 109.664165 260.45069 
L 110.749967 256.773808 
L 111.835768 258.783674 
L 112.921569 258.249001 
L 114.00737 257.878067 
L 115.093171 261.674048 
L 116.178972 251.989351 
L 117.264773 237.0419 
L 118.350575 261.791336 
L 119.436376 261.54457 
L 120.522177 262.564797 
L 121.607978 269.624938 
L 122.693779 266.239078 
L 123.77958 263.474934 
L 124.865382 272.476469 
L 125.951183 255.097542 
L 127.036984 254.794779 
L 128.122785 267.522521 
L 129.208586 266.067812 
L 130.294387 267.026686 
L 131.380189 259.830496 
L 132.46599 269.783816 
L 133.551791 256.236116 
L 134.637592 258.876253 
L 135.723393 262.835356 
L 136.809194 266.23879 
L 137.894995 261.574312 
L 138.980797 268.271117 
L 140.066598 262.768244 
L 141.152399 269.223496 
L 142.2382 251.954841 
L 143.324001 266.744641 
L 144.409802 270.031236 
L 145.495604 259.08957 
L 146.581405 270.487169 
L 147.667206 266.687833 
L 148.753007 273.321586 
L 149.838808 265.750446 
L 150.924609 268.817714 
L 152.01041 266.536628 
L 153.096212 265.274305 
L 154.182013 274.273932 
L 155.267814 264.637626 
L 156.353615 265.279945 
L 157.439416 275.334883 
L 158.525217 271.128688 
L 159.611019 263.940786 
L 160.69682 266.567484 
L 161.782621 226.516817 
L 162.868422 271.123859 
L 163.954223 269.593169 
L 165.040024 276.157029 
L 166.125825 269.824839 
L 167.211627 271.207055 
L 168.297428 268.874031 
L 169.383229 263.193939 
L 170.46903 271.70156 
L 171.554831 276.388412 
L 172.640632 271.178577 
L 173.726434 268.806754 
L 174.812235 274.498589 
L 175.898036 274.484478 
L 176.983837 276.047415 
L 178.069638 268.803485 
L 179.155439 273.334001 
L 180.24124 273.535114 
L 181.327042 268.083894 
L 182.412843 277.508367 
L 183.498644 277.1871 
L 184.584445 277.097908 
L 185.670246 274.764223 
L 186.756047 268.057499 
L 187.841849 271.140938 
L 188.92765 279.660073 
L 190.013451 273.02714 
L 191.099252 271.76892 
L 192.185053 278.455687 
L 193.270854 278.129071 
L 194.356656 277.482889 
L 195.442457 278.554047 
L 196.528258 270.923925 
L 197.614059 266.993243 
L 198.69986 273.716514 
L 199.785661 279.628096 
L 200.871462 274.338029 
L 201.957264 280.15288 
L 203.043065 276.302311 
L 204.128866 273.295213 
L 205.214667 278.92844 
L 206.300468 274.289491 
L 207.386269 261.673994 
L 208.472071 272.297296 
L 209.557872 277.859381 
L 210.643673 276.70044 
L 211.729474 275.247815 
L 212.815275 276.687834 
L 213.901076 279.130681 
L 214.986877 278.675905 
L 216.072679 276.028651 
L 217.15848 269.834866 
L 218.244281 277.691704 
L 219.330082 273.340166 
L 220.415883 278.052744 
L 221.501684 278.223051 
L 222.587486 273.535448 
L 223.673287 272.89879 
L 224.759088 282.403905 
L 225.844889 276.636184 
L 226.93069 279.985217 
L 228.016491 277.527986 
L 229.102292 271.865591 
L 230.188094 275.370129 
L 231.273895 270.479521 
L 232.359696 276.858608 
L 233.445497 278.72583 
L 234.531298 278.808451 
L 235.617099 266.675891 
L 237.788702 282.614074 
L 238.874503 279.670768 
L 239.960304 273.054123 
L 241.046105 276.766952 
L 242.131906 279.900003 
L 243.217708 276.301409 
L 244.303509 281.733686 
L 245.38931 279.514796 
L 246.475111 281.029553 
L 247.560912 279.355414 
L 248.646713 278.965206 
L 249.732514 274.228623 
L 250.818316 283.395693 
L 251.904117 278.30944 
L 254.075719 281.030958 
L 255.16152 275.482345 
L 256.247321 273.466892 
L 257.333123 279.728399 
L 258.418924 284.373891 
L 259.504725 284.708458 
L 260.590526 278.508239 
L 261.676327 279.12549 
L 262.762128 281.249742 
L 263.847929 273.312417 
L 264.933731 279.834766 
L 266.019532 272.662094 
L 267.105333 272.816615 
L 269.276935 276.482698 
L 270.362736 277.834786 
L 271.448538 283.329382 
L 272.534339 279.866496 
L 273.62014 275.414044 
L 274.705941 279.669497 
L 275.791742 279.01428 
L 276.877543 282.930707 
L 277.963344 279.253548 
L 279.049146 274.22013 
L 280.134947 281.841551 
L 281.220748 282.072384 
L 282.306549 280.40635 
L 283.39235 277.918079 
L 284.478151 279.400866 
L 285.563953 279.707225 
L 286.649754 279.404728 
L 287.735555 284.810209 
L 288.821356 283.208936 
L 289.907157 277.356734 
L 290.992958 284.154963 
L 292.07876 276.509092 
L 293.164561 281.677481 
L 294.250362 279.775001 
L 295.336163 282.616991 
L 296.421964 273.741338 
L 297.507765 281.407047 
L 298.593566 274.298813 
L 299.679368 279.735042 
L 300.765169 278.25751 
L 301.85097 279.750317 
L 302.936771 276.547855 
L 304.022572 279.307195 
L 305.108373 280.901972 
L 306.194175 276.642072 
L 307.279976 276.508973 
L 308.365777 280.388549 
L 309.451578 280.999132 
L 310.537379 280.982574 
L 311.62318 283.950327 
L 312.708981 278.742054 
L 313.794783 274.675082 
L 314.880584 280.498929 
L 315.966385 278.510696 
L 317.052186 283.061216 
L 318.137987 281.510774 
L 319.223788 272.922472 
L 320.30959 276.972979 
L 321.395391 282.227688 
L 322.481192 278.194293 
L 323.566993 277.995756 
L 324.652794 279.265946 
L 325.738595 281.083114 
L 326.824396 281.676004 
L 327.910198 277.120746 
L 328.995999 282.782272 
L 330.0818 276.238572 
L 331.167601 279.697795 
L 332.253402 284.060523 
L 333.339203 280.016964 
L 334.425005 282.618123 
L 336.596607 278.269419 
L 337.682408 282.791181 
L 338.768209 282.93809 
L 340.939811 274.606207 
L 342.025613 283.17544 
L 343.111414 283.419364 
L 344.197215 279.353772 
L 345.283016 281.869871 
L 346.368817 265.758601 
L 347.454618 281.105607 
L 348.54042 278.830311 
L 349.626221 283.748467 
L 350.712022 279.908571 
L 351.797823 282.306903 
L 352.883624 280.857361 
L 353.969425 280.19109 
L 355.055227 279.167623 
L 356.141028 282.083683 
L 357.226829 275.347435 
L 358.31263 272.384041 
L 359.398431 282.080094 
L 360.484232 283.114166 
L 361.570033 279.553469 
L 362.655835 277.554984 
L 363.741636 270.948527 
L 364.827437 278.39705 
L 365.913238 284.332929 
L 366.999039 273.644951 
L 368.08484 282.777695 
L 369.170642 280.657376 
L 370.256443 276.474766 
L 371.342244 281.796601 
L 372.428045 278.011861 
L 373.513846 279.670492 
L 374.599647 285.359823 
L 375.685448 283.267372 
L 376.77125 274.650592 
L 377.857051 287.519002 
L 378.942852 281.815243 
L 380.028653 278.545597 
L 381.114454 272.305749 
L 382.200255 280.807048 
L 383.286057 280.635268 
L 384.371858 278.585661 
L 385.457659 279.723801 
L 386.54346 275.772947 
L 388.715062 281.388133 
L 389.800863 279.43331 
L 390.886665 283.185096 
L 391.972466 278.048591 
L 393.058267 281.667009 
L 394.144068 280.422498 
L 395.229869 274.735232 
L 396.31567 283.100586 
L 397.401472 276.898617 
L 398.487273 282.738655 
L 398.487273 282.738655 
" style="fill:none;stroke:#ff0000;stroke-linecap:square;stroke-width:1.5;"/>
   </g>
   <g id="patch_3">
    <path d="M 57.6 307.584 
L 57.6 41.472 
" style="fill:none;stroke:#000000;stroke-linecap:square;stroke-linejoin:miter;stroke-width:0.8;"/>
   </g>
   <g id="patch_4">
    <path d="M 414.72 307.584 
L 414.72 41.472 
" style="fill:none;stroke:#000000;stroke-linecap:square;stroke-linejoin:miter;stroke-width:0.8;"/>
   </g>
   <g id="patch_5">
    <path d="M 57.6 307.584 
L 414.72 307.584 
" style="fill:none;stroke:#000000;stroke-linecap:square;stroke-linejoin:miter;stroke-width:0.8;"/>
   </g>
   <g id="patch_6">
    <path d="M 57.6 41.472 
L 414.72 41.472 
" style="fill:none;stroke:#000000;stroke-linecap:square;stroke-linejoin:miter;stroke-width:0.8;"/>
   </g>
   <g id="text_19">
    <!-- $\textrm{VAE}_{50}$ -->
    <defs>
     <path d="M 59 58.515625 
C 59.90625 60.71875 61.5 65 68.203125 65 
L 68.203125 67.6875 
C 65.90625 67.484375 63.296875 67.484375 60.796875 67.484375 
C 58.40625 67.484375 54.296875 67.484375 52 67.6875 
L 52 65 
C 57 65 57.203125 61.5 57.203125 60.90625 
C 57.203125 59.796875 56.90625 59.109375 56.59375 58.3125 
L 36.90625 6.96875 
L 16.296875 60.71875 
C 16 61.421875 15.796875 61.921875 15.796875 62.40625 
C 15.796875 65 19.796875 65 21.90625 65 
L 21.90625 67.484375 
C 18.703125 67.484375 14 67.484375 10.703125 67.484375 
C 8.09375 67.484375 3.40625 67.484375 1 67.6875 
L 1 65 
C 6.796875 65 7.90625 64.609375 9.09375 61.421875 
L 32.90625 -0.40625 
C 33.40625 -1.796875 33.5 -2 34.59375 -2 
C 35.703125 -2 35.796875 -1.796875 36.296875 -0.40625 
z
" id="CMR17-86"/>
     <path d="M 36.296875 68.40625 
C 35.796875 69.703125 35.59375 70 34.59375 70 
C 33.59375 70 33.40625 69.703125 32.90625 68.40625 
L 11.703125 8.84375 
C 9.796875 3.484375 5.796875 2.390625 2.296875 2.390625 
L 2.296875 -0.203125 
C 4.09375 0 8.09375 0 10 0 
C 12.5 0 16.5 0 18.90625 -0.203125 
L 18.90625 2.390625 
C 14.203125 2.390625 13.5 5.640625 13.5 6.859375 
C 13.5 7.765625 13.703125 8.28125 13.90625 8.890625 
L 19.203125 24 
L 45.40625 24 
L 51.40625 6.90625 
C 51.90625 5.703125 51.90625 5.5 51.90625 5.109375 
C 51.90625 2.390625 47.59375 2.390625 45.703125 2.390625 
L 45.703125 0 
C 48.59375 0 53.796875 0 56.90625 0 
C 59.5 0 64.5 0 66.90625 -0.203125 
L 66.90625 2.390625 
C 61.59375 2.390625 59.796875 2.390625 58.5 6.046875 
z
M 32.296875 60.828125 
L 44.5 26.59375 
L 20.09375 26.59375 
z
" id="CMR17-65"/>
     <path d="M 60.703125 25.234375 
L 58.90625 25.234375 
C 56.703125 10.5625 55.40625 2.59375 37.796875 2.59375 
L 23.90625 2.59375 
C 19.90625 2.59375 19.703125 3.078125 19.703125 6.46875 
L 19.703125 34 
L 29.09375 34 
C 38.5 34 39.40625 30.625 39.40625 22.34375 
L 41.203125 22.34375 
L 41.203125 48.140625 
L 39.40625 48.140625 
C 39.40625 39.953125 38.5 36.59375 29.09375 36.59375 
L 19.703125 36.59375 
L 19.703125 61.140625 
C 19.703125 64.5 19.90625 65 23.90625 65 
L 37.59375 65 
C 53.09375 65 54.90625 58.890625 56.296875 45.765625 
L 58.09375 45.765625 
L 55.703125 67.578125 
L 5.09375 67.578125 
L 5.09375 65 
C 12 65 13.09375 65 13.09375 60.53125 
L 13.09375 7.046875 
C 13.09375 2.59375 12 2.59375 5.09375 2.59375 
L 5.09375 0 
L 57.09375 0 
z
" id="CMR17-69"/>
    </defs>
    <g transform="translate(219.818563 35.472)scale(0.12 -0.12)">
     <use transform="translate(0 14.943915)scale(0.996264)" xlink:href="#CMR17-86"/>
     <use transform="translate(58.66272 14.943915)scale(0.996264)" xlink:href="#CMR17-65"/>
     <use transform="translate(127.73515 14.943915)scale(0.996264)" xlink:href="#CMR17-69"/>
     <use transform="translate(190.321451 0)scale(0.697382)" xlink:href="#CMR17-53"/>
     <use transform="translate(222.304633 0)scale(0.697382)" xlink:href="#CMR17-48"/>
    </g>
   </g>
   <g id="legend_1">
    <g id="patch_7">
     <path d="M 268.489782 95.131054 
L 406.64 95.131054 
Q 409.52 95.131054 409.52 92.251054 
L 409.52 53.552 
Q 409.52 50.672 406.64 50.672 
L 268.489782 50.672 
Q 265.609782 50.672 265.609782 53.552 
L 265.609782 92.251054 
Q 265.609782 95.131054 268.489782 95.131054 
z
" style="fill:#4c4c4c;opacity:0.5;stroke:#4c4c4c;stroke-linejoin:miter;"/>
    </g>
    <g id="patch_8">
     <path d="M 266.489782 93.131054 
L 404.64 93.131054 
Q 407.52 93.131054 407.52 90.251054 
L 407.52 51.552 
Q 407.52 48.672 404.64 48.672 
L 266.489782 48.672 
Q 263.609782 48.672 263.609782 51.552 
L 263.609782 90.251054 
Q 263.609782 93.131054 266.489782 93.131054 
z
" style="fill:#ffffff;stroke:#cccccc;stroke-linejoin:miter;"/>
    </g>
    <g id="line2d_19">
     <path d="M 269.369782 59.472 
L 298.169782 59.472 
" style="fill:none;stroke:#0000ff;stroke-linecap:square;stroke-width:1.5;"/>
    </g>
    <g id="line2d_20"/>
    <g id="text_20">
     <!-- Train Data -->
     <defs>
      <path d="M 36.203125 62 
L 44.5 62 
C 45.703125 62 46.90625 62 48.09375 62 
L 60.59375 62 
L 60.59375 68.375 
L 3.40625 68.375 
L 3.40625 62 
L 15.90625 62 
C 17.09375 62 18.296875 62 19.5 62 
L 27.796875 62 
L 27.796875 -0.5 
L 36.203125 -0.5 
z
" id="CMSS17-84"/>
      <path d="M 14.90625 21.296875 
C 14.90625 30.703125 21.796875 37 30.59375 37 
L 30.59375 43.578125 
C 24.203125 43.578125 18.203125 40.390625 14.59375 35.203125 
L 14.59375 43.09375 
L 7.5 43.09375 
L 7.5 0 
L 14.90625 0 
z
" id="CMSS17-114"/>
      <path d="M 37.59375 27.984375 
C 37.59375 37.375 30.90625 43.875 21.90625 43.875 
C 17.5 43.875 12.703125 43.078125 7.203125 39.890625 
L 7.796875 33.359375 
C 10.296875 35.125 14.59375 38 21.796875 38 
C 26.90625 38 30 34.0625 30 27.84375 
L 30 24 
C 14 24 4 19.34375 4 11.34375 
C 4 7.203125 6.5 -1 14.796875 -1 
C 16.296875 -1 24.40625 -1 30.203125 3.390625 
L 30.203125 -0.296875 
L 37.59375 -0.296875 
z
M 30 12.75 
C 30 10.953125 30 8.5625 27 6.78125 
C 24.40625 5.078125 21.09375 5.078125 19.703125 5.078125 
C 14.703125 5.078125 11.296875 7.984375 11.296875 11.625 
C 11.296875 18.921875 26.90625 18.921875 30 18.921875 
z
" id="CMSS17-97"/>
      <path d="M 15.296875 65.359375 
L 6.90625 65.359375 
L 6.90625 57 
L 15.296875 57 
z
M 14.796875 42.796875 
L 7.40625 42.796875 
L 7.40625 0 
L 14.796875 0 
z
" id="CMSS17-105"/>
      <path d="M 40.90625 29.328125 
C 40.90625 35.671875 39.40625 44 28.09375 44 
C 21.703125 44 17.5 40.71875 14.703125 37.328125 
L 14.703125 43.09375 
L 7.40625 43.09375 
L 7.40625 0 
L 15 0 
L 15 24.359375 
C 15 30.6875 17.40625 37.9375 24.203125 37.9375 
C 33 37.9375 33.296875 32 33.296875 28.578125 
L 33.296875 0 
L 40.90625 0 
z
" id="CMSS17-110"/>
      <path d="M 8.90625 69 
L 8.90625 0 
L 33.5 0 
C 49.90625 0 62.5 15.3125 62.5 33.90625 
C 62.5 53.09375 49.90625 69 33.5 69 
z
M 17.09375 5.578125 
L 17.09375 63.421875 
L 31.296875 63.421875 
C 44.703125 63.421875 54.296875 51.203125 54.296875 33.90625 
C 54.296875 17.296875 44.796875 5.578125 31.296875 5.578125 
z
" id="CMSS17-68"/>
      <path d="M 16.703125 37 
L 29.703125 37 
L 29.703125 42.765625 
L 16.703125 42.765625 
L 16.703125 55 
L 9.59375 55 
L 9.59375 42.765625 
L 1.703125 42.765625 
L 1.703125 37 
L 9.40625 37 
L 9.40625 11.703125 
C 9.40625 6 10.703125 -1 17.296875 -1 
C 22.296875 -1 26.90625 0.390625 31.296875 2.6875 
L 29.703125 8.5625 
C 27.296875 6.46875 24.40625 5.265625 21.296875 5.265625 
C 16.90625 5.265625 16.703125 10.875 16.703125 13.375 
z
" id="CMSS17-116"/>
     </defs>
     <g transform="translate(309.689782 64.512)scale(0.144 -0.144)">
      <use transform="scale(0.996264)" xlink:href="#CMSS17-84"/>
      <use transform="translate(56.012199 0)scale(0.996264)" xlink:href="#CMSS17-114"/>
      <use transform="translate(87.921971 0)scale(0.996264)" xlink:href="#CMSS17-97"/>
      <use transform="translate(132.843892 0)scale(0.996264)" xlink:href="#CMSS17-105"/>
      <use transform="translate(155.024615 0)scale(0.996264)" xlink:href="#CMSS17-110"/>
      <use transform="translate(234.458671 0)scale(0.996264)" xlink:href="#CMSS17-68"/>
      <use transform="translate(302.001512 0)scale(0.996264)" xlink:href="#CMSS17-97"/>
      <use transform="translate(346.923433 0)scale(0.996264)" xlink:href="#CMSS17-116"/>
      <use transform="translate(380.755 0)scale(0.996264)" xlink:href="#CMSS17-97"/>
     </g>
    </g>
    <g id="line2d_21">
     <path d="M 269.369782 79.541527 
L 298.169782 79.541527 
" style="fill:none;stroke:#ff0000;stroke-linecap:square;stroke-width:1.5;"/>
    </g>
    <g id="line2d_22"/>
    <g id="text_21">
     <!-- Validation Data -->
     <defs>
      <path d="M 61.09375 69 
L 53.296875 69 
L 36 21.28125 
C 35.5 19.890625 32.40625 10.75 31.796875 7.5625 
L 31.703125 7.5625 
C 30.90625 11.34375 27.703125 20.1875 26 25.0625 
L 14.40625 57.375 
L 10.09375 69 
L 1.296875 69 
L 26.796875 0 
L 35.59375 0 
z
" id="CMSS17-86"/>
      <path d="M 14.796875 69 
L 7.40625 69 
L 7.40625 0 
L 14.796875 0 
z
" id="CMSS17-108"/>
      <path d="M 40.796875 69 
L 33.40625 69 
L 33.40625 38.09375 
C 30.296875 40.671875 25.203125 43.0625 19.59375 43.0625 
C 10.5 43.0625 3.296875 33.296875 3.296875 21.046875 
C 3.296875 8.78125 10.40625 -1 19.296875 -1 
C 26.203125 -1 30.796875 2.6875 33.203125 4.78125 
L 33.203125 -0.203125 
L 40.796875 -0.203125 
z
M 33.203125 13.0625 
C 33.203125 11.671875 33.203125 10.203125 30.09375 7.53125 
C 28.09375 5.859375 25.703125 5.078125 23.40625 5.078125 
C 18 5.078125 10.90625 9 10.90625 20.9375 
C 10.90625 33.34375 18.90625 37 24.40625 37 
C 28.09375 37 31.09375 35.21875 33.203125 32.265625 
z
" id="CMSS17-100"/>
     </defs>
     <g transform="translate(309.689782 84.581527)scale(0.144 -0.144)">
      <use transform="scale(0.996264)" xlink:href="#CMSS17-86"/>
      <use transform="translate(59.615401 0)scale(0.996264)" xlink:href="#CMSS17-97"/>
      <use transform="translate(104.537322 0)scale(0.996264)" xlink:href="#CMSS17-108"/>
      <use transform="translate(126.718045 0)scale(0.996264)" xlink:href="#CMSS17-105"/>
      <use transform="translate(148.898768 0)scale(0.996264)" xlink:href="#CMSS17-100"/>
      <use transform="translate(197.103711 0)scale(0.996264)" xlink:href="#CMSS17-97"/>
      <use transform="translate(242.025631 0)scale(0.996264)" xlink:href="#CMSS17-116"/>
      <use transform="translate(275.857198 0)scale(0.996264)" xlink:href="#CMSS17-105"/>
      <use transform="translate(298.037921 0)scale(0.996264)" xlink:href="#CMSS17-111"/>
      <use transform="translate(344.881545 0)scale(0.996264)" xlink:href="#CMSS17-110"/>
      <use transform="translate(424.315601 0)scale(0.996264)" xlink:href="#CMSS17-68"/>
      <use transform="translate(491.858442 0)scale(0.996264)" xlink:href="#CMSS17-97"/>
      <use transform="translate(536.780363 0)scale(0.996264)" xlink:href="#CMSS17-116"/>
      <use transform="translate(570.61193 0)scale(0.996264)" xlink:href="#CMSS17-97"/>
     </g>
    </g>
   </g>
  </g>
 </g>
 <defs>
  <clipPath id="p14e3586b45">
   <rect height="266.112" width="357.12" x="57.6" y="41.472"/>
  </clipPath>
 </defs>
</svg>
