<?xml version="1.0" encoding="utf-8" standalone="no"?>
<!DOCTYPE svg PUBLIC "-//W3C//DTD SVG 1.1//EN"
  "http://www.w3.org/Graphics/SVG/1.1/DTD/svg11.dtd">
<!-- Created with matplotlib (https://matplotlib.org/) -->
<svg height="345.6pt" version="1.1" viewBox="0 0 460.8 345.6" width="460.8pt" xmlns="http://www.w3.org/2000/svg" xmlns:xlink="http://www.w3.org/1999/xlink">
 <defs>
  <style type="text/css">
*{stroke-linecap:butt;stroke-linejoin:round;}
  </style>
 </defs>
 <g id="figure_1">
  <g id="patch_1">
   <path d="M 0 345.6 
L 460.8 345.6 
L 460.8 0 
L 0 0 
z
" style="fill:#ffffff;"/>
  </g>
  <g id="axes_1">
   <g id="patch_2">
    <path d="M 57.6 307.584 
L 414.72 307.584 
L 414.72 41.472 
L 57.6 41.472 
z
" style="fill:#ffffff;"/>
   </g>
   <g id="matplotlib.axis_1">
    <g id="xtick_1">
     <g id="line2d_1">
      <defs>
       <path d="M 0 0 
L 0 3.5 
" id="mf5305f416f" style="stroke:#000000;stroke-width:0.8;"/>
      </defs>
      <g>
       <use style="stroke:#000000;stroke-width:0.8;" x="72.746926" xlink:href="#mf5305f416f" y="307.584"/>
      </g>
     </g>
     <g id="text_1">
      <!-- $0$ -->
      <defs>
       <path d="M 42 31.640625 
C 42 37.75 41.90625 48.125 37.703125 56.109375 
C 34 63.109375 28.09375 65.59375 22.90625 65.59375 
C 18.09375 65.59375 12 63.40625 8.203125 56.203125 
C 4.203125 48.71875 3.796875 39.4375 3.796875 31.640625 
C 3.796875 25.953125 3.90625 17.28125 7 9.671875 
C 11.296875 -0.609375 19 -2 22.90625 -2 
C 27.5 -2 34.5 -0.109375 38.59375 9.375 
C 41.59375 16.28125 42 24.359375 42 31.640625 
z
M 22.90625 -0.40625 
C 16.5 -0.40625 12.703125 5.078125 11.296875 12.6875 
C 10.203125 18.5625 10.203125 27.15625 10.203125 32.75 
C 10.203125 40.4375 10.203125 46.828125 11.5 52.921875 
C 13.40625 61.390625 19 64 22.90625 64 
C 27 64 32.296875 61.296875 34.203125 53.125 
C 35.5 47.4375 35.59375 40.734375 35.59375 32.75 
C 35.59375 26.25 35.59375 18.265625 34.40625 12.375 
C 32.296875 1.484375 26.40625 -0.40625 22.90625 -0.40625 
z
" id="CMR17-48"/>
      </defs>
      <g transform="translate(70.256258 321.502498)scale(0.1 -0.1)">
       <use transform="scale(0.996264)" xlink:href="#CMR17-48"/>
      </g>
     </g>
    </g>
    <g id="xtick_2">
     <g id="line2d_2">
      <g>
       <use style="stroke:#000000;stroke-width:0.8;" x="127.036984" xlink:href="#mf5305f416f" y="307.584"/>
      </g>
     </g>
     <g id="text_2">
      <!-- $50$ -->
      <defs>
       <path d="M 11.40625 57.6875 
C 12.40625 57.28125 16.5 56 20.703125 56 
C 30 56 35.09375 61.109375 38 64.0625 
C 38 64.953125 38 65.5 37.40625 65.5 
C 37.296875 65.5 37.09375 65.5 36.296875 65.046875 
C 32.796875 63.40625 28.703125 62.078125 23.703125 62.078125 
C 20.703125 62.078125 16.203125 62.484375 11.296875 64.671875 
C 10.203125 65.171875 10 65.171875 9.90625 65.171875 
C 9.40625 65.171875 9.296875 65.0625 9.296875 63.078125 
L 9.296875 34.421875 
C 9.296875 32.640625 9.296875 32.140625 10.296875 32.140625 
C 10.796875 32.140625 11 32.34375 11.5 33.03125 
C 14.703125 37.515625 19.09375 39.40625 24.09375 39.40625 
C 27.59375 39.40625 35.09375 37.21875 35.09375 20.140625 
C 35.09375 16.953125 35.09375 11.171875 32.09375 6.578125 
C 29.59375 2.484375 25.703125 0.390625 21.40625 0.390625 
C 14.796875 0.390625 8.09375 5 6.296875 12.71875 
C 6.703125 12.609375 7.5 12.421875 7.90625 12.421875 
C 9.203125 12.421875 11.703125 13.125 11.703125 16.21875 
C 11.703125 18.90625 9.796875 20 7.90625 20 
C 5.59375 20 4.09375 18.59375 4.09375 15.796875 
C 4.09375 7.09375 11 -2 21.59375 -2 
C 31.90625 -2 41.703125 6.875 41.703125 19.75 
C 41.703125 31.71875 33.90625 41 24.203125 41 
C 19.09375 41 14.796875 39.109375 11.40625 35.53125 
z
" id="CMR17-53"/>
      </defs>
      <g transform="translate(122.055649 321.502498)scale(0.1 -0.1)">
       <use transform="scale(0.996264)" xlink:href="#CMR17-53"/>
       <use transform="translate(45.690477 0)scale(0.996264)" xlink:href="#CMR17-48"/>
      </g>
     </g>
    </g>
    <g id="xtick_3">
     <g id="line2d_3">
      <g>
       <use style="stroke:#000000;stroke-width:0.8;" x="181.327042" xlink:href="#mf5305f416f" y="307.584"/>
      </g>
     </g>
     <g id="text_3">
      <!-- $100$ -->
      <defs>
       <path d="M 26.59375 63.40625 
C 26.59375 65.5 26.5 65.5 25.09375 65.5 
C 21.203125 61.1875 15.296875 59.796875 9.703125 59.796875 
C 9.40625 59.796875 8.90625 59.796875 8.796875 59.5 
C 8.703125 59.296875 8.703125 59.09375 8.703125 57 
C 11.796875 57 17 57.59375 21 59.984375 
L 21 7.203125 
C 21 3.6875 20.796875 2.5 12.203125 2.5 
L 9.203125 2.5 
L 9.203125 0 
C 14 0 19 0 23.796875 0 
C 28.59375 0 33.59375 0 38.40625 0 
L 38.40625 2.5 
L 35.40625 2.5 
C 26.796875 2.5 26.59375 3.59375 26.59375 7.15625 
z
" id="CMR17-49"/>
      </defs>
      <g transform="translate(173.855039 321.502498)scale(0.1 -0.1)">
       <use transform="scale(0.996264)" xlink:href="#CMR17-49"/>
       <use transform="translate(45.690477 0)scale(0.996264)" xlink:href="#CMR17-48"/>
       <use transform="translate(91.380954 0)scale(0.996264)" xlink:href="#CMR17-48"/>
      </g>
     </g>
    </g>
    <g id="xtick_4">
     <g id="line2d_4">
      <g>
       <use style="stroke:#000000;stroke-width:0.8;" x="235.617099" xlink:href="#mf5305f416f" y="307.584"/>
      </g>
     </g>
     <g id="text_4">
      <!-- $150$ -->
      <g transform="translate(228.145097 321.502498)scale(0.1 -0.1)">
       <use transform="scale(0.996264)" xlink:href="#CMR17-49"/>
       <use transform="translate(45.690477 0)scale(0.996264)" xlink:href="#CMR17-53"/>
       <use transform="translate(91.380954 0)scale(0.996264)" xlink:href="#CMR17-48"/>
      </g>
     </g>
    </g>
    <g id="xtick_5">
     <g id="line2d_5">
      <g>
       <use style="stroke:#000000;stroke-width:0.8;" x="289.907157" xlink:href="#mf5305f416f" y="307.584"/>
      </g>
     </g>
     <g id="text_5">
      <!-- $200$ -->
      <defs>
       <path d="M 41.703125 15.453125 
L 39.90625 15.453125 
C 38.90625 8.375 38.09375 7.171875 37.703125 6.5625 
C 37.203125 5.765625 30 5.765625 28.59375 5.765625 
L 9.40625 5.765625 
C 13 9.671875 20 16.75 28.5 24.953125 
C 34.59375 30.734375 41.703125 37.53125 41.703125 47.421875 
C 41.703125 59.21875 32.296875 66 21.796875 66 
C 10.796875 66 4.09375 56.3125 4.09375 47.34375 
C 4.09375 43.4375 7 42.9375 8.203125 42.9375 
C 9.203125 42.9375 12.203125 43.546875 12.203125 47.03125 
C 12.203125 50.109375 9.59375 51 8.203125 51 
C 7.59375 51 7 50.90625 6.59375 50.703125 
C 8.5 59.21875 14.296875 63.40625 20.40625 63.40625 
C 29.09375 63.40625 34.796875 56.515625 34.796875 47.421875 
C 34.796875 38.734375 29.703125 31.25 24 24.75 
L 4.09375 2.28125 
L 4.09375 0 
L 39.296875 0 
z
" id="CMR17-50"/>
      </defs>
      <g transform="translate(282.435154 321.502498)scale(0.1 -0.1)">
       <use transform="scale(0.996264)" xlink:href="#CMR17-50"/>
       <use transform="translate(45.690477 0)scale(0.996264)" xlink:href="#CMR17-48"/>
       <use transform="translate(91.380954 0)scale(0.996264)" xlink:href="#CMR17-48"/>
      </g>
     </g>
    </g>
    <g id="xtick_6">
     <g id="line2d_6">
      <g>
       <use style="stroke:#000000;stroke-width:0.8;" x="344.197215" xlink:href="#mf5305f416f" y="307.584"/>
      </g>
     </g>
     <g id="text_6">
      <!-- $250$ -->
      <g transform="translate(336.725212 321.502498)scale(0.1 -0.1)">
       <use transform="scale(0.996264)" xlink:href="#CMR17-50"/>
       <use transform="translate(45.690477 0)scale(0.996264)" xlink:href="#CMR17-53"/>
       <use transform="translate(91.380954 0)scale(0.996264)" xlink:href="#CMR17-48"/>
      </g>
     </g>
    </g>
    <g id="xtick_7">
     <g id="line2d_7">
      <g>
       <use style="stroke:#000000;stroke-width:0.8;" x="398.487273" xlink:href="#mf5305f416f" y="307.584"/>
      </g>
     </g>
     <g id="text_7">
      <!-- $300$ -->
      <defs>
       <path d="M 22.09375 33.703125 
C 31 33.703125 34.90625 25.96875 34.90625 17.03125 
C 34.90625 5 28.5 0.390625 22.703125 0.390625 
C 17.40625 0.390625 8.796875 3.03125 6.09375 10.828125 
C 6.59375 10.625 7.09375 10.625 7.59375 10.625 
C 10 10.625 11.796875 12.21875 11.796875 14.8125 
C 11.796875 17.703125 9.59375 19 7.59375 19 
C 5.90625 19 3.296875 18.203125 3.296875 14.46875 
C 3.296875 5.234375 12.296875 -2 22.90625 -2 
C 34 -2 42.5 6.71875 42.5 16.953125 
C 42.5 26.671875 34.5 33.703125 25 34.796875 
C 32.59375 36.375 39.90625 43.0625 39.90625 52.015625 
C 39.90625 59.6875 32 65.296875 23 65.296875 
C 13.90625 65.296875 5.90625 59.828125 5.90625 52.015625 
C 5.90625 48.59375 8.5 48 9.796875 48 
C 11.90625 48 13.703125 49.296875 13.703125 51.890625 
C 13.703125 54.46875 11.90625 55.765625 9.796875 55.765625 
C 9.40625 55.765625 8.90625 55.765625 8.5 55.578125 
C 11.40625 61.859375 19.296875 63 22.796875 63 
C 26.296875 63 32.90625 61.328125 32.90625 51.875 
C 32.90625 49.109375 32.5 44.1875 29.09375 39.84375 
C 26.09375 36 22.703125 36 19.40625 35.6875 
C 18.90625 35.6875 16.59375 35.453125 16.203125 35.453125 
C 15.5 35.359375 15.09375 35.265625 15.09375 34.5 
C 15.09375 33.796875 15.203125 33.703125 17.203125 33.703125 
z
" id="CMR17-51"/>
      </defs>
      <g transform="translate(391.01527 321.502498)scale(0.1 -0.1)">
       <use transform="scale(0.996264)" xlink:href="#CMR17-51"/>
       <use transform="translate(45.690477 0)scale(0.996264)" xlink:href="#CMR17-48"/>
       <use transform="translate(91.380954 0)scale(0.996264)" xlink:href="#CMR17-48"/>
      </g>
     </g>
    </g>
    <g id="text_8">
     <!-- Epoch -->
     <defs>
      <path d="M 30.59375 6.765625 
C 22.59375 6.765625 19 6.765625 17.203125 6.765625 
L 17.203125 32.921875 
L 48.203125 32.921875 
L 48.203125 39 
L 17.203125 39 
L 17.203125 62.640625 
L 30.09375 62.640625 
C 31.296875 62.640625 32.5 62.640625 33.703125 62.640625 
L 50.796875 62.640625 
L 50.796875 69 
L 8.796875 69 
L 8.796875 0 
L 52.09375 0 
L 52.09375 6.765625 
z
" id="CMSS17-69"/>
      <path d="M 15.09375 5.203125 
C 18.40625 2.015625 22.90625 -0.078125 27.703125 -0.078125 
C 37 -0.078125 45 9.421875 45 22.0625 
C 45 33.734375 39 44 30.40625 44 
C 25.40625 44 19.40625 42.21875 14.90625 38.625 
L 14.90625 43.203125 
L 7.5 43.203125 
L 7.5 -19 
L 15.09375 -19 
z
M 15.09375 32.8125 
C 15.90625 34 19.296875 37.734375 24.796875 37.734375 
C 31.796875 37.734375 37.40625 30.625 37.40625 22.0625 
C 37.40625 12.296875 30.59375 6 23.90625 6 
C 21.90625 6 19.796875 6.484375 17.796875 8.171875 
C 15.09375 10.53125 15.09375 12 15.09375 13.390625 
z
" id="CMSS17-112"/>
      <path d="M 44.203125 21.1875 
C 44.203125 34 34.703125 44 23.5 44 
C 12 44 2.703125 33.703125 2.703125 21.1875 
C 2.703125 8.5 12.296875 -1 23.40625 -1 
C 34.796875 -1 44.203125 8.796875 44.203125 21.1875 
z
M 23.5 5.265625 
C 16.40625 5.265625 10.296875 11.078125 10.296875 22 
C 10.296875 33.609375 17.40625 37.921875 23.40625 37.921875 
C 29.90625 37.921875 36.59375 33.21875 36.59375 22 
C 36.59375 10.671875 30.09375 5.265625 23.5 5.265625 
z
" id="CMSS17-111"/>
      <path d="M 38.5 39.703125 
C 38.5 40.390625 33.90625 42.40625 32.703125 42.796875 
C 29.40625 44 25.203125 44 24.09375 44 
C 11.09375 44 3.296875 32.703125 3.296875 21.296875 
C 3.296875 9.296875 12 -1 23.703125 -1 
C 30.40625 -1 35.203125 1.1875 39.09375 3.78125 
L 38.5 10.375 
C 34.203125 7.078125 29.203125 5.265625 23.796875 5.265625 
C 16 5.265625 10.90625 12.09375 10.90625 21.390625 
C 10.90625 28.609375 14.203125 37.71875 24.203125 37.71875 
C 29.703125 37.71875 32.796875 36.609375 37.40625 33.515625 
z
" id="CMSS17-99"/>
      <path d="M 40.90625 29.546875 
C 40.90625 35.8125 39.40625 44.0625 28.09375 44.0625 
C 21.796875 44.0625 17.703125 40.984375 14.796875 37.609375 
L 14.796875 69.5 
L 7.40625 69.5 
L 7.40625 0.5 
L 15 0.5 
L 15 24.578125 
C 15 30.828125 17.40625 38 24.203125 38 
C 33 38 33.296875 32.125 33.296875 28.734375 
L 33.296875 0.5 
L 40.90625 0.5 
z
" id="CMSS17-104"/>
     </defs>
     <g transform="translate(223.056337 334.358175)scale(0.1 -0.1)">
      <use transform="scale(0.996264)" xlink:href="#CMSS17-69"/>
      <use transform="translate(55.892013 0)scale(0.996264)" xlink:href="#CMSS17-112"/>
      <use transform="translate(106.699395 0)scale(0.996264)" xlink:href="#CMSS17-111"/>
      <use transform="translate(156.145457 0)scale(0.996264)" xlink:href="#CMSS17-99"/>
      <use transform="translate(197.784279 0)scale(0.996264)" xlink:href="#CMSS17-104"/>
     </g>
    </g>
   </g>
   <g id="matplotlib.axis_2">
    <g id="ytick_1">
     <g id="line2d_8">
      <defs>
       <path d="M 0 0 
L -3.5 0 
" id="m41be67fa8d" style="stroke:#000000;stroke-width:0.8;"/>
      </defs>
      <g>
       <use style="stroke:#000000;stroke-width:0.8;" x="57.6" xlink:href="#m41be67fa8d" y="286.993"/>
      </g>
     </g>
     <g id="text_9">
      <!-- $0.775$ -->
      <defs>
       <path d="M 18.40625 4.796875 
C 18.40625 7.6875 16 9.671875 13.59375 9.671875 
C 10.703125 9.671875 8.703125 7.28125 8.703125 4.890625 
C 8.703125 2 11.09375 0 13.5 0 
C 16.40625 0 18.40625 2.390625 18.40625 4.796875 
z
" id="CMMI12-58"/>
       <path d="M 45.09375 61.578125 
L 45.09375 63.765625 
L 21.59375 63.765625 
C 9.90625 63.765625 9.703125 65.078125 9.296875 67 
L 7.5 67 
L 4.59375 48.34375 
L 6.40625 48.34375 
C 6.703125 50.234375 7.40625 55.3125 8.59375 57.203125 
C 9.203125 58 16.59375 58 18.296875 58 
L 40.296875 58 
L 29.203125 41.578125 
C 21.796875 30.53125 16.703125 15.609375 16.703125 2.578125 
C 16.703125 1.390625 16.703125 -2 20.296875 -2 
C 23.90625 -2 23.90625 1.390625 23.90625 2.671875 
L 23.90625 7.265625 
C 23.90625 23.5625 26.703125 34.3125 31.296875 41.1875 
z
" id="CMR17-55"/>
      </defs>
      <g transform="translate(27.907251 290.452249)scale(0.1 -0.1)">
       <use transform="scale(0.996264)" xlink:href="#CMR17-48"/>
       <use transform="translate(45.690477 0)scale(0.996264)" xlink:href="#CMMI12-58"/>
       <use transform="translate(72.787654 0)scale(0.996264)" xlink:href="#CMR17-55"/>
       <use transform="translate(118.478131 0)scale(0.996264)" xlink:href="#CMR17-55"/>
       <use transform="translate(164.168608 0)scale(0.996264)" xlink:href="#CMR17-53"/>
      </g>
     </g>
    </g>
    <g id="ytick_2">
     <g id="line2d_9">
      <g>
       <use style="stroke:#000000;stroke-width:0.8;" x="57.6" xlink:href="#m41be67fa8d" y="251.453134"/>
      </g>
     </g>
     <g id="text_10">
      <!-- $0.800$ -->
      <defs>
       <path d="M 27.203125 35.375 
C 33.5 38.546875 39.90625 43.328125 39.90625 50.984375 
C 39.90625 60.015625 31.09375 65.296875 23 65.296875 
C 13.90625 65.296875 5.90625 58.734375 5.90625 49.6875 
C 5.90625 47.203125 6.5 42.921875 10.40625 39.140625 
C 11.40625 38.15625 15.59375 35.171875 18.296875 33.28125 
C 13.796875 30.984375 3.296875 25.53125 3.296875 14.59375 
C 3.296875 4.359375 13.09375 -2 22.796875 -2 
C 33.5 -2 42.5 5.65625 42.5 15.78125 
C 42.5 24.84375 36.40625 29.015625 32.40625 31.703125 
z
M 14.09375 44.09375 
C 13.296875 44.59375 9.296875 47.671875 9.296875 52.359375 
C 9.296875 58.421875 15.59375 63 22.796875 63 
C 30.703125 63 36.5 57.4375 36.5 50.96875 
C 36.5 41.703125 26.09375 36.421875 25.59375 36.421875 
C 25.5 36.421875 25.40625 36.421875 24.59375 37.03125 
z
M 32.5 23.734375 
C 34 22.640625 38.796875 19.375 38.796875 13.296875 
C 38.796875 5.953125 31.40625 0.390625 23 0.390625 
C 13.90625 0.390625 7 6.84375 7 14.6875 
C 7 22.546875 13.09375 29.09375 20 32.1875 
z
" id="CMR17-56"/>
      </defs>
      <g transform="translate(27.907251 254.912383)scale(0.1 -0.1)">
       <use transform="scale(0.996264)" xlink:href="#CMR17-48"/>
       <use transform="translate(45.690477 0)scale(0.996264)" xlink:href="#CMMI12-58"/>
       <use transform="translate(72.787654 0)scale(0.996264)" xlink:href="#CMR17-56"/>
       <use transform="translate(118.478131 0)scale(0.996264)" xlink:href="#CMR17-48"/>
       <use transform="translate(164.168608 0)scale(0.996264)" xlink:href="#CMR17-48"/>
      </g>
     </g>
    </g>
    <g id="ytick_3">
     <g id="line2d_10">
      <g>
       <use style="stroke:#000000;stroke-width:0.8;" x="57.6" xlink:href="#m41be67fa8d" y="215.913269"/>
      </g>
     </g>
     <g id="text_11">
      <!-- $0.825$ -->
      <g transform="translate(27.907251 219.372518)scale(0.1 -0.1)">
       <use transform="scale(0.996264)" xlink:href="#CMR17-48"/>
       <use transform="translate(45.690477 0)scale(0.996264)" xlink:href="#CMMI12-58"/>
       <use transform="translate(72.787654 0)scale(0.996264)" xlink:href="#CMR17-56"/>
       <use transform="translate(118.478131 0)scale(0.996264)" xlink:href="#CMR17-50"/>
       <use transform="translate(164.168608 0)scale(0.996264)" xlink:href="#CMR17-53"/>
      </g>
     </g>
    </g>
    <g id="ytick_4">
     <g id="line2d_11">
      <g>
       <use style="stroke:#000000;stroke-width:0.8;" x="57.6" xlink:href="#m41be67fa8d" y="180.373403"/>
      </g>
     </g>
     <g id="text_12">
      <!-- $0.850$ -->
      <g transform="translate(27.907251 183.832653)scale(0.1 -0.1)">
       <use transform="scale(0.996264)" xlink:href="#CMR17-48"/>
       <use transform="translate(45.690477 0)scale(0.996264)" xlink:href="#CMMI12-58"/>
       <use transform="translate(72.787654 0)scale(0.996264)" xlink:href="#CMR17-56"/>
       <use transform="translate(118.478131 0)scale(0.996264)" xlink:href="#CMR17-53"/>
       <use transform="translate(164.168608 0)scale(0.996264)" xlink:href="#CMR17-48"/>
      </g>
     </g>
    </g>
    <g id="ytick_5">
     <g id="line2d_12">
      <g>
       <use style="stroke:#000000;stroke-width:0.8;" x="57.6" xlink:href="#m41be67fa8d" y="144.833538"/>
      </g>
     </g>
     <g id="text_13">
      <!-- $0.875$ -->
      <g transform="translate(27.907251 148.292787)scale(0.1 -0.1)">
       <use transform="scale(0.996264)" xlink:href="#CMR17-48"/>
       <use transform="translate(45.690477 0)scale(0.996264)" xlink:href="#CMMI12-58"/>
       <use transform="translate(72.787654 0)scale(0.996264)" xlink:href="#CMR17-56"/>
       <use transform="translate(118.478131 0)scale(0.996264)" xlink:href="#CMR17-55"/>
       <use transform="translate(164.168608 0)scale(0.996264)" xlink:href="#CMR17-53"/>
      </g>
     </g>
    </g>
    <g id="ytick_6">
     <g id="line2d_13">
      <g>
       <use style="stroke:#000000;stroke-width:0.8;" x="57.6" xlink:href="#m41be67fa8d" y="109.293673"/>
      </g>
     </g>
     <g id="text_14">
      <!-- $0.900$ -->
      <defs>
       <path d="M 35.203125 29.125 
C 35.203125 7.25 26.09375 0.484375 18.59375 0.484375 
C 16.296875 0.484375 10.703125 0.484375 8.40625 4.59375 
C 11 4.1875 12.90625 5.578125 12.90625 8.09375 
C 12.90625 10.8125 10.703125 11.703125 9.296875 11.703125 
C 8.40625 11.703125 5.703125 11.296875 5.703125 7.90625 
C 5.703125 1.109375 11.59375 -2 18.796875 -2 
C 30.296875 -2 42 10.53125 42 32.390625 
C 42 59.640625 30.796875 65.296875 23.203125 65.296875 
C 13.296875 65.296875 3.796875 56.6875 3.796875 43.40625 
C 3.796875 31.109375 11.90625 22 22.09375 22 
C 30.5 22 34.203125 29.734375 35.203125 33 
z
M 22.296875 23.59375 
C 19.59375 23.59375 15.796875 24.09375 12.703125 30.03125 
C 10.59375 33.890625 10.59375 38.453125 10.59375 43.296875 
C 10.59375 49.15625 10.59375 53.203125 13.40625 57.5625 
C 14.796875 59.640625 17.40625 63 23.203125 63 
C 35 63 35 45.078125 35 41.125 
C 35 34.09375 31.796875 23.59375 22.296875 23.59375 
z
" id="CMR17-57"/>
      </defs>
      <g transform="translate(27.907251 112.752922)scale(0.1 -0.1)">
       <use transform="scale(0.996264)" xlink:href="#CMR17-48"/>
       <use transform="translate(45.690477 0)scale(0.996264)" xlink:href="#CMMI12-58"/>
       <use transform="translate(72.787654 0)scale(0.996264)" xlink:href="#CMR17-57"/>
       <use transform="translate(118.478131 0)scale(0.996264)" xlink:href="#CMR17-48"/>
       <use transform="translate(164.168608 0)scale(0.996264)" xlink:href="#CMR17-48"/>
      </g>
     </g>
    </g>
    <g id="ytick_7">
     <g id="line2d_14">
      <g>
       <use style="stroke:#000000;stroke-width:0.8;" x="57.6" xlink:href="#m41be67fa8d" y="73.753807"/>
      </g>
     </g>
     <g id="text_15">
      <!-- $0.925$ -->
      <g transform="translate(27.907251 77.213056)scale(0.1 -0.1)">
       <use transform="scale(0.996264)" xlink:href="#CMR17-48"/>
       <use transform="translate(45.690477 0)scale(0.996264)" xlink:href="#CMMI12-58"/>
       <use transform="translate(72.787654 0)scale(0.996264)" xlink:href="#CMR17-57"/>
       <use transform="translate(118.478131 0)scale(0.996264)" xlink:href="#CMR17-50"/>
       <use transform="translate(164.168608 0)scale(0.996264)" xlink:href="#CMR17-53"/>
      </g>
     </g>
    </g>
    <g id="text_16">
     <!-- MS-SSIM -->
     <defs>
      <path d="M 49.90625 37.046875 
L 45.09375 23.015625 
C 44.296875 20.421875 41.59375 12.359375 41 9.171875 
L 40.90625 9.171875 
C 40.59375 11.171875 40 13.265625 38.40625 18.34375 
C 37.5 21.328125 36.5 24.40625 35.5 27.203125 
L 20.703125 69 
L 9 69 
L 9 0 
L 16.796875 0 
L 16.796875 60.9375 
L 16.90625 60.9375 
C 16.90625 60.84375 17.796875 56.453125 23.90625 39.046875 
L 37.09375 1.5 
L 44.5 1.5 
L 56.40625 34.859375 
C 57.203125 37.15625 59.703125 44.421875 60.796875 47.90625 
C 61.796875 50.890625 64.296875 58.25 64.90625 61.140625 
L 65 61.140625 
L 65 0 
L 72.90625 0 
L 72.90625 69 
L 61.296875 69 
z
" id="CMSS17-77"/>
      <path d="M 43.703125 65.140625 
C 39.296875 67.71875 34.5 70 26.40625 70 
C 13.5 70 5.203125 60.609375 5.203125 51.03125 
C 5.203125 47.265625 6.296875 43.015625 10.203125 38.671875 
C 14.09375 34.3125 18.5 33.140625 24.09375 31.765625 
C 26.40625 31.15625 30.296875 30.0625 31 29.78125 
C 36.59375 27.609375 39.296875 22.5625 39.296875 17.8125 
C 39.296875 11.59375 34.40625 4.96875 25.703125 4.96875 
C 22.703125 4.96875 13.90625 4.96875 5.59375 12.796875 
L 4.203125 4.96875 
C 12.40625 -1 21.296875 -2 25.796875 -2 
C 38.09375 -2 46.90625 7.625 46.90625 18.53125 
C 46.90625 22.5 45.703125 27.546875 41.5 32.203125 
C 37.40625 36.671875 33.796875 37.65625 25.59375 39.828125 
C 20.90625 41.03125 17.90625 41.828125 15.40625 44.890625 
C 13.703125 47.078125 12.796875 49.15625 12.796875 51.828125 
C 12.796875 57.390625 17.59375 63.4375 26.40625 63.4375 
C 30.796875 63.4375 36.5 62.53125 42.296875 57.1875 
z
" id="CMSS17-83"/>
      <path d="M 26 19 
L 26 24.765625 
L 1 24.765625 
L 1 19 
z
" id="CMSS17-45"/>
      <path d="M 17.09375 69 
L 8.703125 69 
L 8.703125 0 
L 17.09375 0 
z
" id="CMSS17-73"/>
     </defs>
     <g transform="translate(21.970072 194.59173)rotate(-90)scale(0.1 -0.1)">
      <use transform="scale(0.996264)" xlink:href="#CMSS17-77"/>
      <use transform="translate(81.67603 0)scale(0.996264)" xlink:href="#CMSS17-83"/>
      <use transform="translate(133.724546 0)scale(0.996264)" xlink:href="#CMSS17-45"/>
      <use transform="translate(164.953659 0)scale(0.996264)" xlink:href="#CMSS17-83"/>
      <use transform="translate(217.002175 0)scale(0.996264)" xlink:href="#CMSS17-83"/>
      <use transform="translate(269.050691 0)scale(0.996264)" xlink:href="#CMSS17-73"/>
      <use transform="translate(294.834617 0)scale(0.996264)" xlink:href="#CMSS17-77"/>
     </g>
    </g>
   </g>
   <g id="line2d_15">
    <path clip-path="url(#pf34cee49ea)" d="M 73.832727 295.488 
L 74.918528 229.17322 
L 76.00433 218.935987 
L 77.090131 183.379273 
L 78.175932 184.948715 
L 79.261733 159.555028 
L 80.347534 142.056765 
L 81.433335 139.690265 
L 82.519137 145.212447 
L 84.690739 129.360681 
L 85.77654 135.129586 
L 86.862341 137.94353 
L 87.948142 121.073356 
L 89.033943 120.223223 
L 90.119745 131.647229 
L 91.205546 123.329267 
L 92.291347 124.955101 
L 93.377148 108.239594 
L 94.462949 116.556712 
L 95.54875 118.930277 
L 96.634552 119.589203 
L 97.720353 112.581404 
L 98.806154 120.901241 
L 99.891955 114.151892 
L 100.977756 113.578843 
L 102.063557 116.277858 
L 103.149358 119.870835 
L 104.23516 117.75358 
L 105.320961 110.764464 
L 106.406762 119.307099 
L 107.492563 111.293107 
L 108.578364 116.19613 
L 109.664165 106.764698 
L 110.749967 109.6237 
L 111.835768 100.046537 
L 112.921569 109.457774 
L 114.00737 107.026584 
L 115.093171 115.853048 
L 116.178972 107.611731 
L 117.264773 109.164657 
L 118.350575 106.921552 
L 119.436376 95.11805 
L 120.522177 99.672114 
L 121.607978 101.905137 
L 122.693779 94.905949 
L 123.77958 101.782029 
L 124.865382 104.837084 
L 125.951183 97.701819 
L 127.036984 101.52847 
L 128.122785 100.948578 
L 129.208586 103.180821 
L 130.294387 97.54782 
L 131.380189 92.65876 
L 132.46599 102.482218 
L 133.551791 93.782242 
L 134.637592 104.153303 
L 135.723393 97.97967 
L 136.809194 94.641864 
L 137.894995 95.124564 
L 138.980797 95.406678 
L 140.066598 92.265834 
L 141.152399 95.73902 
L 142.2382 104.797391 
L 143.324001 88.037463 
L 144.409802 87.80252 
L 145.495604 97.307027 
L 146.581405 89.665767 
L 147.667206 88.467559 
L 148.753007 87.639735 
L 149.838808 90.020106 
L 150.924609 84.952973 
L 152.01041 94.563715 
L 153.096212 80.11189 
L 154.182013 88.003322 
L 155.267814 87.539768 
L 156.353615 85.455657 
L 157.439416 81.570971 
L 158.525217 88.744435 
L 159.611019 94.505814 
L 160.69682 85.166023 
L 161.782621 111.744153 
L 162.868422 88.647071 
L 163.954223 86.872751 
L 165.040024 97.621575 
L 166.125825 86.26699 
L 167.211627 89.537177 
L 168.297428 83.981877 
L 169.383229 87.327754 
L 170.46903 84.123103 
L 171.554831 82.596202 
L 172.640632 81.579067 
L 173.726434 90.754434 
L 174.812235 86.846365 
L 175.898036 77.895327 
L 176.983837 81.778359 
L 178.069638 83.860207 
L 179.155439 80.394476 
L 180.24124 77.572293 
L 181.327042 82.928273 
L 182.412843 90.825925 
L 183.498644 88.477246 
L 184.584445 83.217288 
L 185.670246 86.153517 
L 186.756047 78.016758 
L 187.841849 77.189441 
L 188.92765 82.482139 
L 190.013451 84.179936 
L 191.099252 81.476053 
L 192.185053 74.244098 
L 193.270854 81.518667 
L 194.356656 84.027784 
L 195.442457 84.471716 
L 196.528258 93.212931 
L 197.614059 79.275476 
L 198.69986 74.874784 
L 199.785661 89.074535 
L 200.871462 82.558135 
L 201.957264 79.704149 
L 203.043065 80.150873 
L 204.128866 85.358905 
L 205.214667 71.367112 
L 206.300468 77.873394 
L 207.386269 82.691816 
L 208.472071 88.464747 
L 209.557872 82.433211 
L 211.729474 75.376418 
L 212.815275 80.564355 
L 213.901076 82.622661 
L 214.986877 78.425175 
L 216.072679 76.203589 
L 217.15848 86.054749 
L 218.244281 80.11653 
L 219.330082 84.138475 
L 220.415883 74.770352 
L 221.501684 82.057702 
L 222.587486 78.66441 
L 223.673287 72.995375 
L 224.759088 71.835481 
L 225.844889 84.76809 
L 226.93069 73.864452 
L 228.016491 84.661276 
L 229.102292 76.252711 
L 230.188094 82.711089 
L 231.273895 91.952898 
L 232.359696 81.713471 
L 233.445497 77.430156 
L 234.531298 77.87345 
L 235.617099 86.699075 
L 236.702901 81.320892 
L 237.788702 74.266913 
L 238.874503 64.97102 
L 239.960304 72.533452 
L 241.046105 72.804813 
L 242.131906 72.065473 
L 243.217708 68.11414 
L 244.303509 70.671155 
L 245.38931 72.183559 
L 246.475111 77.289482 
L 247.560912 73.731221 
L 248.646713 73.400715 
L 249.732514 71.933881 
L 250.818316 67.90776 
L 251.904117 74.748877 
L 252.989918 70.269454 
L 254.075719 78.332375 
L 255.16152 67.776947 
L 256.247321 77.37231 
L 257.333123 76.956799 
L 258.418924 71.56032 
L 259.504725 76.744009 
L 260.590526 76.559103 
L 261.676327 78.22153 
L 262.762128 78.684873 
L 263.847929 74.39362 
L 264.933731 74.954213 
L 266.019532 77.553839 
L 267.105333 79.281365 
L 268.191134 77.989049 
L 269.276935 73.674117 
L 270.362736 72.347589 
L 271.448538 68.755252 
L 272.534339 71.78521 
L 273.62014 72.513872 
L 274.705941 64.152309 
L 275.791742 77.65357 
L 276.877543 68.081779 
L 277.963344 68.521642 
L 279.049146 70.204652 
L 280.134947 70.134217 
L 281.220748 71.371401 
L 282.306549 65.765984 
L 283.39235 79.122652 
L 284.478151 64.307639 
L 285.563953 63.724686 
L 286.649754 69.41627 
L 287.735555 77.617791 
L 288.821356 79.373067 
L 289.907157 70.82919 
L 290.992958 69.999833 
L 292.07876 73.39996 
L 293.164561 64.415614 
L 294.250362 67.861155 
L 295.336163 67.079418 
L 296.421964 75.909886 
L 297.507765 71.955298 
L 299.679368 68.522891 
L 300.765169 69.300706 
L 301.85097 72.765819 
L 302.936771 66.849349 
L 304.022572 71.312127 
L 305.108373 61.033633 
L 306.194175 75.170911 
L 307.279976 70.597102 
L 308.365777 68.067628 
L 309.451578 71.46042 
L 310.537379 67.146807 
L 311.62318 66.250425 
L 312.708981 65.074644 
L 313.794783 67.382584 
L 314.880584 65.915529 
L 315.966385 67.78931 
L 317.052186 68.197397 
L 318.137987 66.777803 
L 319.223788 68.741554 
L 320.30959 70.069613 
L 321.395391 69.558835 
L 322.481192 79.264678 
L 323.566993 69.448205 
L 324.652794 66.334829 
L 325.738595 63.85407 
L 326.824396 66.152285 
L 327.910198 69.796326 
L 328.995999 66.978061 
L 330.0818 63.701875 
L 331.167601 65.745477 
L 332.253402 64.512934 
L 333.339203 68.51414 
L 334.425005 66.691849 
L 335.510806 60.438425 
L 336.596607 72.868443 
L 337.682408 65.469683 
L 338.768209 61.058959 
L 339.85401 65.817048 
L 340.939811 68.243335 
L 342.025613 60.381422 
L 343.111414 68.266611 
L 344.197215 64.49625 
L 345.283016 64.866948 
L 346.368817 59.110674 
L 347.454618 64.07792 
L 348.54042 68.514131 
L 349.626221 70.539115 
L 350.712022 58.367451 
L 351.797823 59.492864 
L 352.883624 56.819865 
L 353.969425 66.406222 
L 355.055227 70.565279 
L 356.141028 59.865522 
L 357.226829 73.96442 
L 358.31263 67.844847 
L 359.398431 63.238201 
L 360.484232 67.544364 
L 361.570033 72.856542 
L 362.655835 64.885467 
L 363.741636 64.096981 
L 364.827437 69.122221 
L 365.913238 60.606722 
L 366.999039 68.493342 
L 368.08484 62.433447 
L 369.170642 60.878415 
L 370.256443 64.336741 
L 371.342244 58.946359 
L 372.428045 61.031261 
L 373.513846 60.720732 
L 374.599647 61.288353 
L 375.685448 69.286018 
L 376.77125 65.431127 
L 377.857051 58.323866 
L 378.942852 62.297841 
L 380.028653 55.441978 
L 381.114454 60.986209 
L 382.200255 60.668147 
L 383.286057 56.358838 
L 384.371858 59.315353 
L 385.457659 55.595528 
L 386.54346 70.060925 
L 388.715062 60.687189 
L 389.800863 61.735814 
L 390.886665 53.568 
L 391.972466 64.955958 
L 393.058267 61.310149 
L 394.144068 68.458204 
L 395.229869 60.556949 
L 396.31567 59.553868 
L 397.401472 59.50169 
L 398.487273 58.654012 
L 398.487273 58.654012 
" style="fill:none;stroke:#0000ff;stroke-linecap:square;stroke-width:1.5;"/>
   </g>
   <g id="line2d_16">
    <path clip-path="url(#pf34cee49ea)" d="M 73.832727 278.158192 
L 74.918528 229.5124 
L 76.00433 195.286391 
L 77.090131 191.12443 
L 78.175932 184.638984 
L 79.261733 158.279341 
L 80.347534 162.775696 
L 81.433335 144.427007 
L 82.519137 156.70248 
L 83.604938 142.538756 
L 84.690739 138.561034 
L 85.77654 131.964832 
L 86.862341 127.470418 
L 87.948142 143.821221 
L 89.033943 122.417335 
L 90.119745 141.703424 
L 91.205546 126.44764 
L 92.291347 118.007854 
L 93.377148 126.060078 
L 94.462949 131.084648 
L 95.54875 118.234716 
L 96.634552 119.997745 
L 97.720353 123.394284 
L 98.806154 121.179654 
L 99.891955 124.579307 
L 100.977756 117.366538 
L 102.063557 121.415548 
L 103.149358 115.712306 
L 104.23516 115.417498 
L 105.320961 115.334281 
L 106.406762 109.023856 
L 107.492563 112.559139 
L 108.578364 124.258693 
L 109.664165 111.248793 
L 110.749967 119.823135 
L 111.835768 121.468243 
L 112.921569 110.345516 
L 114.00737 116.38554 
L 115.093171 105.943878 
L 116.178972 121.748831 
L 117.264773 121.367064 
L 118.350575 112.20379 
L 119.436376 111.652244 
L 120.522177 118.988851 
L 121.607978 99.708162 
L 122.693779 104.613656 
L 123.77958 102.387326 
L 124.865382 94.634503 
L 125.951183 106.802796 
L 127.036984 111.913998 
L 128.122785 104.531125 
L 129.208586 105.305585 
L 130.294387 107.536869 
L 131.380189 109.430632 
L 132.46599 105.789152 
L 133.551791 107.706417 
L 134.637592 104.207641 
L 135.723393 109.799043 
L 136.809194 109.324905 
L 137.894995 102.067718 
L 138.980797 100.214289 
L 140.066598 100.94439 
L 141.152399 102.66343 
L 142.2382 107.99095 
L 143.324001 99.675273 
L 144.409802 105.71492 
L 145.495604 102.758313 
L 146.581405 102.072202 
L 147.667206 97.23632 
L 148.753007 96.147787 
L 149.838808 101.048755 
L 150.924609 94.526979 
L 152.01041 106.220311 
L 153.096212 97.13065 
L 154.182013 91.55461 
L 155.267814 100.405937 
L 156.353615 87.202162 
L 157.439416 94.358546 
L 158.525217 99.853442 
L 159.611019 94.953908 
L 160.69682 101.442847 
L 161.782621 111.648813 
L 162.868422 98.716139 
L 163.954223 93.977163 
L 165.040024 92.931726 
L 166.125825 96.459411 
L 167.211627 94.857277 
L 168.297428 100.32386 
L 169.383229 103.044676 
L 170.46903 93.911311 
L 171.554831 96.074124 
L 172.640632 100.70116 
L 173.726434 94.92798 
L 174.812235 97.040465 
L 175.898036 94.136322 
L 176.983837 93.139613 
L 178.069638 95.899261 
L 179.155439 90.016834 
L 180.24124 100.939589 
L 181.327042 96.340507 
L 182.412843 85.553319 
L 183.498644 92.707179 
L 184.584445 88.955915 
L 185.670246 96.221327 
L 186.756047 99.030338 
L 187.841849 93.90507 
L 188.92765 83.576714 
L 190.013451 90.625547 
L 191.099252 91.071302 
L 192.185053 86.937855 
L 193.270854 84.581341 
L 194.356656 91.946278 
L 195.442457 92.630328 
L 196.528258 96.649597 
L 197.614059 102.98628 
L 198.69986 98.707925 
L 199.785661 87.01901 
L 200.871462 90.462115 
L 201.957264 92.944443 
L 203.043065 93.710163 
L 204.128866 86.89715 
L 205.214667 87.898306 
L 206.300468 89.646881 
L 207.386269 84.168668 
L 208.472071 95.508228 
L 209.557872 91.21579 
L 210.643673 84.730833 
L 211.729474 98.921865 
L 212.815275 92.771454 
L 213.901076 92.081216 
L 214.986877 90.415067 
L 216.072679 94.763451 
L 217.15848 100.20082 
L 218.244281 87.252322 
L 219.330082 88.56103 
L 220.415883 86.817257 
L 221.501684 89.694089 
L 222.587486 86.167675 
L 223.673287 96.043925 
L 224.759088 86.942271 
L 225.844889 94.131414 
L 226.93069 72.997666 
L 228.016491 87.660103 
L 229.102292 95.719996 
L 230.188094 81.166643 
L 231.273895 88.393476 
L 232.359696 89.075074 
L 233.445497 84.900983 
L 234.531298 89.144705 
L 235.617099 98.22589 
L 236.702901 89.960941 
L 237.788702 87.318094 
L 238.874503 82.764775 
L 239.960304 93.73877 
L 241.046105 73.937054 
L 242.131906 88.159125 
L 243.217708 90.786068 
L 244.303509 80.455183 
L 245.38931 81.671566 
L 246.475111 78.1491 
L 247.560912 91.569454 
L 248.646713 88.225905 
L 249.732514 93.226955 
L 250.818316 83.106279 
L 251.904117 85.119761 
L 252.989918 82.718928 
L 254.075719 85.42846 
L 255.16152 92.343537 
L 256.247321 86.337256 
L 257.333123 85.911141 
L 258.418924 76.314182 
L 259.504725 75.392191 
L 260.590526 89.271894 
L 261.676327 84.603597 
L 262.762128 85.10209 
L 263.847929 92.786947 
L 264.933731 84.216524 
L 266.019532 89.81728 
L 267.105333 82.838973 
L 268.191134 78.685084 
L 269.276935 86.886266 
L 270.362736 89.94669 
L 271.448538 80.007997 
L 272.534339 86.249325 
L 273.62014 99.856578 
L 274.705941 80.730196 
L 275.791742 94.060769 
L 276.877543 83.965833 
L 277.963344 87.087791 
L 279.049146 85.71258 
L 280.134947 76.649182 
L 281.220748 89.503598 
L 282.306549 87.663153 
L 283.39235 90.430907 
L 284.478151 91.675657 
L 285.563953 86.412849 
L 286.649754 83.756794 
L 287.735555 78.57094 
L 288.821356 78.156265 
L 289.907157 89.629742 
L 290.992958 85.382021 
L 292.07876 89.103108 
L 293.164561 85.950983 
L 294.250362 85.332496 
L 295.336163 84.237637 
L 296.421964 88.611255 
L 297.507765 89.668257 
L 298.593566 91.297365 
L 299.679368 88.039625 
L 300.765169 86.522179 
L 301.85097 90.434984 
L 302.936771 83.727283 
L 304.022572 80.662942 
L 305.108373 87.575514 
L 306.194175 86.938281 
L 307.279976 93.291775 
L 308.365777 83.889094 
L 309.451578 80.225048 
L 310.537379 84.03132 
L 311.62318 76.965973 
L 312.708981 86.137039 
L 313.794783 90.489407 
L 314.880584 88.327028 
L 315.966385 91.710884 
L 317.052186 82.935561 
L 318.137987 83.555483 
L 319.223788 89.303149 
L 320.30959 85.270095 
L 321.395391 83.080336 
L 322.481192 91.640563 
L 323.566993 83.461 
L 324.652794 84.165892 
L 325.738595 80.026731 
L 326.824396 83.041492 
L 327.910198 91.683796 
L 328.995999 85.247555 
L 330.0818 93.600869 
L 331.167601 85.720946 
L 332.253402 82.119977 
L 333.339203 90.59132 
L 334.425005 80.220437 
L 335.510806 89.268305 
L 336.596607 86.003078 
L 337.682408 76.933864 
L 338.768209 84.140365 
L 339.85401 88.695049 
L 340.939811 88.830107 
L 342.025613 77.781004 
L 343.111414 74.203261 
L 344.197215 84.514842 
L 345.283016 86.117451 
L 346.368817 86.776913 
L 347.454618 84.029243 
L 348.54042 86.867447 
L 349.626221 84.71698 
L 350.712022 79.657968 
L 352.883624 86.071683 
L 353.969425 85.27522 
L 355.055227 84.717724 
L 356.141028 83.138491 
L 357.226829 85.175704 
L 358.31263 84.532379 
L 359.398431 85.250026 
L 360.484232 81.417863 
L 361.570033 91.027844 
L 362.655835 84.127164 
L 363.741636 92.113706 
L 364.827437 93.601045 
L 365.913238 72.307969 
L 366.999039 91.541883 
L 368.08484 80.623357 
L 369.170642 91.231973 
L 370.256443 81.838967 
L 371.342244 83.9564 
L 372.428045 87.699667 
L 373.513846 85.334868 
L 374.599647 80.094346 
L 375.685448 82.092355 
L 376.77125 75.463377 
L 377.857051 79.415074 
L 378.942852 80.105337 
L 380.028653 81.933884 
L 381.114454 86.780772 
L 382.200255 80.790581 
L 383.286057 84.461216 
L 384.371858 86.893537 
L 385.457659 90.476017 
L 386.54346 81.37799 
L 387.629261 85.2547 
L 388.715062 72.780857 
L 389.800863 89.415587 
L 390.886665 73.38003 
L 391.972466 73.365758 
L 393.058267 82.425529 
L 394.144068 88.571244 
L 395.229869 80.612977 
L 396.31567 79.597016 
L 397.401472 79.895014 
L 398.487273 87.375772 
L 398.487273 87.375772 
" style="fill:none;stroke:#ff0000;stroke-linecap:square;stroke-width:1.5;"/>
   </g>
   <g id="patch_3">
    <path d="M 57.6 307.584 
L 57.6 41.472 
" style="fill:none;stroke:#000000;stroke-linecap:square;stroke-linejoin:miter;stroke-width:0.8;"/>
   </g>
   <g id="patch_4">
    <path d="M 414.72 307.584 
L 414.72 41.472 
" style="fill:none;stroke:#000000;stroke-linecap:square;stroke-linejoin:miter;stroke-width:0.8;"/>
   </g>
   <g id="patch_5">
    <path d="M 57.6 307.584 
L 414.72 307.584 
" style="fill:none;stroke:#000000;stroke-linecap:square;stroke-linejoin:miter;stroke-width:0.8;"/>
   </g>
   <g id="patch_6">
    <path d="M 57.6 41.472 
L 414.72 41.472 
" style="fill:none;stroke:#000000;stroke-linecap:square;stroke-linejoin:miter;stroke-width:0.8;"/>
   </g>
   <g id="text_17">
    <!-- $\textrm{VAE}_{50}$ -->
    <defs>
     <path d="M 59 58.515625 
C 59.90625 60.71875 61.5 65 68.203125 65 
L 68.203125 67.6875 
C 65.90625 67.484375 63.296875 67.484375 60.796875 67.484375 
C 58.40625 67.484375 54.296875 67.484375 52 67.6875 
L 52 65 
C 57 65 57.203125 61.5 57.203125 60.90625 
C 57.203125 59.796875 56.90625 59.109375 56.59375 58.3125 
L 36.90625 6.96875 
L 16.296875 60.71875 
C 16 61.421875 15.796875 61.921875 15.796875 62.40625 
C 15.796875 65 19.796875 65 21.90625 65 
L 21.90625 67.484375 
C 18.703125 67.484375 14 67.484375 10.703125 67.484375 
C 8.09375 67.484375 3.40625 67.484375 1 67.6875 
L 1 65 
C 6.796875 65 7.90625 64.609375 9.09375 61.421875 
L 32.90625 -0.40625 
C 33.40625 -1.796875 33.5 -2 34.59375 -2 
C 35.703125 -2 35.796875 -1.796875 36.296875 -0.40625 
z
" id="CMR17-86"/>
     <path d="M 36.296875 68.40625 
C 35.796875 69.703125 35.59375 70 34.59375 70 
C 33.59375 70 33.40625 69.703125 32.90625 68.40625 
L 11.703125 8.84375 
C 9.796875 3.484375 5.796875 2.390625 2.296875 2.390625 
L 2.296875 -0.203125 
C 4.09375 0 8.09375 0 10 0 
C 12.5 0 16.5 0 18.90625 -0.203125 
L 18.90625 2.390625 
C 14.203125 2.390625 13.5 5.640625 13.5 6.859375 
C 13.5 7.765625 13.703125 8.28125 13.90625 8.890625 
L 19.203125 24 
L 45.40625 24 
L 51.40625 6.90625 
C 51.90625 5.703125 51.90625 5.5 51.90625 5.109375 
C 51.90625 2.390625 47.59375 2.390625 45.703125 2.390625 
L 45.703125 0 
C 48.59375 0 53.796875 0 56.90625 0 
C 59.5 0 64.5 0 66.90625 -0.203125 
L 66.90625 2.390625 
C 61.59375 2.390625 59.796875 2.390625 58.5 6.046875 
z
M 32.296875 60.828125 
L 44.5 26.59375 
L 20.09375 26.59375 
z
" id="CMR17-65"/>
     <path d="M 60.703125 25.234375 
L 58.90625 25.234375 
C 56.703125 10.5625 55.40625 2.59375 37.796875 2.59375 
L 23.90625 2.59375 
C 19.90625 2.59375 19.703125 3.078125 19.703125 6.46875 
L 19.703125 34 
L 29.09375 34 
C 38.5 34 39.40625 30.625 39.40625 22.34375 
L 41.203125 22.34375 
L 41.203125 48.140625 
L 39.40625 48.140625 
C 39.40625 39.953125 38.5 36.59375 29.09375 36.59375 
L 19.703125 36.59375 
L 19.703125 61.140625 
C 19.703125 64.5 19.90625 65 23.90625 65 
L 37.59375 65 
C 53.09375 65 54.90625 58.890625 56.296875 45.765625 
L 58.09375 45.765625 
L 55.703125 67.578125 
L 5.09375 67.578125 
L 5.09375 65 
C 12 65 13.09375 65 13.09375 60.53125 
L 13.09375 7.046875 
C 13.09375 2.59375 12 2.59375 5.09375 2.59375 
L 5.09375 0 
L 57.09375 0 
z
" id="CMR17-69"/>
    </defs>
    <g transform="translate(219.818563 35.472)scale(0.12 -0.12)">
     <use transform="translate(0 14.943915)scale(0.996264)" xlink:href="#CMR17-86"/>
     <use transform="translate(58.66272 14.943915)scale(0.996264)" xlink:href="#CMR17-65"/>
     <use transform="translate(127.73515 14.943915)scale(0.996264)" xlink:href="#CMR17-69"/>
     <use transform="translate(190.321451 0)scale(0.697382)" xlink:href="#CMR17-53"/>
     <use transform="translate(222.304633 0)scale(0.697382)" xlink:href="#CMR17-48"/>
    </g>
   </g>
   <g id="legend_1">
    <g id="patch_7">
     <path d="M 268.489782 302.384 
L 406.64 302.384 
Q 409.52 302.384 409.52 299.504 
L 409.52 260.804946 
Q 409.52 257.924946 406.64 257.924946 
L 268.489782 257.924946 
Q 265.609782 257.924946 265.609782 260.804946 
L 265.609782 299.504 
Q 265.609782 302.384 268.489782 302.384 
z
" style="fill:#4c4c4c;opacity:0.5;stroke:#4c4c4c;stroke-linejoin:miter;"/>
    </g>
    <g id="patch_8">
     <path d="M 266.489782 300.384 
L 404.64 300.384 
Q 407.52 300.384 407.52 297.504 
L 407.52 258.804946 
Q 407.52 255.924946 404.64 255.924946 
L 266.489782 255.924946 
Q 263.609782 255.924946 263.609782 258.804946 
L 263.609782 297.504 
Q 263.609782 300.384 266.489782 300.384 
z
" style="fill:#ffffff;stroke:#cccccc;stroke-linejoin:miter;"/>
    </g>
    <g id="line2d_17">
     <path d="M 269.369782 266.724946 
L 298.169782 266.724946 
" style="fill:none;stroke:#0000ff;stroke-linecap:square;stroke-width:1.5;"/>
    </g>
    <g id="line2d_18"/>
    <g id="text_18">
     <!-- Train Data -->
     <defs>
      <path d="M 36.203125 62 
L 44.5 62 
C 45.703125 62 46.90625 62 48.09375 62 
L 60.59375 62 
L 60.59375 68.375 
L 3.40625 68.375 
L 3.40625 62 
L 15.90625 62 
C 17.09375 62 18.296875 62 19.5 62 
L 27.796875 62 
L 27.796875 -0.5 
L 36.203125 -0.5 
z
" id="CMSS17-84"/>
      <path d="M 14.90625 21.296875 
C 14.90625 30.703125 21.796875 37 30.59375 37 
L 30.59375 43.578125 
C 24.203125 43.578125 18.203125 40.390625 14.59375 35.203125 
L 14.59375 43.09375 
L 7.5 43.09375 
L 7.5 0 
L 14.90625 0 
z
" id="CMSS17-114"/>
      <path d="M 37.59375 27.984375 
C 37.59375 37.375 30.90625 43.875 21.90625 43.875 
C 17.5 43.875 12.703125 43.078125 7.203125 39.890625 
L 7.796875 33.359375 
C 10.296875 35.125 14.59375 38 21.796875 38 
C 26.90625 38 30 34.0625 30 27.84375 
L 30 24 
C 14 24 4 19.34375 4 11.34375 
C 4 7.203125 6.5 -1 14.796875 -1 
C 16.296875 -1 24.40625 -1 30.203125 3.390625 
L 30.203125 -0.296875 
L 37.59375 -0.296875 
z
M 30 12.75 
C 30 10.953125 30 8.5625 27 6.78125 
C 24.40625 5.078125 21.09375 5.078125 19.703125 5.078125 
C 14.703125 5.078125 11.296875 7.984375 11.296875 11.625 
C 11.296875 18.921875 26.90625 18.921875 30 18.921875 
z
" id="CMSS17-97"/>
      <path d="M 15.296875 65.359375 
L 6.90625 65.359375 
L 6.90625 57 
L 15.296875 57 
z
M 14.796875 42.796875 
L 7.40625 42.796875 
L 7.40625 0 
L 14.796875 0 
z
" id="CMSS17-105"/>
      <path d="M 40.90625 29.328125 
C 40.90625 35.671875 39.40625 44 28.09375 44 
C 21.703125 44 17.5 40.71875 14.703125 37.328125 
L 14.703125 43.09375 
L 7.40625 43.09375 
L 7.40625 0 
L 15 0 
L 15 24.359375 
C 15 30.6875 17.40625 37.9375 24.203125 37.9375 
C 33 37.9375 33.296875 32 33.296875 28.578125 
L 33.296875 0 
L 40.90625 0 
z
" id="CMSS17-110"/>
      <path d="M 8.90625 69 
L 8.90625 0 
L 33.5 0 
C 49.90625 0 62.5 15.3125 62.5 33.90625 
C 62.5 53.09375 49.90625 69 33.5 69 
z
M 17.09375 5.578125 
L 17.09375 63.421875 
L 31.296875 63.421875 
C 44.703125 63.421875 54.296875 51.203125 54.296875 33.90625 
C 54.296875 17.296875 44.796875 5.578125 31.296875 5.578125 
z
" id="CMSS17-68"/>
      <path d="M 16.703125 37 
L 29.703125 37 
L 29.703125 42.765625 
L 16.703125 42.765625 
L 16.703125 55 
L 9.59375 55 
L 9.59375 42.765625 
L 1.703125 42.765625 
L 1.703125 37 
L 9.40625 37 
L 9.40625 11.703125 
C 9.40625 6 10.703125 -1 17.296875 -1 
C 22.296875 -1 26.90625 0.390625 31.296875 2.6875 
L 29.703125 8.5625 
C 27.296875 6.46875 24.40625 5.265625 21.296875 5.265625 
C 16.90625 5.265625 16.703125 10.875 16.703125 13.375 
z
" id="CMSS17-116"/>
     </defs>
     <g transform="translate(309.689782 271.764946)scale(0.144 -0.144)">
      <use transform="scale(0.996264)" xlink:href="#CMSS17-84"/>
      <use transform="translate(56.012199 0)scale(0.996264)" xlink:href="#CMSS17-114"/>
      <use transform="translate(87.921971 0)scale(0.996264)" xlink:href="#CMSS17-97"/>
      <use transform="translate(132.843892 0)scale(0.996264)" xlink:href="#CMSS17-105"/>
      <use transform="translate(155.024615 0)scale(0.996264)" xlink:href="#CMSS17-110"/>
      <use transform="translate(234.458671 0)scale(0.996264)" xlink:href="#CMSS17-68"/>
      <use transform="translate(302.001512 0)scale(0.996264)" xlink:href="#CMSS17-97"/>
      <use transform="translate(346.923433 0)scale(0.996264)" xlink:href="#CMSS17-116"/>
      <use transform="translate(380.755 0)scale(0.996264)" xlink:href="#CMSS17-97"/>
     </g>
    </g>
    <g id="line2d_19">
     <path d="M 269.369782 286.794473 
L 298.169782 286.794473 
" style="fill:none;stroke:#ff0000;stroke-linecap:square;stroke-width:1.5;"/>
    </g>
    <g id="line2d_20"/>
    <g id="text_19">
     <!-- Validation Data -->
     <defs>
      <path d="M 61.09375 69 
L 53.296875 69 
L 36 21.28125 
C 35.5 19.890625 32.40625 10.75 31.796875 7.5625 
L 31.703125 7.5625 
C 30.90625 11.34375 27.703125 20.1875 26 25.0625 
L 14.40625 57.375 
L 10.09375 69 
L 1.296875 69 
L 26.796875 0 
L 35.59375 0 
z
" id="CMSS17-86"/>
      <path d="M 14.796875 69 
L 7.40625 69 
L 7.40625 0 
L 14.796875 0 
z
" id="CMSS17-108"/>
      <path d="M 40.796875 69 
L 33.40625 69 
L 33.40625 38.09375 
C 30.296875 40.671875 25.203125 43.0625 19.59375 43.0625 
C 10.5 43.0625 3.296875 33.296875 3.296875 21.046875 
C 3.296875 8.78125 10.40625 -1 19.296875 -1 
C 26.203125 -1 30.796875 2.6875 33.203125 4.78125 
L 33.203125 -0.203125 
L 40.796875 -0.203125 
z
M 33.203125 13.0625 
C 33.203125 11.671875 33.203125 10.203125 30.09375 7.53125 
C 28.09375 5.859375 25.703125 5.078125 23.40625 5.078125 
C 18 5.078125 10.90625 9 10.90625 20.9375 
C 10.90625 33.34375 18.90625 37 24.40625 37 
C 28.09375 37 31.09375 35.21875 33.203125 32.265625 
z
" id="CMSS17-100"/>
     </defs>
     <g transform="translate(309.689782 291.834473)scale(0.144 -0.144)">
      <use transform="scale(0.996264)" xlink:href="#CMSS17-86"/>
      <use transform="translate(59.615401 0)scale(0.996264)" xlink:href="#CMSS17-97"/>
      <use transform="translate(104.537322 0)scale(0.996264)" xlink:href="#CMSS17-108"/>
      <use transform="translate(126.718045 0)scale(0.996264)" xlink:href="#CMSS17-105"/>
      <use transform="translate(148.898768 0)scale(0.996264)" xlink:href="#CMSS17-100"/>
      <use transform="translate(197.103711 0)scale(0.996264)" xlink:href="#CMSS17-97"/>
      <use transform="translate(242.025631 0)scale(0.996264)" xlink:href="#CMSS17-116"/>
      <use transform="translate(275.857198 0)scale(0.996264)" xlink:href="#CMSS17-105"/>
      <use transform="translate(298.037921 0)scale(0.996264)" xlink:href="#CMSS17-111"/>
      <use transform="translate(344.881545 0)scale(0.996264)" xlink:href="#CMSS17-110"/>
      <use transform="translate(424.315601 0)scale(0.996264)" xlink:href="#CMSS17-68"/>
      <use transform="translate(491.858442 0)scale(0.996264)" xlink:href="#CMSS17-97"/>
      <use transform="translate(536.780363 0)scale(0.996264)" xlink:href="#CMSS17-116"/>
      <use transform="translate(570.61193 0)scale(0.996264)" xlink:href="#CMSS17-97"/>
     </g>
    </g>
   </g>
  </g>
 </g>
 <defs>
  <clipPath id="pf34cee49ea">
   <rect height="266.112" width="357.12" x="57.6" y="41.472"/>
  </clipPath>
 </defs>
</svg>
